<svg width="577" height="708" viewBox="0 0 577 708" fill="none" xmlns="http://www.w3.org/2000/svg">
<g clip-path="url(#clip0_83576_1257)">
<rect width="577" height="708" fill="#FDFDFC"/>
<g clip-path="url(#clip1_83576_1257)">
<rect width="964.623" height="729.016" transform="translate(-22)" fill="#FDFDFC"/>
<g clip-path="url(#clip2_83576_1257)">
<rect width="860.477" height="143.413" transform="translate(30.9258 55.4873)" fill="#F5F5F4"/>
<g clip-path="url(#clip3_83576_1257)">
<rect width="245.851" height="102.438" transform="translate(51.4141 75.9746)" fill="white"/>
<rect width="27.3167" height="27.3167" transform="translate(65.0723 87.9258)" fill="#655343"/>
<path fill-rule="evenodd" clip-rule="evenodd" d="M73.502 97.8494C73.502 97.0243 74.1708 96.3555 74.9958 96.3555H75.6789C76.1073 96.3555 76.4807 96.6471 76.5847 97.0627L77.1353 99.2653C77.2264 99.6297 77.0902 100.013 76.7897 100.239L76.1455 100.722C76.0786 100.772 76.0641 100.845 76.0829 100.897C76.6483 102.44 77.8743 103.666 79.4179 104.232C79.4692 104.251 79.5427 104.236 79.5928 104.169L80.0759 103.525C80.3013 103.224 80.6849 103.088 81.0493 103.179L83.2519 103.73C83.6676 103.834 83.9591 104.207 83.9591 104.636V105.319C83.9591 106.144 83.2903 106.813 82.4653 106.813H81.3448C77.0133 106.813 73.502 103.301 73.502 98.9698V97.8494Z" fill="#FDFDFC"/>
<path d="M66.0526 138.486V130.06H67.3131V138.486H66.0526ZM68.9967 138.486V132.26H70.2105V132.989C70.6015 132.452 71.1617 132.091 72.0487 132.091C73.5134 132.091 74.2604 133.059 74.2604 134.711V138.486H73.0466V134.968C73.0466 133.76 72.5797 133.112 71.6286 133.112C70.6715 133.112 70.2105 133.76 70.2105 134.968V138.486H68.9967ZM77.788 138.486C76.3992 138.486 76.0549 138.125 76.0549 136.771V133.293H75.1154V132.26H76.0549V130.305H77.2687V132.26H78.5641V133.293H77.2687V136.677C77.2687 137.261 77.3562 137.453 78.0039 137.453H78.5233V138.486H77.788ZM81.73 137.71C82.6754 137.71 83.3464 137.243 83.3464 136.31V135.218C82.8971 135.382 82.5411 135.475 82.156 135.58C80.9014 135.895 80.5104 136.094 80.5104 136.724C80.5104 137.378 80.9539 137.71 81.73 137.71ZM81.4674 138.656C80.1894 138.656 79.2266 137.973 79.2266 136.771C79.2266 135.446 80.2245 134.968 82.1968 134.682C83.2297 134.524 83.3464 134.413 83.3464 133.94V133.923C83.3464 133.304 82.8738 133.03 82.1035 133.03C81.2982 133.03 80.7438 133.345 80.7205 134.156H79.5067C79.5067 132.721 80.703 132.091 82.1093 132.091C83.6382 132.091 84.5544 132.581 84.5485 134.116L84.5369 136.566C84.531 137.383 84.6186 137.564 85.0096 137.564C85.0737 137.564 85.1496 137.558 85.2371 137.553V138.48C85.0387 138.527 84.817 138.556 84.5952 138.556C84.0759 138.556 83.5799 138.387 83.5157 137.827C83.0955 138.323 82.4711 138.656 81.4674 138.656ZM86.4131 138.486V130.06H87.6269V134.874L90.4921 132.26H91.9743L88.7181 135.16L92.1727 138.486H90.4688L87.6269 135.732V138.486H86.4131ZM95.1402 138.656C93.1561 138.656 92.0707 137.302 92.0707 135.341C92.0707 133.322 93.3195 132.091 95.111 132.091C97.0892 132.091 98.1571 133.567 98.0871 135.72H93.3545C93.4421 136.893 94.1073 137.658 95.1752 137.658C96.0739 137.658 96.5524 137.296 96.7683 136.689H97.9996C97.702 137.833 96.7449 138.656 95.1402 138.656ZM95.1052 133.053C94.1598 133.053 93.5063 133.596 93.372 134.74H96.8091C96.7566 133.725 96.1206 133.053 95.1052 133.053ZM105.51 138.656C102.802 138.656 101.303 136.882 101.303 134.273C101.303 131.665 102.802 129.891 105.51 129.891C107.547 129.891 108.947 130.964 109.356 132.808H108.043C107.71 131.56 106.683 130.988 105.504 130.988C103.567 130.988 102.645 132.266 102.645 134.273C102.645 136.275 103.567 137.558 105.504 137.558C106.683 137.558 107.71 136.987 108.043 135.738H109.356C108.947 137.582 107.547 138.656 105.51 138.656ZM112.551 137.71C113.496 137.71 114.167 137.243 114.167 136.31V135.218C113.718 135.382 113.362 135.475 112.977 135.58C111.722 135.895 111.331 136.094 111.331 136.724C111.331 137.378 111.775 137.71 112.551 137.71ZM112.288 138.656C111.01 138.656 110.047 137.973 110.047 136.771C110.047 135.446 111.045 134.968 113.018 134.682C114.05 134.524 114.167 134.413 114.167 133.94V133.923C114.167 133.304 113.694 133.03 112.924 133.03C112.119 133.03 111.565 133.345 111.541 134.156H110.327C110.327 132.721 111.524 132.091 112.93 132.091C114.459 132.091 115.375 132.581 115.369 134.116L115.358 136.566C115.352 137.383 115.439 137.564 115.83 137.564C115.894 137.564 115.97 137.558 116.058 137.553V138.48C115.859 138.527 115.638 138.556 115.416 138.556C114.897 138.556 114.401 138.387 114.336 137.827C113.916 138.323 113.292 138.656 112.288 138.656ZM117.234 138.486V130.06H118.448V138.486H117.234ZM120.09 138.486V130.06H121.304V138.486H120.09ZM126.23 138.486L124.391 132.26H125.64L127.029 137.22H127.035L128.453 132.26H129.778L131.26 137.22H131.266L132.672 132.26H133.839L131.995 138.486H130.6L129.083 133.532H129.077L127.636 138.486H126.23ZM134.787 138.486V132.26H136.001V138.486H134.787ZM134.787 131.449V130.06H136.001V131.449H134.787ZM139.657 138.486C138.268 138.486 137.924 138.125 137.924 136.771V133.293H136.985V132.26H137.924V130.305H139.138V132.26H140.433V133.293H139.138V136.677C139.138 137.261 139.225 137.453 139.873 137.453H140.393V138.486H139.657ZM141.633 138.486V130.06H142.846V132.989C143.237 132.452 143.798 132.091 144.685 132.091C146.149 132.091 146.896 133.059 146.896 134.711V138.486H145.683V134.968C145.683 133.76 145.216 133.112 144.264 133.112C143.307 133.112 142.846 133.76 142.846 134.968V138.486H141.633ZM154.173 138.656C152.137 138.656 150.83 137.716 150.83 135.23V130.06H152.09V135.218C152.09 136.946 152.907 137.553 154.173 137.553C155.446 137.553 156.268 136.946 156.268 135.218V130.06H157.529V135.23C157.529 137.716 156.216 138.656 154.173 138.656ZM162.241 138.656C160.099 138.656 158.967 137.523 158.763 135.96H160.07C160.269 137.039 160.957 137.617 162.282 137.617C163.373 137.617 164.202 137.273 164.202 136.333C164.202 135.394 163.455 135.154 162.463 134.909L161.302 134.623C159.878 134.273 158.961 133.579 158.961 132.155C158.961 130.783 160.245 129.891 162.025 129.891C163.84 129.891 164.966 130.754 165.17 132.307H163.869C163.636 131.274 162.976 130.929 161.961 130.929C160.998 130.929 160.251 131.303 160.251 132.114C160.251 132.855 160.73 133.217 161.611 133.439L162.784 133.73C164.435 134.139 165.491 134.652 165.491 136.187C165.491 137.815 164.126 138.656 162.241 138.656ZM166.802 138.486V130.06H169.527C172.24 130.06 173.968 131.338 173.968 134.285C173.968 137.208 172.24 138.486 169.527 138.486H166.802ZM168.062 137.401H169.503C171.552 137.401 172.625 136.543 172.625 134.291C172.625 132.026 171.552 131.151 169.503 131.151H168.062V137.401ZM174.653 138.486V136.998H175.949V138.486H174.653ZM176.664 138.486L180.031 130.06H181.466L184.833 138.486H183.468L182.558 136.175H178.811L177.918 138.486H176.664ZM179.243 135.078H182.132L180.684 131.39H180.673L179.243 135.078ZM185.794 138.486V130.06H187.054V138.486H185.794ZM192.831 138.486V131.163H189.978V130.06H196.945V131.163H194.092V138.486H192.831ZM199.119 138.656C197.135 138.656 196.05 137.302 196.05 135.341C196.05 133.322 197.299 132.091 199.09 132.091C201.068 132.091 202.136 133.567 202.066 135.72H197.334C197.421 136.893 198.086 137.658 199.154 137.658C200.053 137.658 200.531 137.296 200.747 136.689H201.979C201.681 137.833 200.724 138.656 199.119 138.656ZM199.084 133.053C198.139 133.053 197.485 133.596 197.351 134.74H200.788C200.736 133.725 200.1 133.053 199.084 133.053ZM205.343 137.71C206.288 137.71 206.959 137.243 206.959 136.31V135.218C206.51 135.382 206.154 135.475 205.769 135.58C204.514 135.895 204.123 136.094 204.123 136.724C204.123 137.378 204.567 137.71 205.343 137.71ZM205.08 138.656C203.802 138.656 202.839 137.973 202.839 136.771C202.839 135.446 203.837 134.968 205.81 134.682C206.843 134.524 206.959 134.413 206.959 133.94V133.923C206.959 133.304 206.487 133.03 205.716 133.03C204.911 133.03 204.357 133.345 204.333 134.156H203.12C203.12 132.721 204.316 132.091 205.722 132.091C207.251 132.091 208.167 132.581 208.161 134.116L208.15 136.566C208.144 137.383 208.231 137.564 208.622 137.564C208.687 137.564 208.762 137.558 208.85 137.553V138.48C208.652 138.527 208.43 138.556 208.208 138.556C207.689 138.556 207.193 138.387 207.129 137.827C206.708 138.323 206.084 138.656 205.08 138.656ZM210.026 138.486V132.26H211.24V132.989C211.631 132.452 212.191 132.091 213.078 132.091C214.017 132.091 214.665 132.493 214.998 133.211C215.546 132.417 216.252 132.091 217.128 132.091C218.604 132.091 219.339 133.059 219.339 134.711V138.486H218.126V134.968C218.126 133.76 217.665 133.112 216.702 133.112C215.745 133.112 215.29 133.76 215.29 134.968V138.486H214.076V134.968C214.076 133.76 213.609 133.112 212.658 133.112C211.701 133.112 211.24 133.76 211.24 134.968V138.486H210.026Z" fill="#2F2823"/>
<path d="M274.642 93.9014L278.91 98.1696L274.642 102.438" stroke="#655343" stroke-width="1.28047" stroke-linecap="round" stroke-linejoin="round"/>
<rect width="245.851" height="102.438" transform="translate(307.508 75.9746)" fill="white"/>
<rect width="27.3167" height="27.3167" transform="translate(321.166 87.9258)" fill="#655343"/>
<path d="M339.093 102.864V101.37C339.093 100.31 338.233 99.4497 337.172 99.4497H336.319C335.965 99.4497 335.679 99.1631 335.679 98.8095V97.9559C335.679 96.8951 334.819 96.0352 333.758 96.0352H332.691M332.691 103.291H336.959M332.691 104.998H334.825M333.971 96.0352H331.197C330.843 96.0352 330.557 96.3218 330.557 96.6754V106.492C330.557 106.846 330.843 107.133 331.197 107.133H338.453C338.806 107.133 339.093 106.846 339.093 106.492V101.157C339.093 98.3283 336.8 96.0352 333.971 96.0352Z" stroke="#FDFDFC" stroke-width="1.28047" stroke-linecap="round" stroke-linejoin="round"/>
<path d="M325.42 138.656C323.384 138.656 322.076 137.716 322.076 135.23V130.06H323.337V135.218C323.337 136.946 324.154 137.553 325.42 137.553C326.692 137.553 327.515 136.946 327.515 135.218V130.06H328.775V135.23C328.775 137.716 327.463 138.656 325.42 138.656ZM332.607 138.656C330.99 138.656 329.992 137.938 329.87 136.572H331.084C331.189 137.424 331.766 137.728 332.642 137.728C333.394 137.728 333.937 137.442 333.937 136.882C333.937 136.275 333.412 136.111 332.7 135.942L331.784 135.72C330.78 135.475 330.027 134.938 330.027 133.894C330.027 132.82 331.089 132.091 332.455 132.091C333.832 132.091 334.789 132.622 334.947 133.946H333.727C333.61 133.211 333.103 133.013 332.402 133.013C331.731 133.013 331.235 133.316 331.235 133.83C331.235 134.302 331.58 134.518 332.163 134.658L333.079 134.88C334.235 135.16 335.133 135.563 335.133 136.724C335.133 137.955 334.054 138.656 332.607 138.656ZM338.941 138.656C336.957 138.656 335.872 137.302 335.872 135.341C335.872 133.322 337.12 132.091 338.912 132.091C340.89 132.091 341.958 133.567 341.888 135.72H337.155C337.243 136.893 337.908 137.658 338.976 137.658C339.875 137.658 340.353 137.296 340.569 136.689H341.801C341.503 137.833 340.546 138.656 338.941 138.656ZM338.906 133.053C337.961 133.053 337.307 133.596 337.173 134.74H340.61C340.558 133.725 339.922 133.053 338.906 133.053ZM343.105 138.486V132.26H344.319V133.357C344.663 132.651 345.328 132.196 346.279 132.196H346.384V133.386H346.075C344.961 133.386 344.319 133.9 344.319 135.195V138.486H343.105ZM348.561 138.486L351.928 130.06H353.364L356.731 138.486H355.365L354.455 136.175H350.709L349.816 138.486H348.561ZM351.141 135.078H354.029L352.582 131.39H352.57L351.141 135.078ZM360.725 138.656C359.856 138.656 359.162 138.247 358.806 137.687V140.43H357.592V132.26H358.806V133.059C359.162 132.499 359.856 132.091 360.725 132.091C362.289 132.091 363.532 133.234 363.532 135.37C363.532 137.506 362.289 138.656 360.725 138.656ZM360.504 137.652C361.525 137.652 362.249 136.928 362.249 135.37C362.249 133.818 361.525 133.094 360.504 133.094C359.494 133.094 358.765 133.824 358.765 135.37C358.765 136.917 359.494 137.652 360.504 137.652ZM367.9 138.656C367.031 138.656 366.336 138.247 365.98 137.687V140.43H364.767V132.26H365.98V133.059C366.336 132.499 367.031 132.091 367.9 132.091C369.464 132.091 370.707 133.234 370.707 135.37C370.707 137.506 369.464 138.656 367.9 138.656ZM367.679 137.652C368.7 137.652 369.423 136.928 369.423 135.37C369.423 133.818 368.7 133.094 367.679 133.094C366.669 133.094 365.94 133.824 365.94 135.37C365.94 136.917 366.669 137.652 367.679 137.652ZM371.942 138.486V130.06H373.155V138.486H371.942ZM374.798 138.486V132.26H376.012V138.486H374.798ZM374.798 131.449V130.06H376.012V131.449H374.798ZM380.24 138.656C378.367 138.656 377.24 137.354 377.24 135.364C377.24 133.38 378.39 132.091 380.263 132.091C381.885 132.091 382.883 132.978 383.088 134.314H381.856C381.67 133.514 381.086 133.094 380.251 133.094C379.219 133.094 378.524 133.882 378.524 135.364C378.524 136.852 379.219 137.652 380.251 137.652C381.086 137.652 381.67 137.22 381.856 136.421H383.088C382.883 137.763 381.856 138.656 380.24 138.656ZM386.294 137.71C387.24 137.71 387.911 137.243 387.911 136.31V135.218C387.461 135.382 387.105 135.475 386.72 135.58C385.466 135.895 385.075 136.094 385.075 136.724C385.075 137.378 385.518 137.71 386.294 137.71ZM386.032 138.656C384.754 138.656 383.791 137.973 383.791 136.771C383.791 135.446 384.789 134.968 386.761 134.682C387.794 134.524 387.911 134.413 387.911 133.94V133.923C387.911 133.304 387.438 133.03 386.668 133.03C385.862 133.03 385.308 133.345 385.285 134.156H384.071C384.071 132.721 385.267 132.091 386.674 132.091C388.202 132.091 389.119 132.581 389.113 134.116L389.101 136.566C389.095 137.383 389.183 137.564 389.574 137.564C389.638 137.564 389.714 137.558 389.801 137.553V138.48C389.603 138.527 389.381 138.556 389.159 138.556C388.64 138.556 388.144 138.387 388.08 137.827C387.66 138.323 387.035 138.656 386.032 138.656ZM392.944 138.486C391.555 138.486 391.211 138.125 391.211 136.771V133.293H390.271V132.26H391.211V130.305H392.425V132.26H393.72V133.293H392.425V136.677C392.425 137.261 392.512 137.453 393.16 137.453H393.679V138.486H392.944ZM394.919 138.486V132.26H396.133V138.486H394.919ZM394.919 131.449V130.06H396.133V131.449H394.919ZM400.414 138.656C398.482 138.656 397.356 137.325 397.356 135.364C397.356 133.409 398.482 132.091 400.414 132.091C402.351 132.091 403.471 133.409 403.471 135.364C403.471 137.325 402.351 138.656 400.414 138.656ZM400.414 137.652C401.61 137.652 402.188 136.759 402.188 135.364C402.188 133.975 401.61 133.094 400.414 133.094C399.223 133.094 398.64 133.975 398.64 135.364C398.64 136.759 399.223 137.652 400.414 137.652ZM404.706 138.486V132.26H405.919V132.989C406.31 132.452 406.871 132.091 407.758 132.091C409.222 132.091 409.969 133.059 409.969 134.711V138.486H408.755V134.968C408.755 133.76 408.289 133.112 407.337 133.112C406.38 133.112 405.919 133.76 405.919 134.968V138.486H404.706Z" fill="#2F2823"/>
<path d="M533.298 98.1689L537.566 102.437L533.298 106.705" stroke="#655343" stroke-width="1.28047" stroke-linecap="round" stroke-linejoin="round"/>
<rect width="245.851" height="102.438" transform="translate(563.604 75.9746)" fill="white"/>
</g>
</g>
<path d="M35.1428 37.4873H31.0794L32.7184 36.4459L36.7647 26.5435L35.8769 25.1606L39.0013 24.5972L44.0207 36.48L45.2841 37.4873H39.2232L40.9818 36.4971L39.5135 33.0142H34.5965L33.2136 36.4459L35.1428 37.4873ZM36.9184 27.1923L34.7501 32.6386H39.3598L37.0891 27.1923H36.9184ZM49.3414 37.6922C46.8487 37.6922 45.1244 35.9678 45.1244 33.2703C45.1244 30.4191 47.0024 28.4386 49.5463 28.4386C51.4414 28.4386 52.8755 29.3947 52.8755 30.5215C52.8755 31.1191 52.4657 31.563 51.9194 31.563C50.195 31.563 51.0145 28.7289 49.5463 28.7289C48.4365 28.7289 47.6853 30.1971 47.6853 32.1264C47.6853 34.3459 48.8121 35.8654 50.5706 35.8654C51.9365 35.8654 52.8243 35.0971 53.2852 33.5434C52.9608 36.1044 51.4584 37.6922 49.3414 37.6922ZM57.4304 37.6922C55.8084 37.6922 54.7841 36.7702 54.8523 35.2678L55.0914 30.163L53.5377 29.4801L54.8523 28.3703V27.1923L57.4645 26.0826V28.8825H60.1791V29.6679H57.4645V35.1483C57.4645 35.9507 58.0621 36.4629 58.9669 36.4629C59.6328 36.4629 60.3669 36.0873 60.845 35.5068C60.162 36.7361 58.7621 37.6922 57.4304 37.6922ZM64.3984 27.1582H61.6326V24.4948H64.3984V27.1582ZM60.8643 37.4873L61.7862 36.7019V30.4703L60.6936 29.9581L64.3643 28.4386V36.7019L65.3033 37.4873H60.8643ZM70.6954 37.6922C68.0662 37.6922 65.932 35.5751 65.932 32.9971C65.932 30.4874 68.0662 28.4386 70.6954 28.4386C73.3246 28.4386 75.4246 30.4874 75.4246 32.9971C75.4246 35.5751 73.3246 37.6922 70.6954 37.6922ZM70.6954 37.4019C72.01 37.4019 72.7271 35.9507 72.7271 33.0142C72.7271 30.2142 72.0271 28.7118 70.6954 28.7118C69.3637 28.7118 68.6296 30.1459 68.6296 33.0142C68.6296 35.8824 69.3296 37.4019 70.6954 37.4019ZM76.1533 37.4873L77.0752 36.7019V30.5215L75.9825 29.9581L79.6532 28.4386V30.0264C80.8654 29.2069 82.18 28.4386 82.88 28.4386C84.2971 28.4386 85.3044 29.4801 85.3044 31.0167V36.7019L86.2263 37.4873H81.7191L82.7264 36.7019V31.1362C82.7264 30.2825 82.18 29.6337 81.48 29.6337C80.9508 29.6337 80.2679 29.9411 79.6532 30.2996V36.7019L80.6605 37.4873H76.1533ZM90.287 37.4873L91.4651 36.48V25.7923L90.287 24.785H95.3235L94.1626 25.7923V36.48L95.3235 37.4873H90.287ZM99.6459 37.6922C98.024 37.6922 96.9996 36.7702 97.0679 35.2678L97.3069 30.163L95.7533 29.4801L97.0679 28.3703V27.1923L99.6801 26.0826V28.8825H102.395V29.6679H99.6801V35.1483C99.6801 35.9507 100.278 36.4629 101.183 36.4629C101.848 36.4629 102.582 36.0873 103.061 35.5068C102.378 36.7361 100.978 37.6922 99.6459 37.6922ZM107.113 37.6922C104.62 37.6922 102.896 35.9337 102.896 33.3044C102.896 30.4532 104.688 28.4386 107.215 28.4386C109.315 28.4386 110.766 29.7874 110.766 31.7508V31.9044H105.474C105.457 32.024 105.457 32.1435 105.457 32.263C105.457 34.363 106.583 35.8995 108.342 35.8995C109.708 35.8995 110.596 35.0971 111.057 33.5434C110.732 36.1044 109.23 37.6922 107.113 37.6922ZM105.491 31.6142H107.881C108.342 31.6142 108.496 31.2898 108.496 30.8459C108.496 29.6679 107.966 28.7289 107.215 28.7289C106.31 28.7289 105.627 29.8557 105.491 31.6142ZM111.683 37.4873L112.605 36.7019V30.5215L111.512 29.9581L115.183 28.4386V29.8557C116.344 29.0874 117.522 28.4386 118.171 28.4386C119.212 28.4386 120.066 29.0362 120.424 29.9752C121.602 29.1557 122.883 28.4386 123.566 28.4386C124.966 28.4386 125.99 29.4801 125.99 31.0167V36.7019L126.929 37.4873H122.405L123.429 36.7019V31.1191C123.429 30.2825 122.883 29.6337 122.166 29.6337C121.671 29.6337 121.073 29.8728 120.493 30.1971C120.561 30.4532 120.595 30.7264 120.595 31.0167V36.7019L121.551 37.4873H117.01L118.017 36.7019V31.1191C118.017 30.2825 117.471 29.6337 116.788 29.6337C116.31 29.6337 115.746 29.8557 115.183 30.1459V36.7019L116.19 37.4873H111.683ZM131.073 37.6922C130.117 37.6922 128.887 37.5385 127.948 37.2824V36.958L127.521 33.9361C128.068 35.3873 129.587 37.3678 131.431 37.3678C132.353 37.3678 133.002 36.8044 133.002 35.9678C133.002 33.8166 127.795 34.7215 127.795 31.4435C127.795 29.7191 129.263 28.4386 131.397 28.4386C132.387 28.4386 133.343 28.6435 134.026 28.9167V29.2411L134.368 31.7337C133.429 29.9752 132.285 28.763 130.919 28.763C130.014 28.763 129.365 29.2923 129.365 30.0435C129.365 32.1264 134.607 31.1874 134.607 34.6873C134.607 36.4459 133.241 37.6922 131.073 37.6922Z" fill="#1D1A19"/>
<rect width="27.3167" height="20.4876" transform="translate(144.463 21.2432)" fill="#655343"/>
<path d="M154.312 35.4873V29.2725H152.48V28.1696H152.801C153.927 28.1696 154.318 28.0179 154.61 27.0609H155.578V35.4873H154.312ZM160.267 35.6565C158.347 35.6565 157.11 34.7053 157.11 33.1181C157.11 31.9918 157.845 31.3383 158.552 31.0407V31.029C157.904 30.7314 157.384 30.0545 157.384 29.1033C157.384 27.7845 158.528 26.8916 160.267 26.8916C162.006 26.8916 163.156 27.7845 163.156 29.1033C163.156 30.0545 162.631 30.7314 161.983 31.029V31.0407C162.689 31.3383 163.424 31.9918 163.424 33.1181C163.424 34.7053 162.187 35.6565 160.267 35.6565ZM160.267 30.568C161.201 30.568 161.843 30.0836 161.843 29.2317C161.843 28.4439 161.201 27.9537 160.267 27.9537C159.333 27.9537 158.686 28.4439 158.686 29.2317C158.686 30.0836 159.333 30.568 160.267 30.568ZM160.267 34.5945C161.382 34.5945 162.105 34.0868 162.105 33.0948C162.105 32.1611 161.382 31.6067 160.267 31.6067C159.147 31.6067 158.429 32.1611 158.429 33.0948C158.429 34.0868 159.147 34.5945 160.267 34.5945Z" fill="#FDFDFC"/>
<path d="M35.1428 251.753H31.0794L32.7184 250.711L36.7647 240.809L35.8769 239.426L39.0013 238.863L44.0207 250.746L45.2841 251.753H39.2232L40.9818 250.763L39.5135 247.28H34.5965L33.2136 250.711L35.1428 251.753ZM36.9184 241.458L34.7501 246.904H39.3598L37.0891 241.458H36.9184ZM46.4274 255.133V244.787L45.3347 244.224L48.9883 242.704V244.207C49.6826 243.74 50.2688 243.376 50.7468 243.114C51.2363 242.841 51.6574 242.704 52.0102 242.704C52.7273 242.704 53.3647 242.886 53.9224 243.251C54.4801 243.603 54.9126 244.104 55.2199 244.753C55.5386 245.402 55.698 246.147 55.698 246.99C55.698 247.968 55.5045 248.833 55.1175 249.585C54.7305 250.336 54.1728 250.922 53.4444 251.343C52.7273 251.753 51.885 251.958 50.9176 251.958C50.2119 251.958 49.5688 251.821 48.9883 251.548V255.133L49.9785 255.919H45.4884L46.4274 255.133ZM50.9517 251.668C51.3501 251.668 51.7029 251.503 52.0102 251.172C52.3175 250.842 52.5566 250.387 52.7273 249.807C52.898 249.215 52.9834 248.543 52.9834 247.792C52.9834 247.041 52.8753 246.369 52.659 245.777C52.4427 245.186 52.1525 244.725 51.7883 244.394C51.4241 244.064 51.02 243.899 50.5761 243.899C50.2119 243.899 49.6826 244.093 48.9883 244.48V249.09C49.0338 249.886 49.2387 250.518 49.6029 250.985C49.9672 251.44 50.4168 251.668 50.9517 251.668ZM57.298 255.133V244.787L56.2054 244.224L59.859 242.704V244.207C60.5533 243.74 61.1395 243.376 61.6175 243.114C62.1069 242.841 62.5281 242.704 62.8809 242.704C63.598 242.704 64.2354 242.886 64.7931 243.251C65.3508 243.603 65.7833 244.104 66.0906 244.753C66.4093 245.402 66.5687 246.147 66.5687 246.99C66.5687 247.968 66.3752 248.833 65.9882 249.585C65.6012 250.336 65.0435 250.922 64.315 251.343C63.598 251.753 62.7557 251.958 61.7882 251.958C61.0826 251.958 60.4395 251.821 59.859 251.548V255.133L60.8492 255.919H56.359L57.298 255.133ZM61.8224 251.668C62.2207 251.668 62.5736 251.503 62.8809 251.172C63.1882 250.842 63.4272 250.387 63.598 249.807C63.7687 249.215 63.8541 248.543 63.8541 247.792C63.8541 247.041 63.7459 246.369 63.5297 245.777C63.3134 245.186 63.0232 244.725 62.659 244.394C62.2947 244.064 61.8907 243.899 61.4468 243.899C61.0826 243.899 60.5533 244.093 59.859 244.48V249.09C59.9045 249.886 60.1094 250.518 60.4736 250.985C60.8378 251.44 61.2874 251.668 61.8224 251.668ZM67.1984 251.753L68.1203 250.968V239.597L67.0447 239.034L70.6983 237.514V250.968L71.6373 251.753H67.1984ZM75.8026 241.424H73.0368V238.76H75.8026V241.424ZM72.2685 251.753L73.1904 250.968V244.736L72.0978 244.224L75.7685 242.704V250.968L76.7075 251.753H72.2685ZM81.5533 251.958C80.7224 251.958 79.9882 251.776 79.3508 251.411C78.7135 251.047 78.2183 250.535 77.8655 249.875C77.5127 249.203 77.3362 248.424 77.3362 247.536C77.3362 246.603 77.524 245.772 77.8996 245.043C78.2866 244.303 78.8159 243.729 79.4874 243.319C80.159 242.909 80.9159 242.704 81.7581 242.704C82.3728 242.704 82.9362 242.801 83.4484 242.994C83.9605 243.177 84.3589 243.427 84.6435 243.746C84.9394 244.064 85.0874 244.412 85.0874 244.787C85.0874 245.083 84.9963 245.333 84.8142 245.538C84.6321 245.732 84.4044 245.829 84.1313 245.829C83.7329 245.829 83.4484 245.703 83.2776 245.453C83.1069 245.191 82.9589 244.816 82.8337 244.326C82.7085 243.882 82.5719 243.552 82.424 243.336C82.2874 243.108 82.0654 242.994 81.7581 242.994C81.3939 242.994 81.0695 243.142 80.785 243.438C80.5004 243.734 80.2785 244.144 80.1191 244.668C79.9712 245.18 79.8972 245.755 79.8972 246.392C79.8972 247.507 80.159 248.412 80.6825 249.107C81.2061 249.79 81.9061 250.131 82.7825 250.131C84.137 250.131 85.0418 249.357 85.4971 247.809C85.3378 249.095 84.9053 250.108 84.1996 250.848C83.4939 251.588 82.6118 251.958 81.5533 251.958ZM88.3566 251.958C87.7647 251.958 87.2753 251.787 86.8883 251.446C86.5013 251.104 86.3078 250.666 86.3078 250.131C86.3078 249.676 86.5184 249.255 86.9395 248.868C87.3606 248.469 87.8671 248.116 88.459 247.809C89.0509 247.49 89.8192 247.126 90.7639 246.716L91.7199 246.29V245.453C91.7199 244.838 91.5606 244.338 91.2419 243.951C90.9346 243.552 90.5362 243.353 90.0468 243.353C89.694 243.353 89.3753 243.455 89.0907 243.66C88.92 243.786 88.7948 243.962 88.7151 244.19C88.6354 244.417 88.5614 244.736 88.4932 245.146C88.4021 245.703 88.2769 246.13 88.1175 246.426C87.9696 246.711 87.6964 246.853 87.298 246.853C86.9907 246.853 86.7403 246.756 86.5468 246.563C86.3647 246.358 86.2737 246.096 86.2737 245.777C86.2737 245.265 86.5924 244.776 87.2298 244.309C87.8671 243.831 88.6013 243.444 89.4322 243.148C90.2744 242.852 90.9289 242.704 91.3956 242.704C92.2492 242.704 92.9435 242.955 93.4785 243.455C94.0134 243.945 94.2809 244.588 94.2809 245.385V250.182L95.3394 250.626L91.7199 251.958V250.097C91.1964 250.666 90.6443 251.121 90.0639 251.463C89.4834 251.793 88.9143 251.958 88.3566 251.958ZM90.098 250.677C90.3826 250.677 90.6557 250.592 90.9175 250.421C91.1793 250.251 91.4468 250.011 91.7199 249.704V246.597C90.7866 247.007 90.0696 247.422 89.5688 247.843C89.0793 248.253 88.8346 248.742 88.8346 249.311C88.8346 249.71 88.9484 250.04 89.1761 250.302C89.4151 250.552 89.7224 250.677 90.098 250.677ZM99.2458 251.958C98.4263 251.958 97.7832 251.742 97.3165 251.309C96.8499 250.877 96.6336 250.285 96.6678 249.533L96.9068 244.429L95.3532 243.746L96.6678 242.636V241.458L99.2799 240.348V243.148H101.995V243.934H99.2799V249.414C99.2799 249.812 99.4165 250.131 99.6897 250.37C99.9629 250.609 100.327 250.729 100.782 250.729C101.112 250.729 101.448 250.643 101.79 250.472C102.131 250.302 102.421 250.068 102.66 249.772C102.308 250.398 101.812 250.922 101.175 251.343C100.549 251.753 99.9059 251.958 99.2458 251.958ZM106.214 241.424H103.448V238.76H106.214V241.424ZM102.68 251.753L103.602 250.968V244.736L102.509 244.224L106.18 242.704V250.968L107.119 251.753H102.68ZM112.511 251.958C111.646 251.958 110.849 251.747 110.121 251.326C109.392 250.905 108.812 250.336 108.379 249.619C107.958 248.89 107.747 248.105 107.747 247.263C107.747 246.443 107.958 245.686 108.379 244.992C108.812 244.286 109.392 243.729 110.121 243.319C110.849 242.909 111.646 242.704 112.511 242.704C113.376 242.704 114.167 242.909 114.884 243.319C115.612 243.729 116.187 244.286 116.608 244.992C117.029 245.686 117.24 246.443 117.24 247.263C117.24 248.105 117.029 248.89 116.608 249.619C116.187 250.336 115.612 250.905 114.884 251.326C114.167 251.747 113.376 251.958 112.511 251.958ZM112.511 251.668C113.171 251.668 113.672 251.303 114.013 250.575C114.366 249.835 114.542 248.737 114.542 247.28C114.542 245.88 114.366 244.816 114.013 244.087C113.672 243.347 113.171 242.977 112.511 242.977C111.839 242.977 111.327 243.342 110.974 244.07C110.621 244.787 110.445 245.857 110.445 247.28C110.445 248.714 110.616 249.807 110.957 250.558C111.31 251.298 111.828 251.668 112.511 251.668ZM118.891 250.968V244.787L117.798 244.224L121.469 242.704V244.292C123.039 243.234 124.115 242.704 124.695 242.704C125.413 242.704 125.993 242.943 126.437 243.421C126.892 243.899 127.12 244.52 127.12 245.282V250.968L128.042 251.753H123.534L124.542 250.968V245.402C124.542 244.981 124.422 244.628 124.183 244.343C123.944 244.047 123.648 243.899 123.295 243.899C122.84 243.899 122.231 244.121 121.469 244.565V250.968L122.476 251.753H117.969L118.891 250.968ZM133.28 250.746V240.143L132.102 239.051H137.856C138.903 239.051 139.842 239.204 140.673 239.512C141.504 239.819 142.153 240.246 142.619 240.792C143.086 241.327 143.319 241.936 143.319 242.619C143.319 243.325 143.086 243.962 142.619 244.531C142.153 245.1 141.504 245.544 140.673 245.863C139.842 246.181 138.903 246.341 137.856 246.341H135.978V250.746L137.344 251.753H132.102L133.28 250.746ZM137.583 245.982C138.152 245.982 138.658 245.84 139.102 245.555C139.558 245.271 139.91 244.873 140.161 244.36C140.411 243.848 140.536 243.268 140.536 242.619C140.536 241.993 140.411 241.441 140.161 240.963C139.91 240.473 139.558 240.092 139.102 239.819C138.658 239.546 138.152 239.409 137.583 239.409H135.978V245.982H137.583ZM145.167 250.968V244.736L144.074 244.224L147.745 242.704V244.446C148.109 243.934 148.513 243.518 148.957 243.199C149.412 242.869 149.879 242.704 150.357 242.704C150.801 242.704 151.165 242.835 151.45 243.097C151.734 243.359 151.877 243.7 151.877 244.121C151.877 244.508 151.774 244.821 151.569 245.06C151.364 245.288 151.097 245.402 150.767 245.402C150.46 245.402 150.215 245.328 150.033 245.18C149.862 245.02 149.691 244.799 149.521 244.514C149.373 244.309 149.259 244.167 149.179 244.087C149.111 244.007 149.014 243.968 148.889 243.968C148.547 243.968 148.166 244.275 147.745 244.89V250.968L148.855 251.753H144.245L145.167 250.968ZM156.961 251.958C156.096 251.958 155.299 251.747 154.57 251.326C153.842 250.905 153.261 250.336 152.829 249.619C152.408 248.89 152.197 248.105 152.197 247.263C152.197 246.443 152.408 245.686 152.829 244.992C153.261 244.286 153.842 243.729 154.57 243.319C155.299 242.909 156.096 242.704 156.961 242.704C157.826 242.704 158.617 242.909 159.334 243.319C160.062 243.729 160.637 244.286 161.058 244.992C161.479 245.686 161.69 246.443 161.69 247.263C161.69 248.105 161.479 248.89 161.058 249.619C160.637 250.336 160.062 250.905 159.334 251.326C158.617 251.747 157.826 251.958 156.961 251.958ZM156.961 251.668C157.621 251.668 158.122 251.303 158.463 250.575C158.816 249.835 158.992 248.737 158.992 247.28C158.992 245.88 158.816 244.816 158.463 244.087C158.122 243.347 157.621 242.977 156.961 242.977C156.289 242.977 155.777 243.342 155.424 244.07C155.071 244.787 154.895 245.857 154.895 247.28C154.895 248.714 155.065 249.807 155.407 250.558C155.76 251.298 156.278 251.668 156.961 251.668ZM165.591 256.636C164.897 256.636 164.265 256.545 163.696 256.363C163.127 256.181 162.677 255.924 162.347 255.594C162.029 255.276 161.869 254.917 161.869 254.519C161.869 254.12 162.068 253.768 162.467 253.46C162.865 253.164 163.36 252.948 163.952 252.811V252.658C163.542 252.521 163.218 252.316 162.979 252.043C162.751 251.77 162.638 251.451 162.638 251.087C162.638 250.689 162.786 250.296 163.081 249.909C163.389 249.511 163.844 249.084 164.447 248.629C163.992 248.333 163.628 247.957 163.355 247.502C163.093 247.046 162.962 246.557 162.962 246.033C162.962 245.419 163.127 244.861 163.457 244.36C163.799 243.848 164.26 243.444 164.84 243.148C165.42 242.852 166.064 242.704 166.769 242.704C167.042 242.704 167.287 242.727 167.503 242.773C167.731 242.818 167.976 242.881 168.238 242.96C168.283 242.972 168.431 243.012 168.681 243.08C168.943 243.148 169.216 243.182 169.501 243.182H171.567V243.968H169.757C170.007 244.241 170.201 244.56 170.337 244.924C170.485 245.277 170.559 245.646 170.559 246.033C170.559 246.637 170.389 247.189 170.047 247.69C169.717 248.179 169.262 248.572 168.681 248.868C168.112 249.152 167.475 249.294 166.769 249.294C165.984 249.294 165.284 249.118 164.669 248.765C164.248 249.129 164.038 249.482 164.038 249.824C164.038 250.04 164.117 250.211 164.277 250.336C164.447 250.461 164.669 250.524 164.942 250.524H169.381C170.042 250.524 170.571 250.677 170.969 250.985C171.379 251.281 171.584 251.702 171.584 252.248C171.584 252.976 171.277 253.682 170.662 254.365C170.047 255.048 169.273 255.594 168.34 256.004C167.407 256.425 166.49 256.636 165.591 256.636ZM166.769 249.004C167.202 249.004 167.532 248.754 167.759 248.253C167.998 247.741 168.118 247.001 168.118 246.033C168.118 245.055 167.998 244.303 167.759 243.78C167.532 243.256 167.202 242.994 166.769 242.994C166.325 242.994 165.984 243.256 165.745 243.78C165.506 244.292 165.386 245.043 165.386 246.033C165.386 246.99 165.506 247.724 165.745 248.236C165.984 248.748 166.325 249.004 166.769 249.004ZM166.974 255.372C167.657 255.372 168.277 255.287 168.835 255.116C169.404 254.957 169.848 254.735 170.167 254.45C170.485 254.166 170.645 253.864 170.645 253.546C170.645 253.056 170.258 252.811 169.484 252.811H165.13C164.72 252.811 164.402 252.897 164.174 253.068C163.958 253.25 163.85 253.483 163.85 253.768C163.85 254.234 164.14 254.615 164.72 254.911C165.301 255.219 166.052 255.372 166.974 255.372ZM173.077 250.968V244.736L171.985 244.224L175.655 242.704V244.446C176.02 243.934 176.424 243.518 176.867 243.199C177.323 242.869 177.789 242.704 178.267 242.704C178.711 242.704 179.076 242.835 179.36 243.097C179.645 243.359 179.787 243.7 179.787 244.121C179.787 244.508 179.685 244.821 179.48 245.06C179.275 245.288 179.007 245.402 178.677 245.402C178.37 245.402 178.125 245.328 177.943 245.18C177.772 245.02 177.602 244.799 177.431 244.514C177.283 244.309 177.169 244.167 177.089 244.087C177.021 244.007 176.924 243.968 176.799 243.968C176.458 243.968 176.076 244.275 175.655 244.89V250.968L176.765 251.753H172.155L173.077 250.968ZM184.325 251.958C183.505 251.958 182.771 251.776 182.122 251.411C181.485 251.047 180.99 250.535 180.637 249.875C180.284 249.203 180.107 248.435 180.107 247.57C180.107 246.637 180.29 245.8 180.654 245.06C181.029 244.32 181.542 243.746 182.19 243.336C182.851 242.915 183.596 242.704 184.427 242.704C185.121 242.704 185.736 242.847 186.271 243.131C186.806 243.404 187.221 243.791 187.517 244.292C187.824 244.793 187.978 245.368 187.978 246.016V246.17H182.686C182.674 246.25 182.668 246.369 182.668 246.529C182.668 247.223 182.788 247.849 183.027 248.407C183.266 248.953 183.602 249.385 184.034 249.704C184.467 250.011 184.973 250.165 185.554 250.165C186.897 250.165 187.802 249.38 188.268 247.809C188.109 249.095 187.677 250.108 186.971 250.848C186.265 251.588 185.383 251.958 184.325 251.958ZM185.093 245.88C185.503 245.88 185.707 245.624 185.707 245.112C185.707 244.52 185.588 244.019 185.349 243.609C185.11 243.199 184.803 242.994 184.427 242.994C183.972 242.994 183.585 243.256 183.266 243.78C182.959 244.303 182.771 245.003 182.703 245.88H185.093ZM192.562 251.958C192.073 251.958 191.543 251.918 190.974 251.838C190.416 251.77 189.904 251.673 189.438 251.548V251.224L189.011 248.202C189.204 248.725 189.495 249.255 189.881 249.79C190.28 250.313 190.741 250.751 191.264 251.104C191.788 251.457 192.34 251.633 192.92 251.633C193.387 251.633 193.763 251.508 194.047 251.258C194.343 250.996 194.491 250.655 194.491 250.233C194.491 249.938 194.394 249.687 194.201 249.482C194.007 249.277 193.763 249.112 193.467 248.987C193.182 248.851 192.79 248.697 192.289 248.526C191.64 248.31 191.116 248.105 190.718 247.912C190.331 247.718 189.995 247.445 189.711 247.092C189.426 246.728 189.284 246.267 189.284 245.709C189.284 245.14 189.432 244.628 189.728 244.173C190.035 243.717 190.462 243.359 191.008 243.097C191.566 242.835 192.192 242.704 192.886 242.704C193.364 242.704 193.831 242.75 194.286 242.841C194.742 242.921 195.151 243.034 195.516 243.182V243.507L195.857 245.999C194.799 244.019 193.649 243.029 192.408 243.029C191.953 243.029 191.577 243.148 191.281 243.387C190.997 243.626 190.855 243.934 190.855 244.309C190.855 244.719 191.025 245.032 191.367 245.248C191.72 245.464 192.255 245.692 192.972 245.931C193.632 246.147 194.167 246.358 194.577 246.563C194.998 246.768 195.356 247.064 195.652 247.451C195.948 247.838 196.096 248.338 196.096 248.953C196.096 249.533 195.948 250.051 195.652 250.507C195.368 250.962 194.958 251.32 194.423 251.582C193.888 251.833 193.268 251.958 192.562 251.958ZM200.532 251.958C200.042 251.958 199.513 251.918 198.944 251.838C198.386 251.77 197.874 251.673 197.407 251.548V251.224L196.98 248.202C197.174 248.725 197.464 249.255 197.851 249.79C198.249 250.313 198.71 250.751 199.234 251.104C199.758 251.457 200.31 251.633 200.89 251.633C201.357 251.633 201.732 251.508 202.017 251.258C202.313 250.996 202.461 250.655 202.461 250.233C202.461 249.938 202.364 249.687 202.171 249.482C201.977 249.277 201.732 249.112 201.436 248.987C201.152 248.851 200.759 248.697 200.258 248.526C199.61 248.31 199.086 248.105 198.688 247.912C198.301 247.718 197.965 247.445 197.68 247.092C197.396 246.728 197.254 246.267 197.254 245.709C197.254 245.14 197.402 244.628 197.697 244.173C198.005 243.717 198.432 243.359 198.978 243.097C199.536 242.835 200.162 242.704 200.856 242.704C201.334 242.704 201.801 242.75 202.256 242.841C202.711 242.921 203.121 243.034 203.485 243.182V243.507L203.827 245.999C202.768 244.019 201.619 243.029 200.378 243.029C199.923 243.029 199.547 243.148 199.251 243.387C198.967 243.626 198.824 243.934 198.824 244.309C198.824 244.719 198.995 245.032 199.336 245.248C199.689 245.464 200.224 245.692 200.941 245.931C201.601 246.147 202.136 246.358 202.546 246.563C202.967 246.768 203.326 247.064 203.622 247.451C203.918 247.838 204.066 248.338 204.066 248.953C204.066 249.533 203.918 250.051 203.622 250.507C203.337 250.962 202.927 251.32 202.393 251.582C201.858 251.833 201.237 251.958 200.532 251.958Z" fill="#2F2823"/>
<g clip-path="url(#clip4_83576_1257)">
<rect x="30.9258" y="277.436" width="860.477" height="409.751" fill="white"/>
<g clip-path="url(#clip5_83576_1257)">
<mask id="path-14-inside-1_83576_1257" fill="white">
<path d="M30.9258 277.436H891.403V345.727H30.9258V277.436Z"/>
</mask>
<path d="M30.9258 277.436V278.289H891.403V277.436V276.582H30.9258V277.436ZM891.403 345.727V344.874H30.9258V345.727V346.581H891.403V345.727Z" fill="#D6D3D1" mask="url(#path-14-inside-1_83576_1257)"/>
<rect width="23.9022" height="23.9022" transform="translate(58.2422 299.631)" fill="#EBE9E8"/>
<path d="M70.0738 316.582V309.479H67.9797V308.219H68.3465C69.6337 308.219 70.0805 308.046 70.414 306.952H71.521V316.582H70.0738Z" fill="#1D1A19"/>
<path d="M96.9231 316.582V306.952H100.518C102.612 306.952 103.572 308.046 103.572 309.399C103.572 310.44 102.999 311.14 102.305 311.467V311.473C103.299 311.807 104.139 312.447 104.139 313.868C104.139 315.668 102.765 316.582 100.544 316.582H96.9231ZM98.3637 311.02H100.404C101.491 311.02 102.112 310.46 102.112 309.566C102.112 308.699 101.491 308.152 100.404 308.152H98.3637V311.02ZM98.3637 315.382H100.504C101.998 315.382 102.619 314.821 102.619 313.814C102.619 312.801 101.998 312.214 100.504 312.214H98.3637V315.382ZM108.516 316.775C106.308 316.775 105.021 315.255 105.021 313.014C105.021 310.78 106.308 309.273 108.516 309.273C110.73 309.273 112.011 310.78 112.011 313.014C112.011 315.255 110.73 316.775 108.516 316.775ZM108.516 315.628C109.883 315.628 110.543 314.608 110.543 313.014C110.543 311.427 109.883 310.42 108.516 310.42C107.155 310.42 106.489 311.427 106.489 313.014C106.489 314.608 107.155 315.628 108.516 315.628ZM113.353 316.582V309.466H114.74V310.72C115.134 309.913 115.894 309.393 116.981 309.393H117.101V310.753H116.748C115.474 310.753 114.74 311.34 114.74 312.821V316.582H113.353ZM118.097 316.582V309.466H119.484V310.72C119.877 309.913 120.637 309.393 121.725 309.393H121.845V310.753H121.491C120.217 310.753 119.484 311.34 119.484 312.821V316.582H118.097ZM125.628 316.775C123.42 316.775 122.133 315.255 122.133 313.014C122.133 310.78 123.42 309.273 125.628 309.273C127.842 309.273 129.122 310.78 129.122 313.014C129.122 315.255 127.842 316.775 125.628 316.775ZM125.628 315.628C126.995 315.628 127.655 314.608 127.655 313.014C127.655 311.427 126.995 310.42 125.628 310.42C124.267 310.42 123.6 311.427 123.6 313.014C123.6 314.608 124.267 315.628 125.628 315.628ZM131.685 316.582L129.585 309.466H131.012L132.599 315.135H132.606L134.226 309.466H135.74L137.434 315.135H137.441L139.048 309.466H140.382L138.274 316.582H136.68L134.947 310.92H134.94L133.293 316.582H131.685ZM144.332 316.775C142.064 316.775 140.824 315.228 140.824 312.987C140.824 310.68 142.251 309.273 144.298 309.273C146.559 309.273 147.78 310.96 147.7 313.421H142.291C142.391 314.761 143.151 315.635 144.372 315.635C145.399 315.635 145.946 315.222 146.193 314.528H147.6C147.26 315.835 146.166 316.775 144.332 316.775ZM144.292 310.373C143.211 310.373 142.464 310.993 142.311 312.3H146.239C146.179 311.14 145.452 310.373 144.292 310.373ZM149.022 316.582V309.466H150.409V310.72C150.803 309.913 151.563 309.393 152.65 309.393H152.77V310.753H152.417C151.143 310.753 150.409 311.34 150.409 312.821V316.582H149.022ZM156.128 316.582V306.952H157.569V316.582H156.128ZM159.425 316.582V309.466H160.812V310.3C161.259 309.686 161.899 309.273 162.913 309.273C164.587 309.273 165.44 310.38 165.44 312.267V316.582H164.053V312.561C164.053 311.18 163.52 310.44 162.433 310.44C161.339 310.44 160.812 311.18 160.812 312.561V316.582H159.425ZM169.404 316.582C167.816 316.582 167.423 316.169 167.423 314.621V310.647H166.349V309.466H167.423V307.232H168.81V309.466H170.291V310.647H168.81V314.515C168.81 315.182 168.91 315.402 169.651 315.402H170.244V316.582H169.404ZM173.841 315.695C174.921 315.695 175.688 315.162 175.688 314.094V312.847C175.174 313.034 174.768 313.141 174.327 313.261C172.894 313.621 172.447 313.848 172.447 314.568C172.447 315.315 172.954 315.695 173.841 315.695ZM173.54 316.775C172.08 316.775 170.98 315.995 170.98 314.621C170.98 313.107 172.12 312.561 174.374 312.234C175.555 312.054 175.688 311.927 175.688 311.387V311.367C175.688 310.66 175.148 310.346 174.267 310.346C173.347 310.346 172.714 310.707 172.687 311.634H171.3C171.3 309.993 172.667 309.273 174.274 309.273C176.021 309.273 177.068 309.833 177.062 311.587L177.048 314.388C177.042 315.322 177.142 315.528 177.589 315.528C177.662 315.528 177.749 315.522 177.849 315.515V316.575C177.622 316.629 177.369 316.662 177.115 316.662C176.522 316.662 175.955 316.469 175.881 315.828C175.401 316.395 174.688 316.775 173.54 316.775ZM179.124 316.582V306.952H180.512V312.454L183.786 309.466H185.48L181.759 312.781L185.707 316.582H183.759L180.512 313.434V316.582H179.124ZM189.03 316.775C186.762 316.775 185.522 315.228 185.522 312.987C185.522 310.68 186.949 309.273 188.997 309.273C191.257 309.273 192.478 310.96 192.398 313.421H186.989C187.089 314.761 187.849 315.635 189.07 315.635C190.097 315.635 190.644 315.222 190.891 314.528H192.298C191.958 315.835 190.864 316.775 189.03 316.775ZM188.99 310.373C187.91 310.373 187.163 310.993 187.009 312.3H190.937C190.877 311.14 190.15 310.373 188.99 310.373Z" fill="#1D1A19"/>
<rect x="444.092" y="305.606" width="202.315" height="10.2438" fill="#81BB70"/>
<mask id="path-19-inside-2_83576_1257" fill="white">
<path d="M30.9258 345.728H891.403V414.019H30.9258V345.728Z"/>
</mask>
<path d="M891.403 414.019V413.166H30.9258V414.019V414.873H891.403V414.019Z" fill="#D6D3D1" mask="url(#path-19-inside-2_83576_1257)"/>
<rect x="444.092" y="373.897" width="202.315" height="10.2438" fill="#81BB70"/>
<rect width="23.9022" height="23.9022" transform="translate(58.2422 367.923)" fill="#EBE9E8"/>
<path d="M66.6859 384.874V384.727C66.6859 382.667 67.6796 381.78 69.607 380.479L70.3806 379.959C71.3943 379.279 71.9612 378.732 71.9612 377.751C71.9612 376.744 71.3343 376.264 70.2339 376.264C69.1602 376.264 68.3599 376.698 68.3332 378.385H66.8727C66.9127 376.144 68.2532 375.05 70.2539 375.05C72.1213 375.05 73.4818 375.937 73.4818 377.698C73.4818 379.132 72.7482 379.932 71.1276 381.013L70.3873 381.506C69.0601 382.393 68.5399 382.72 68.2999 383.62H73.6218V384.874H66.6859Z" fill="#1D1A19"/>
<path d="M96.9231 384.874V375.244H100.038C103.139 375.244 105.113 376.704 105.113 380.072C105.113 383.413 103.139 384.874 100.038 384.874H96.9231ZM98.3637 383.634H100.011C102.352 383.634 103.579 382.653 103.579 380.079C103.579 377.491 102.352 376.491 100.011 376.491H98.3637V383.634ZM108.956 385.067C107.282 385.067 106.435 383.96 106.435 382.073V377.758H107.822V381.78C107.822 383.16 108.349 383.9 109.436 383.9C110.53 383.9 111.057 383.16 111.057 381.78V377.758H112.444V384.874H111.057V384.04C110.61 384.654 109.97 385.067 108.956 385.067ZM117.288 385.067C115.02 385.067 113.78 383.52 113.78 381.279C113.78 378.972 115.207 377.565 117.254 377.565C119.515 377.565 120.736 379.252 120.656 381.713H115.247C115.347 383.053 116.107 383.927 117.328 383.927C118.355 383.927 118.902 383.514 119.148 382.82H120.556C120.215 384.127 119.122 385.067 117.288 385.067ZM117.248 378.665C116.167 378.665 115.42 379.285 115.267 380.592H119.195C119.135 379.432 118.408 378.665 117.248 378.665ZM124.701 384.874V375.244H127.815C130.916 375.244 132.891 376.704 132.891 380.072C132.891 383.413 130.916 384.874 127.815 384.874H124.701ZM126.141 383.634H127.789C130.13 383.634 131.357 382.653 131.357 380.079C131.357 377.491 130.13 376.491 127.789 376.491H126.141V383.634ZM134.226 384.874V377.758H135.613V384.874H134.226ZM134.226 376.831V375.244H135.613V376.831H134.226ZM137.423 384.874V375.244H138.81V384.874H137.423ZM140.619 384.874V377.758H142.006V384.874H140.619ZM140.619 376.831V375.244H142.006V376.831H140.619ZM146.436 384.554C144.822 384.554 143.362 383.36 143.362 381.119C143.362 378.885 144.822 377.565 146.436 377.565C147.517 377.565 148.37 378.011 148.771 378.685V377.758H150.158V383.954C150.158 386.615 148.684 387.242 146.723 387.242C144.929 387.242 143.855 386.441 143.675 384.987H145.083C145.209 385.714 145.683 386.101 146.776 386.101C147.93 386.101 148.771 385.774 148.771 384.06V383.44C148.37 384.107 147.517 384.554 146.436 384.554ZM146.823 383.413C147.95 383.413 148.811 382.653 148.811 381.119C148.811 379.579 147.95 378.712 146.823 378.712C145.696 378.712 144.829 379.572 144.829 381.126C144.829 382.68 145.696 383.413 146.823 383.413ZM154.975 385.067C152.707 385.067 151.467 383.52 151.467 381.279C151.467 378.972 152.894 377.565 154.941 377.565C157.202 377.565 158.423 379.252 158.343 381.713H152.934C153.034 383.053 153.794 383.927 155.015 383.927C156.042 383.927 156.589 383.514 156.835 382.82H158.243C157.902 384.127 156.809 385.067 154.975 385.067ZM154.935 378.665C153.854 378.665 153.107 379.285 152.954 380.592H156.882C156.822 379.432 156.095 378.665 154.935 378.665ZM159.665 384.874V377.758H161.052V378.592C161.499 377.978 162.139 377.565 163.153 377.565C164.827 377.565 165.681 378.672 165.681 380.559V384.874H164.293V380.853C164.293 379.472 163.76 378.732 162.673 378.732C161.579 378.732 161.052 379.472 161.052 380.853V384.874H159.665ZM170.351 385.067C168.21 385.067 166.923 383.58 166.923 381.306C166.923 379.039 168.237 377.565 170.377 377.565C172.231 377.565 173.372 378.578 173.605 380.106H172.198C171.985 379.192 171.318 378.712 170.364 378.712C169.184 378.712 168.39 379.612 168.39 381.306C168.39 383.007 169.184 383.92 170.364 383.92C171.318 383.92 171.985 383.427 172.198 382.513H173.605C173.372 384.047 172.198 385.067 170.351 385.067ZM177.875 385.067C175.608 385.067 174.367 383.52 174.367 381.279C174.367 378.972 175.795 377.565 177.842 377.565C180.103 377.565 181.323 379.252 181.243 381.713H175.835C175.935 383.053 176.695 383.927 177.915 383.927C178.942 383.927 179.489 383.514 179.736 382.82H181.143C180.803 384.127 179.709 385.067 177.875 385.067ZM177.835 378.665C176.755 378.665 176.008 379.285 175.855 380.592H179.783C179.723 379.432 178.996 378.665 177.835 378.665Z" fill="#1D1A19"/>
<mask id="path-24-inside-3_83576_1257" fill="white">
<path d="M30.9258 414.02H891.403V482.311H30.9258V414.02Z"/>
</mask>
<path d="M891.403 482.311V481.458H30.9258V482.311V483.165H891.403V482.311Z" fill="#D6D3D1" mask="url(#path-24-inside-3_83576_1257)"/>
<rect x="444.092" y="442.189" width="202.315" height="10.2438" fill="#81BB70"/>
<rect width="23.9022" height="23.9022" transform="translate(58.2422 436.214)" fill="#EBE9E8"/>
<path d="M70.1872 453.358C68.0064 453.358 66.5392 452.271 66.4192 450.351H67.913C68.0398 451.718 69.0001 452.145 70.1806 452.145C71.3276 452.145 72.2413 451.651 72.2413 450.457C72.2413 449.324 71.3476 448.743 69.8004 448.743H69.3269V447.563H69.8071C71.2676 447.563 71.9679 446.929 71.9679 445.976C71.9679 445.002 71.2409 444.555 70.1472 444.555C69.0268 444.555 68.3332 445.002 68.2732 446.269H66.7726C66.8927 444.455 68.1265 443.341 70.2206 443.341C72.1279 443.341 73.4151 444.242 73.4151 445.842C73.4151 446.929 72.8015 447.756 71.9279 448.07V448.083C73.0016 448.417 73.7419 449.157 73.7419 450.497C73.7419 452.345 72.2146 453.358 70.1872 453.358Z" fill="#1D1A19"/>
<path d="M100.284 453.358C97.8368 453.358 96.543 452.065 96.3096 450.277H97.8035C98.0302 451.511 98.8172 452.171 100.331 452.171C101.578 452.171 102.525 451.778 102.525 450.704C102.525 449.63 101.672 449.357 100.538 449.077L99.2107 448.75C97.5834 448.35 96.5363 447.556 96.5363 445.929C96.5363 444.362 98.0035 443.341 100.038 443.341C102.112 443.341 103.399 444.328 103.632 446.102H102.145C101.878 444.922 101.125 444.529 99.9643 444.529C98.8639 444.529 98.0102 444.955 98.0102 445.882C98.0102 446.729 98.5571 447.143 99.5641 447.396L100.905 447.73C102.792 448.197 103.999 448.783 103.999 450.537C103.999 452.398 102.439 453.358 100.284 453.358ZM105.428 453.165V443.535H108.809C111.31 443.535 112.471 444.675 112.471 446.543C112.471 448.397 111.31 449.53 108.809 449.53H106.869V453.165H105.428ZM106.869 448.29H108.756C110.257 448.29 110.937 447.723 110.937 446.543C110.937 445.355 110.257 444.782 108.756 444.782H106.869V448.29ZM116.441 453.165L112.526 443.535H114.12L117.334 451.531H117.341L120.549 443.535H121.996L118.088 453.165H116.441ZM125.181 453.165V443.535H131.623V444.789H126.622V447.663H131.11V448.917H126.622V453.165H125.181ZM135.507 453.358C133.299 453.358 132.012 451.838 132.012 449.597C132.012 447.363 133.299 445.856 135.507 445.856C137.721 445.856 139.001 447.363 139.001 449.597C139.001 451.838 137.721 453.358 135.507 453.358ZM135.507 452.211C136.874 452.211 137.534 451.191 137.534 449.597C137.534 448.01 136.874 447.003 135.507 447.003C134.146 447.003 133.479 448.01 133.479 449.597C133.479 451.191 134.146 452.211 135.507 452.211ZM140.344 453.165V446.049H141.731V447.303C142.124 446.496 142.885 445.976 143.972 445.976H144.092V447.336H143.738C142.464 447.336 141.731 447.923 141.731 449.404V453.165H140.344ZM145.087 453.165V446.049H146.474V446.883C146.921 446.269 147.562 445.856 148.575 445.856C149.649 445.856 150.389 446.316 150.769 447.136C151.396 446.229 152.203 445.856 153.204 445.856C154.891 445.856 155.731 446.963 155.731 448.85V453.165H154.344V449.144C154.344 447.763 153.817 447.023 152.717 447.023C151.623 447.023 151.103 447.763 151.103 449.144V453.165H149.716V449.144C149.716 447.763 149.182 447.023 148.095 447.023C147.001 447.023 146.474 447.763 146.474 449.144V453.165H145.087ZM159.801 452.278C160.882 452.278 161.649 451.745 161.649 450.677V449.43C161.135 449.617 160.728 449.724 160.288 449.844C158.854 450.204 158.407 450.431 158.407 451.151C158.407 451.898 158.914 452.278 159.801 452.278ZM159.501 453.358C158.041 453.358 156.94 452.578 156.94 451.204C156.94 449.69 158.081 449.144 160.335 448.817C161.515 448.637 161.649 448.51 161.649 447.97V447.95C161.649 447.243 161.108 446.929 160.228 446.929C159.308 446.929 158.674 447.29 158.648 448.217H157.26C157.26 446.576 158.628 445.856 160.235 445.856C161.982 445.856 163.029 446.416 163.022 448.17L163.009 450.971C163.002 451.905 163.102 452.111 163.549 452.111C163.623 452.111 163.709 452.105 163.809 452.098V453.158C163.583 453.212 163.329 453.245 163.076 453.245C162.482 453.245 161.915 453.052 161.842 452.411C161.362 452.978 160.648 453.358 159.501 453.358ZM167.333 453.165C165.745 453.165 165.352 452.752 165.352 451.204V447.23H164.278V446.049H165.352V443.815H166.739V446.049H168.22V447.23H166.739V451.098C166.739 451.765 166.839 451.985 167.579 451.985H168.173V453.165H167.333ZM169.522 453.165V446.049H170.909V453.165H169.522ZM169.522 445.122V443.535H170.909V445.122H169.522ZM175.733 453.358C173.525 453.358 172.238 451.838 172.238 449.597C172.238 447.363 173.525 445.856 175.733 445.856C177.947 445.856 179.227 447.363 179.227 449.597C179.227 451.838 177.947 453.358 175.733 453.358ZM175.733 452.211C177.1 452.211 177.76 451.191 177.76 449.597C177.76 448.01 177.1 447.003 175.733 447.003C174.372 447.003 173.705 448.01 173.705 449.597C173.705 451.191 174.372 452.211 175.733 452.211ZM180.57 453.165V446.049H181.957V446.883C182.404 446.269 183.044 445.856 184.058 445.856C185.732 445.856 186.585 446.963 186.585 448.85V453.165H185.198V449.144C185.198 447.763 184.665 447.023 183.578 447.023C182.484 447.023 181.957 447.763 181.957 449.144V453.165H180.57Z" fill="#1D1A19"/>
<mask id="path-29-inside-4_83576_1257" fill="white">
<path d="M30.9258 482.312H891.403V550.603H30.9258V482.312Z"/>
</mask>
<path d="M891.403 550.603V549.75H30.9258V550.603V551.457H891.403V550.603Z" fill="#D6D3D1" mask="url(#path-29-inside-4_83576_1257)"/>
<rect x="444.092" y="510.481" width="75.121" height="10.2438" fill="#81BB70"/>
<rect x="520.066" y="510.481" width="126.34" height="10.2438" fill="#EBE9E8"/>
<rect width="23.9022" height="23.9022" transform="translate(58.2422 504.506)" fill="#EBE9E8"/>
<path d="M71.1476 521.457V519.13H66.0324V517.862L71.1476 511.827H72.5881V517.862H74.3021V519.13H72.5881V521.457H71.1476ZM67.4729 517.862H71.1476V513.574H71.1342L67.4729 517.862Z" fill="#1D1A19"/>
<path d="M96.9231 521.457V511.827H100.304C102.805 511.827 103.966 512.967 103.966 514.835C103.966 516.689 102.805 517.822 100.304 517.822H98.3637V521.457H96.9231ZM98.3637 516.582H100.251C101.752 516.582 102.432 516.015 102.432 514.835C102.432 513.647 101.752 513.074 100.251 513.074H98.3637V516.582ZM107.516 521.65C105.842 521.65 104.995 520.543 104.995 518.656V514.341H106.382V518.363C106.382 519.743 106.909 520.483 107.996 520.483C109.09 520.483 109.616 519.743 109.616 518.363V514.341H111.004V521.457H109.616V520.623C109.17 521.237 108.529 521.65 107.516 521.65ZM112.819 521.457V514.341H114.207V515.595C114.6 514.788 115.36 514.268 116.447 514.268H116.567V515.628H116.214C114.94 515.628 114.207 516.215 114.207 517.696V521.457H112.819ZM120.291 521.65C118.15 521.65 116.863 520.163 116.863 517.889C116.863 515.622 118.177 514.148 120.317 514.148C122.171 514.148 123.312 515.161 123.545 516.689H122.138C121.925 515.775 121.258 515.295 120.304 515.295C119.124 515.295 118.33 516.195 118.33 517.889C118.33 519.59 119.124 520.503 120.304 520.503C121.258 520.503 121.925 520.01 122.138 519.096H123.545C123.312 520.63 122.138 521.65 120.291 521.65ZM124.788 521.457V511.827H126.175V515.175C126.622 514.561 127.262 514.148 128.276 514.148C129.949 514.148 130.803 515.255 130.803 517.142V521.457H129.416V517.436C129.416 516.055 128.882 515.315 127.795 515.315C126.702 515.315 126.175 516.055 126.175 517.436V521.457H124.788ZM134.873 520.57C135.954 520.57 136.72 520.037 136.72 518.969V517.722C136.207 517.909 135.8 518.016 135.36 518.136C133.926 518.496 133.479 518.723 133.479 519.443C133.479 520.19 133.986 520.57 134.873 520.57ZM134.573 521.65C133.112 521.65 132.012 520.87 132.012 519.496C132.012 517.982 133.153 517.436 135.407 517.109C136.587 516.929 136.72 516.802 136.72 516.262V516.242C136.72 515.535 136.18 515.221 135.3 515.221C134.38 515.221 133.746 515.582 133.719 516.509H132.332C132.332 514.868 133.699 514.148 135.307 514.148C137.054 514.148 138.101 514.708 138.094 516.462L138.081 519.263C138.074 520.197 138.174 520.403 138.621 520.403C138.695 520.403 138.781 520.397 138.881 520.39V521.45C138.655 521.504 138.401 521.537 138.148 521.537C137.554 521.537 136.987 521.344 136.914 520.703C136.434 521.27 135.72 521.65 134.573 521.65ZM142.718 521.65C140.871 521.65 139.73 520.83 139.59 519.27H140.977C141.097 520.243 141.758 520.59 142.758 520.59C143.618 520.59 144.238 520.263 144.238 519.623C144.238 518.929 143.638 518.743 142.825 518.549L141.778 518.296C140.63 518.016 139.77 517.402 139.77 516.208C139.77 514.981 140.984 514.148 142.545 514.148C144.118 514.148 145.212 514.755 145.392 516.268H143.998C143.865 515.428 143.285 515.201 142.484 515.201C141.718 515.201 141.151 515.548 141.151 516.135C141.151 516.675 141.544 516.922 142.211 517.082L143.258 517.336C144.579 517.656 145.606 518.116 145.606 519.443C145.606 520.85 144.372 521.65 142.718 521.65ZM149.889 521.65C147.622 521.65 146.381 520.103 146.381 517.862C146.381 515.555 147.808 514.148 149.856 514.148C152.117 514.148 153.337 515.835 153.257 518.296H147.848C147.948 519.636 148.709 520.51 149.929 520.51C150.956 520.51 151.503 520.097 151.75 519.403H153.157C152.817 520.71 151.723 521.65 149.889 521.65ZM149.849 515.248C148.769 515.248 148.022 515.868 147.868 517.175H151.796C151.736 516.015 151.009 515.248 149.849 515.248ZM161.65 521.65C158.669 521.65 156.795 519.65 156.795 516.635C156.795 513.621 158.669 511.633 161.65 511.633C164.625 511.633 166.506 513.621 166.506 516.635C166.506 519.65 164.625 521.65 161.65 521.65ZM161.65 520.397C163.751 520.397 164.972 518.969 164.972 516.635C164.972 514.301 163.751 512.887 161.65 512.887C159.55 512.887 158.329 514.301 158.329 516.635C158.329 518.969 159.55 520.397 161.65 520.397ZM167.841 521.457V514.341H169.228V515.595C169.622 514.788 170.382 514.268 171.469 514.268H171.589V515.628H171.236C169.962 515.628 169.228 516.215 169.228 517.696V521.457H167.841ZM175.079 521.65C173.292 521.65 171.871 520.337 171.871 517.896C171.871 515.455 173.292 514.148 175.079 514.148C176.073 514.148 176.867 514.615 177.273 515.255V511.827H178.661V521.457H177.273V520.543C176.867 521.184 176.073 521.65 175.079 521.65ZM175.333 520.503C176.486 520.503 177.32 519.663 177.32 517.896C177.32 516.128 176.486 515.295 175.333 515.295C174.166 515.295 173.339 516.122 173.339 517.896C173.339 519.676 174.166 520.503 175.333 520.503ZM183.504 521.65C181.237 521.65 179.996 520.103 179.996 517.862C179.996 515.555 181.423 514.148 183.471 514.148C185.732 514.148 186.952 515.835 186.872 518.296H181.463C181.563 519.636 182.324 520.51 183.544 520.51C184.571 520.51 185.118 520.097 185.365 519.403H186.772C186.432 520.71 185.338 521.65 183.504 521.65ZM183.464 515.248C182.384 515.248 181.637 515.868 181.483 517.175H185.412C185.351 516.015 184.625 515.248 183.464 515.248ZM188.194 521.457V514.341H189.582V515.595C189.975 514.788 190.735 514.268 191.822 514.268H191.942V515.628H191.589C190.315 515.628 189.582 516.215 189.582 517.696V521.457H188.194Z" fill="#1D1A19"/>
<mask id="path-35-inside-5_83576_1257" fill="white">
<path d="M30.9258 550.603H891.403V618.894H30.9258V550.603Z"/>
</mask>
<path d="M891.403 618.894V618.041H30.9258V618.894V619.748H891.403V618.894Z" fill="#D6D3D1" mask="url(#path-35-inside-5_83576_1257)"/>
<rect x="444.092" y="578.772" width="202.315" height="10.2438" fill="#EBE9E8"/>
<rect width="23.9022" height="23.9022" transform="translate(58.2422 572.797)" fill="#EBE9E8"/>
<path d="M70.1605 589.941C68.0931 589.941 66.786 588.874 66.6059 587H68.0998C68.2799 588.301 69.0735 588.728 70.1339 588.728C71.3076 588.728 72.248 588.074 72.248 586.64C72.248 585.266 71.3143 584.619 70.1605 584.619C69.2202 584.619 68.62 585 68.3199 585.466H66.846L67.7397 580.118H73.1683V581.378H68.82L68.3532 584.206C68.8601 583.746 69.6003 583.432 70.5674 583.432C72.3747 583.432 73.7552 584.619 73.7552 586.607C73.7552 588.694 72.1746 589.941 70.1605 589.941Z" fill="#1D1A19"/>
<path d="M96.9231 589.748V580.118H103.245V581.372H98.3637V584.246H102.732V585.5H98.3637V588.494H103.259V589.748H96.9231ZM107.276 589.941C105.488 589.941 104.068 588.628 104.068 586.187C104.068 583.746 105.488 582.439 107.276 582.439C108.269 582.439 109.063 582.906 109.47 583.546V582.632H110.857V591.969H109.47V588.834C109.063 589.475 108.269 589.941 107.276 589.941ZM107.529 588.794C108.683 588.794 109.516 587.954 109.516 586.187C109.516 584.419 108.683 583.586 107.529 583.586C106.362 583.586 105.535 584.413 105.535 586.187C105.535 587.967 106.362 588.794 107.529 588.794ZM115.074 589.941C113.4 589.941 112.553 588.834 112.553 586.947V582.632H113.94V586.654C113.94 588.034 114.467 588.774 115.554 588.774C116.647 588.774 117.174 588.034 117.174 586.654V582.632H118.562V589.748H117.174V588.914C116.728 589.528 116.087 589.941 115.074 589.941ZM120.377 589.748V582.632H121.765V589.748H120.377ZM120.377 581.705V580.118H121.765V581.705H120.377ZM127.155 589.941C126.161 589.941 125.368 589.475 124.961 588.834V591.969H123.574V582.632H124.961V583.546C125.368 582.906 126.161 582.439 127.155 582.439C128.942 582.439 130.363 583.746 130.363 586.187C130.363 588.628 128.942 589.941 127.155 589.941ZM126.902 588.794C128.069 588.794 128.896 587.967 128.896 586.187C128.896 584.413 128.069 583.586 126.902 583.586C125.748 583.586 124.914 584.419 124.914 586.187C124.914 587.954 125.748 588.794 126.902 588.794ZM131.705 589.748V582.632H133.092V583.466C133.539 582.852 134.18 582.439 135.193 582.439C136.267 582.439 137.007 582.899 137.387 583.719C138.014 582.812 138.821 582.439 139.822 582.439C141.509 582.439 142.349 583.546 142.349 585.433V589.748H140.962V585.727C140.962 584.346 140.435 583.606 139.335 583.606C138.241 583.606 137.721 584.346 137.721 585.727V589.748H136.334V585.727C136.334 584.346 135.8 583.606 134.713 583.606C133.619 583.606 133.092 584.346 133.092 585.727V589.748H131.705ZM147.093 589.941C144.825 589.941 143.585 588.394 143.585 586.153C143.585 583.846 145.012 582.439 147.06 582.439C149.32 582.439 150.541 584.126 150.461 586.587H145.052C145.152 587.927 145.912 588.801 147.133 588.801C148.16 588.801 148.707 588.388 148.954 587.694H150.361C150.021 589.001 148.927 589.941 147.093 589.941ZM147.053 583.539C145.972 583.539 145.225 584.159 145.072 585.466H149C148.94 584.306 148.213 583.539 147.053 583.539ZM151.783 589.748V582.632H153.17V583.466C153.617 582.852 154.257 582.439 155.271 582.439C156.945 582.439 157.799 583.546 157.799 585.433V589.748H156.411V585.727C156.411 584.346 155.878 583.606 154.791 583.606C153.697 583.606 153.17 584.346 153.17 585.727V589.748H151.783ZM161.762 589.748C160.175 589.748 159.781 589.335 159.781 587.787V583.813H158.708V582.632H159.781V580.398H161.168V582.632H162.649V583.813H161.168V587.681C161.168 588.348 161.268 588.568 162.009 588.568H162.602V589.748H161.762ZM166.674 589.748V580.118H169.789C172.89 580.118 174.864 581.578 174.864 584.946C174.864 588.288 172.89 589.748 169.789 589.748H166.674ZM168.115 588.508H169.762C172.103 588.508 173.33 587.527 173.33 584.953C173.33 582.365 172.103 581.365 169.762 581.365H168.115V588.508ZM179.307 589.941C177.04 589.941 175.799 588.394 175.799 586.153C175.799 583.846 177.227 582.439 179.274 582.439C181.535 582.439 182.755 584.126 182.675 586.587H177.267C177.367 587.927 178.127 588.801 179.347 588.801C180.374 588.801 180.921 588.388 181.168 587.694H182.575C182.235 589.001 181.141 589.941 179.307 589.941ZM179.267 583.539C178.187 583.539 177.44 584.159 177.287 585.466H181.215C181.155 584.306 180.428 583.539 179.267 583.539ZM183.998 589.748V580.118H185.385V589.748H183.998ZM187.194 589.748V582.632H188.581V589.748H187.194ZM187.194 581.705V580.118H188.581V581.705H187.194ZM192.271 589.748L189.523 582.632H191.024L193.098 588.374H193.105L195.232 582.632H196.606L193.858 589.748H192.271ZM200.416 589.941C198.148 589.941 196.908 588.394 196.908 586.153C196.908 583.846 198.335 582.439 200.383 582.439C202.643 582.439 203.864 584.126 203.784 586.587H198.375C198.475 587.927 199.236 588.801 200.456 588.801C201.483 588.801 202.03 588.388 202.277 587.694H203.684C203.344 589.001 202.25 589.941 200.416 589.941ZM200.376 583.539C199.296 583.539 198.549 584.159 198.395 585.466H202.323C202.263 584.306 201.536 583.539 200.376 583.539ZM205.106 589.748V582.632H206.493V583.886C206.887 583.079 207.647 582.559 208.734 582.559H208.854V583.919H208.501C207.227 583.919 206.493 584.506 206.493 585.987V589.748H205.106ZM210.05 591.969V590.795H210.377C211.304 590.795 211.497 590.708 211.791 589.875L211.844 589.715L208.963 582.632H210.45L212.598 588.101H212.611L214.872 582.632H216.286L213.151 589.981C212.417 591.682 212.104 591.969 210.47 591.969H210.05ZM222.185 589.941C220.177 589.941 218.937 588.834 218.937 587.2C218.937 585.9 219.797 585 221.391 584.273C220.818 583.666 220.237 582.919 220.237 582.052C220.237 580.845 221.204 579.924 222.838 579.924C224.459 579.924 225.426 580.711 225.426 581.992C225.426 583.046 224.726 583.839 223.439 584.506L225.513 586.647C225.94 586.047 226.36 585.366 226.613 584.846H228.047C227.68 585.607 227.027 586.634 226.353 587.507L228.534 589.755H226.686L225.486 588.514C224.512 589.495 223.512 589.941 222.185 589.941ZM222.652 583.719C223.619 583.279 224.059 582.759 224.059 582.065C224.059 581.378 223.545 581.052 222.838 581.052C222.138 581.052 221.631 581.372 221.631 582.059C221.631 582.625 222.158 583.232 222.652 583.719ZM222.312 588.808C223.179 588.808 223.925 588.468 224.679 587.681L222.171 585.08C220.844 585.653 220.371 586.347 220.371 587.18C220.371 588.114 221.138 588.808 222.312 588.808ZM231.592 589.748V580.118H233.033V589.748H231.592ZM234.888 589.748V582.632H236.276V583.466C236.722 582.852 237.363 582.439 238.376 582.439C240.05 582.439 240.904 583.546 240.904 585.433V589.748H239.517V585.727C239.517 584.346 238.983 583.606 237.896 583.606C236.802 583.606 236.276 584.346 236.276 585.727V589.748H234.888ZM245.181 589.941C243.333 589.941 242.193 589.121 242.053 587.561H243.44C243.56 588.534 244.22 588.881 245.221 588.881C246.081 588.881 246.701 588.554 246.701 587.914C246.701 587.22 246.101 587.034 245.287 586.84L244.24 586.587C243.093 586.307 242.233 585.693 242.233 584.499C242.233 583.272 243.447 582.439 245.007 582.439C246.581 582.439 247.675 583.046 247.855 584.559H246.461C246.328 583.719 245.748 583.492 244.947 583.492C244.18 583.492 243.614 583.839 243.614 584.426C243.614 584.966 244.007 585.213 244.674 585.373L245.721 585.627C247.041 585.947 248.069 586.407 248.069 587.734C248.069 589.141 246.835 589.941 245.181 589.941ZM251.625 589.748C250.038 589.748 249.644 589.335 249.644 587.787V583.813H248.571V582.632H249.644V580.398H251.031V582.632H252.512V583.813H251.031V587.681C251.031 588.348 251.132 588.568 251.872 588.568H252.465V589.748H251.625ZM256.062 588.861C257.142 588.861 257.909 588.328 257.909 587.26V586.013C257.396 586.2 256.989 586.307 256.549 586.427C255.115 586.787 254.668 587.014 254.668 587.734C254.668 588.481 255.175 588.861 256.062 588.861ZM255.762 589.941C254.301 589.941 253.201 589.161 253.201 587.787C253.201 586.273 254.341 585.727 256.595 585.4C257.776 585.22 257.909 585.093 257.909 584.553V584.533C257.909 583.826 257.369 583.512 256.489 583.512C255.568 583.512 254.935 583.873 254.908 584.8H253.521C253.521 583.159 254.888 582.439 256.495 582.439C258.243 582.439 259.29 582.999 259.283 584.753L259.27 587.554C259.263 588.488 259.363 588.694 259.81 588.694C259.883 588.694 259.97 588.688 260.07 588.681V589.741C259.843 589.795 259.59 589.828 259.336 589.828C258.743 589.828 258.176 589.635 258.103 588.994C257.622 589.561 256.909 589.941 255.762 589.941ZM261.346 589.748V580.118H262.733V589.748H261.346ZM264.542 589.748V580.118H265.929V589.748H264.542Z" fill="#1D1A19"/>
<mask id="path-40-inside-6_83576_1257" fill="white">
<path d="M30.9258 618.895H891.403V687.186H30.9258V618.895Z"/>
</mask>
<path d="M891.403 687.186V686.333H30.9258V687.186V688.04H891.403V687.186Z" fill="#D6D3D1" mask="url(#path-40-inside-6_83576_1257)"/>
<rect x="444.092" y="647.065" width="202.315" height="10.2438" fill="#EBE9E8"/>
<rect width="23.9022" height="23.9022" transform="translate(58.2422 641.09)" fill="#EBE9E8"/>
<path d="M70.3006 658.234C67.9197 658.234 66.6192 656.681 66.6192 653.739V653.586C66.6192 650.392 67.8464 648.217 70.4807 648.217C72.3947 648.217 73.4017 649.298 73.5885 650.738H72.1613C71.9879 649.758 71.3076 649.418 70.4807 649.418C68.9468 649.418 68.1731 650.678 68.0931 652.939C68.56 652.232 69.4136 651.685 70.6274 651.685C72.4014 651.685 73.8352 652.972 73.8352 654.973C73.8352 656.874 72.3947 658.234 70.3006 658.234ZM70.2806 657.034C71.481 657.034 72.348 656.274 72.348 654.98C72.348 653.679 71.481 652.879 70.2806 652.879C69.0668 652.879 68.1998 653.679 68.1998 654.98C68.1998 656.274 69.0668 657.034 70.2806 657.034Z" fill="#1D1A19"/>
<path d="M96.9231 658.041V648.411H103.366V649.665H98.3637V652.539H102.852V653.793H98.3637V658.041H96.9231ZM106.595 658.234C104.921 658.234 104.074 657.127 104.074 655.24V650.925H105.461V654.947C105.461 656.327 105.988 657.067 107.075 657.067C108.169 657.067 108.696 656.327 108.696 654.947V650.925H110.083V658.041H108.696V657.207C108.249 657.821 107.609 658.234 106.595 658.234ZM111.899 658.041V650.925H113.286V651.759C113.733 651.145 114.373 650.732 115.387 650.732C117.061 650.732 117.915 651.839 117.915 653.726V658.041H116.527V654.02C116.527 652.639 115.994 651.899 114.907 651.899C113.813 651.899 113.286 652.639 113.286 654.02V658.041H111.899ZM122.365 658.234C120.577 658.234 119.157 656.921 119.157 654.48C119.157 652.039 120.577 650.732 122.365 650.732C123.359 650.732 124.152 651.198 124.559 651.839V648.411H125.946V658.041H124.559V657.127C124.152 657.768 123.359 658.234 122.365 658.234ZM122.618 657.087C123.772 657.087 124.606 656.247 124.606 654.48C124.606 652.712 123.772 651.879 122.618 651.879C121.451 651.879 120.624 652.706 120.624 654.48C120.624 656.26 121.451 657.087 122.618 657.087ZM127.762 658.041V650.925H129.149V658.041H127.762ZM127.762 649.998V648.411H129.149V649.998H127.762ZM130.958 658.041V650.925H132.346V651.759C132.792 651.145 133.433 650.732 134.446 650.732C136.12 650.732 136.974 651.839 136.974 653.726V658.041H135.587V654.02C135.587 652.639 135.053 651.899 133.966 651.899C132.872 651.899 132.346 652.639 132.346 654.02V658.041H130.958ZM141.311 657.721C139.697 657.721 138.236 656.527 138.236 654.286C138.236 652.052 139.697 650.732 141.311 650.732C142.391 650.732 143.245 651.178 143.645 651.852V650.925H145.032V657.121C145.032 659.782 143.558 660.409 141.597 660.409C139.803 660.409 138.73 659.608 138.55 658.154H139.957C140.084 658.881 140.557 659.268 141.651 659.268C142.805 659.268 143.645 658.941 143.645 657.227V656.607C143.245 657.274 142.391 657.721 141.311 657.721ZM141.698 656.58C142.825 656.58 143.685 655.82 143.685 654.286C143.685 652.746 142.825 651.879 141.698 651.879C140.57 651.879 139.703 652.739 139.703 654.293C139.703 655.847 140.57 656.58 141.698 656.58Z" fill="#1D1A19"/>
</g>
</g>
<rect x="31.3526" y="277.862" width="859.624" height="408.898" stroke="#D6D3D1" stroke-width="0.853648"/>
</g>
</g>
<rect x="0.5" y="0.5" width="576" height="707" stroke="#D6D3D1"/>
<defs>
<clipPath id="clip0_83576_1257">
<rect width="577" height="708" fill="white"/>
</clipPath>
<clipPath id="clip1_83576_1257">
<rect width="964.623" height="729.016" fill="white" transform="translate(-22)"/>
</clipPath>
<clipPath id="clip2_83576_1257">
<rect width="860.477" height="143.413" fill="white" transform="translate(30.9258 55.4873)"/>
</clipPath>
<clipPath id="clip3_83576_1257">
<rect width="1077.3" height="102.438" fill="white" transform="translate(51.4141 75.9746)"/>
</clipPath>
<clipPath id="clip4_83576_1257">
<rect x="30.9258" y="277.436" width="860.477" height="409.751" fill="white"/>
</clipPath>
<clipPath id="clip5_83576_1257">
<rect width="860.477" height="409.751" fill="white" transform="translate(30.9258 277.436)"/>
</clipPath>
</defs>
</svg>
