<svg preserveAspectRatio="none" width="100%" height="100%" overflow="visible" style="display: block;" viewBox="0 0 504 450.695" fill="none" xmlns="http://www.w3.org/2000/svg">
<g id="Group 1547766067">
<path id="Vector" d="M257.888 4.06751L280.24 17.3175L302.583 30.5675L324.936 43.8077L369.641 70.3077L391.992 83.5577L414.336 96.799L436.688 110.049L459.04 123.299L481.393 136.539L503.276 149.511L490.139 167.904L476.685 186.731L449.776 224.402L436.599 242.864L414.642 229.849L392.289 216.599L369.937 203.358L347.584 190.108L325.241 176.859V176.858L302.889 163.617L258.184 137.117H258.185L252.255 133.601L252 133.449L251.745 133.601L245.815 137.117L223.464 150.367L201.111 163.617L178.759 176.858V176.859L156.416 190.108L134.063 203.358L111.711 216.599L89.3584 229.849L67.4004 242.864L54.2236 224.402L27.3154 186.731L13.8613 167.904L0.722656 149.511L22.6074 136.539L44.96 123.299L67.3125 110.049L89.6641 96.799L112.008 83.5577L134.359 70.3077L179.064 43.8077L201.417 30.5675L223.76 17.3175L246.112 4.06751L252 0.581182L257.888 4.06751Z" stroke="var(--stroke-0, #3D352F)"/>
<path id="Vector_2" d="M266.575 170.062H266.576L288.928 183.303L333.633 209.803L355.976 223.044L400.681 249.544L422.563 262.506L382.519 318.57L369.074 337.397L355.887 355.859L333.93 342.844L311.577 329.603L266.872 303.103L252.258 294.445L252.003 294.295L251.749 294.445L237.135 303.103L192.43 329.603L170.077 342.844L148.119 355.859L134.933 337.397L121.488 318.57L81.4424 262.506L103.326 249.544L148.031 223.044L170.374 209.803L215.079 183.303L215.078 183.302L237.431 170.062H237.432L252.003 161.417L266.575 170.062Z" stroke="var(--stroke-0, #3D352F)"/>
<path id="Vector_3" d="M252.923 322.802V322.801L275.264 336.05L275.265 336.051L297.616 349.291L319.969 362.541L341.853 375.513L328.715 393.906L315.261 412.732L301.807 431.568L288.629 450.03L266.672 437.015L252.262 428.478L252.007 428.327L251.752 428.478L237.342 437.015L215.384 450.03L202.207 431.568L188.753 412.732L175.299 393.906L162.16 375.513L184.045 362.541L206.397 349.291L228.749 336.051L228.75 336.05L251.09 322.801L251.091 322.802L252.007 322.263L252.923 322.802Z" stroke="var(--stroke-0, #3D352F)"/>
<path id="Vector 2570" d="M252 1.15449V133.092" stroke="var(--stroke-0, #3D352F)"/>
<path id="Vector 2571" d="M252 161.953V294.22" stroke="var(--stroke-0, #3D352F)"/>
<path id="Vector 2572" d="M252 322.586V428.466" stroke="var(--stroke-0, #3D352F)"/>
</g>
</svg>
