<svg width="721" height="166" viewBox="0 0 721 166" fill="none" xmlns="http://www.w3.org/2000/svg">
<path d="M23.3018 140.282C-8.48429 107.462 -7.64598 55.088 25.1743 23.3018C57.9945 -8.48429 110.368 -7.64598 142.154 25.1743C173.941 57.9945 173.102 110.368 140.282 142.154C107.462 173.941 55.088 173.102 23.3018 140.282Z" fill="#A99482"/>
<path d="M26.5714 136.883C-3.40308 105.934 -2.61254 56.5449 28.3371 26.5704C59.2868 -3.40405 108.676 -2.61352 138.65 28.3361C168.625 59.2858 167.834 108.675 136.884 138.649C105.935 168.624 56.5459 167.833 26.5714 136.883Z" fill="#2F2823"/>
<path d="M33.5156 67.8227L46.6348 86.1903L82.6678 64.8329V38.6904L33.5156 67.8227Z" fill="#F7F3EE"/>
<path d="M49.259 89.8623L62.3782 108.23L82.6678 96.2056V70.0614L49.259 89.8623Z" fill="#F7F3EE"/>
<path d="M65.0025 111.904L75.4975 126.598L82.6679 122.348V101.434L82.4399 101.568L65.0025 111.904Z" fill="#F7F3EE"/>
<path d="M131.82 67.8227L118.701 86.1903L82.668 64.8329V38.6904L131.82 67.8227Z" fill="#A99482"/>
<path d="M116.077 89.8623L102.958 108.23L82.668 96.2056V70.0614L116.077 89.8623Z" fill="#A99482"/>
<path d="M100.333 111.904L89.8384 126.598L82.668 122.348V101.434L82.896 101.568L100.333 111.904Z" fill="#A99482"/>
<path d="M265.075 140.977C240.007 140.977 222.037 126.178 222.037 105.64V36.4769L210.258 27.4162H252.541L240.913 36.4769L241.064 102.016C241.064 118.325 254.202 130.104 272.324 130.104C289.69 130.104 302.073 118.627 302.073 102.62V36.4769L286.066 27.4162H322.006L305.999 36.4769L306.15 103.979C306.15 125.423 288.784 140.977 265.075 140.977Z" fill="white"/>
<path d="M365.73 140.977C353.498 140.977 338.246 138.561 328.883 135.088V132.52L324.202 98.3917C334.622 123.913 349.874 137.957 367.844 137.957C380.68 137.957 389.59 129.802 389.59 117.57C389.59 85.8577 326.467 96.2775 326.467 57.1655C326.467 38.7421 342.776 25 365.126 25C375.546 25 387.476 27.7182 396.084 32.2486V34.8158L400.614 63.659C389.892 40.5542 376.905 28.1713 361.502 28.1713C348.968 28.1713 339.907 36.6279 339.907 48.2558C339.907 77.5521 403.03 67.8873 403.03 108.207C403.03 127.084 388.231 140.977 365.73 140.977Z" fill="white"/>
<path d="M455.731 139.165H409.974L421.602 130.104V36.4769L409.974 27.4162H455.731C492.578 27.4162 520.062 51.5781 520.062 82.3845C520.062 114.248 492.578 139.165 455.731 139.165ZM440.479 30.5874V135.994H454.674C480.95 135.994 499.373 113.795 499.373 82.3845C499.373 51.8801 480.95 30.5874 454.825 30.5874H440.479Z" fill="white"/>
<path d="M543.996 140.373H523.458V118.929H543.996V140.373Z" fill="white"/>
<path d="M587.604 139.165H551.663L566.161 130.859L603.46 40.5542L596.061 29.6814L618.713 25.7551L663.11 131.161L675.191 139.165H625.81L641.817 131.312L628.528 99.4488H582.923L570.389 130.859L587.604 139.165ZM604.518 46.1416L584.282 96.2775H627.169L606.179 46.1416H604.518Z" fill="white"/>
<path d="M678.227 139.165L689.855 130.859V35.7218L678.227 27.4162H720.51L708.731 35.7218V130.859L720.51 139.165H678.227Z" fill="white"/>
</svg>
