<svg width="166" height="166" viewBox="0 0 166 166" fill="none" xmlns="http://www.w3.org/2000/svg">
<path d="M23.3018 140.282C-8.48429 107.462 -7.64598 55.088 25.1743 23.3018C57.9945 -8.48429 110.368 -7.64598 142.154 25.1743C173.941 57.9945 173.102 110.368 140.282 142.154C107.462 173.941 55.088 173.102 23.3018 140.282Z" fill="#A99482"/>
<path d="M26.5714 136.883C-3.40308 105.934 -2.61254 56.5449 28.3371 26.5704C59.2868 -3.40405 108.676 -2.61352 138.65 28.3361C168.625 59.2858 167.834 108.675 136.884 138.649C105.935 168.624 56.5459 167.833 26.5714 136.883Z" fill="#2F2823"/>
<path d="M33.5156 67.8227L46.6348 86.1903L82.6678 64.8329V38.6904L33.5156 67.8227Z" fill="#F7F3EE"/>
<path d="M49.259 89.8623L62.3782 108.23L82.6678 96.2056V70.0614L49.259 89.8623Z" fill="#F7F3EE"/>
<path d="M65.0025 111.904L75.4975 126.598L82.6679 122.348V101.434L82.4399 101.568L65.0025 111.904Z" fill="#F7F3EE"/>
<path d="M131.82 67.8227L118.701 86.1903L82.668 64.8329V38.6904L131.82 67.8227Z" fill="#A99482"/>
<path d="M116.077 89.8623L102.958 108.23L82.668 96.2056V70.0614L116.077 89.8623Z" fill="#A99482"/>
<path d="M100.333 111.904L89.8384 126.598L82.668 122.348V101.434L82.896 101.568L100.333 111.904Z" fill="#A99482"/>
</svg>
