<svg width="372" height="222" viewBox="0 0 372 222" fill="none" xmlns="http://www.w3.org/2000/svg">
<rect x="0.5" y="0.5" width="497.288" height="311" fill="#BEDCD9"/>
<rect x="0.5" y="0.5" width="497.288" height="311" stroke="#68C4BA"/>
<g clip-path="url(#clip0_79105_5508)">
<rect x="17.5859" y="17.5859" width="142.647" height="22.7975" fill="#EDF9F8"/>
<rect x="17.9116" y="17.9116" width="141.996" height="22.1461" stroke="#BEDCD9" stroke-width="0.651357"/>
<rect x="24.4253" y="21.1694" width="3.25678" height="15.6326" fill="#FCFDFD" stroke="#68C4BA" stroke-width="0.651357"/>
<rect x="32.2417" y="21.1694" width="3.25678" height="15.6326" fill="#FCFDFD" stroke="#68C4BA" stroke-width="0.651357"/>
<rect x="40.0581" y="21.1694" width="3.25678" height="15.6326" fill="#FCFDFD" stroke="#68C4BA" stroke-width="0.651357"/>
<rect x="49.5039" y="26.8359" width="104.217" height="1.30271" fill="#68C4BA"/>
<rect x="49.5039" y="32.8281" width="104.217" height="1.30271" fill="#68C4BA"/>
<rect x="49.5039" y="35.8242" width="104.217" height="1.30271" fill="#68C4BA"/>
<rect x="49.5039" y="23.8398" width="104.217" height="1.30271" fill="#68C4BA"/>
<rect x="49.5039" y="29.832" width="104.217" height="1.30271" fill="#68C4BA"/>
<rect x="49.5039" y="20.8438" width="104.217" height="1.30271" fill="#68C4BA"/>
</g>
<rect x="18.0859" y="18.0859" width="141.647" height="21.7975" stroke="#68C4BA"/>
<g clip-path="url(#clip1_79105_5508)">
<rect x="17.5859" y="42.9883" width="142.647" height="22.7975" fill="#EDF9F8"/>
<rect x="17.9116" y="43.314" width="141.996" height="22.1461" stroke="#BEDCD9" stroke-width="0.651357"/>
<rect x="24.4253" y="46.5718" width="3.25678" height="15.6326" fill="#FCFDFD" stroke="#68C4BA" stroke-width="0.651357"/>
<rect x="32.2417" y="46.5718" width="3.25678" height="15.6326" fill="#FCFDFD" stroke="#68C4BA" stroke-width="0.651357"/>
<rect x="40.0581" y="46.5718" width="3.25678" height="15.6326" fill="#FCFDFD" stroke="#68C4BA" stroke-width="0.651357"/>
<rect x="49.5039" y="52.2383" width="104.217" height="1.30271" fill="#68C4BA"/>
<rect x="49.5039" y="58.2305" width="104.217" height="1.30271" fill="#68C4BA"/>
<rect x="49.5039" y="61.2266" width="104.217" height="1.30271" fill="#68C4BA"/>
<rect x="49.5039" y="49.2422" width="104.217" height="1.30271" fill="#68C4BA"/>
<rect x="49.5039" y="55.2344" width="104.217" height="1.30271" fill="#68C4BA"/>
<rect x="49.5039" y="46.2461" width="104.217" height="1.30271" fill="#68C4BA"/>
</g>
<rect x="18.0859" y="43.4883" width="141.647" height="21.7975" stroke="#68C4BA"/>
<g clip-path="url(#clip2_79105_5508)">
<rect x="17.5859" y="68.3906" width="142.647" height="22.7975" fill="#EDF9F8"/>
<rect x="17.9116" y="68.7163" width="141.996" height="22.1461" stroke="#BEDCD9" stroke-width="0.651357"/>
<rect x="24.4253" y="71.9741" width="3.25678" height="15.6326" fill="#FCFDFD" stroke="#68C4BA" stroke-width="0.651357"/>
<rect x="32.2417" y="71.9741" width="3.25678" height="15.6326" fill="#FCFDFD" stroke="#68C4BA" stroke-width="0.651357"/>
<rect x="40.0581" y="71.9741" width="3.25678" height="15.6326" fill="#FCFDFD" stroke="#68C4BA" stroke-width="0.651357"/>
<rect x="49.5039" y="77.6406" width="104.217" height="1.30271" fill="#68C4BA"/>
<rect x="49.5039" y="83.6328" width="104.217" height="1.30271" fill="#68C4BA"/>
<rect x="49.5039" y="86.6289" width="104.217" height="1.30271" fill="#68C4BA"/>
<rect x="49.5039" y="74.6445" width="104.217" height="1.30271" fill="#68C4BA"/>
<rect x="49.5039" y="80.6367" width="104.217" height="1.30271" fill="#68C4BA"/>
<rect x="49.5039" y="71.6484" width="104.217" height="1.30271" fill="#68C4BA"/>
</g>
<rect x="18.0859" y="68.8906" width="141.647" height="21.7975" stroke="#68C4BA"/>
<g clip-path="url(#clip3_79105_5508)">
<rect x="17.5859" y="93.7949" width="142.647" height="22.7975" fill="#EDF9F8"/>
<rect x="17.9116" y="94.1206" width="141.996" height="22.1461" stroke="#BEDCD9" stroke-width="0.651357"/>
<rect x="24.4253" y="97.3765" width="3.25678" height="15.6326" fill="#FCFDFD" stroke="#68C4BA" stroke-width="0.651357"/>
<rect x="32.2417" y="97.3765" width="3.25678" height="15.6326" fill="#FCFDFD" stroke="#68C4BA" stroke-width="0.651357"/>
<rect x="40.0581" y="97.3765" width="3.25678" height="15.6326" fill="#FCFDFD" stroke="#68C4BA" stroke-width="0.651357"/>
<rect x="49.5039" y="103.043" width="104.217" height="1.30271" fill="#68C4BA"/>
<rect x="49.5039" y="109.037" width="104.217" height="1.30271" fill="#68C4BA"/>
<rect x="49.5039" y="112.033" width="104.217" height="1.30271" fill="#68C4BA"/>
<rect x="49.5039" y="100.047" width="104.217" height="1.30271" fill="#68C4BA"/>
<rect x="49.5039" y="106.039" width="104.217" height="1.30271" fill="#68C4BA"/>
<rect x="49.5039" y="97.0508" width="104.217" height="1.30271" fill="#68C4BA"/>
</g>
<rect x="18.0859" y="94.2949" width="141.647" height="21.7975" stroke="#68C4BA"/>
<g clip-path="url(#clip4_79105_5508)">
<rect x="17.5859" y="119.197" width="142.647" height="22.7975" fill="#EDF9F8"/>
<rect x="17.9116" y="119.523" width="141.996" height="22.1461" stroke="#BEDCD9" stroke-width="0.651357"/>
<rect x="24.4253" y="122.779" width="3.25678" height="15.6326" fill="#FCFDFD" stroke="#68C4BA" stroke-width="0.651357"/>
<rect x="32.2417" y="122.779" width="3.25678" height="15.6326" fill="#FCFDFD" stroke="#68C4BA" stroke-width="0.651357"/>
<rect x="40.0581" y="122.779" width="3.25678" height="15.6326" fill="#FCFDFD" stroke="#68C4BA" stroke-width="0.651357"/>
<rect x="49.5039" y="128.445" width="104.217" height="1.30271" fill="#68C4BA"/>
<rect x="49.5039" y="134.439" width="104.217" height="1.30271" fill="#68C4BA"/>
<rect x="49.5039" y="137.436" width="104.217" height="1.30271" fill="#68C4BA"/>
<rect x="49.5039" y="125.449" width="104.217" height="1.30271" fill="#68C4BA"/>
<rect x="49.5039" y="131.441" width="104.217" height="1.30271" fill="#68C4BA"/>
<rect x="49.5039" y="122.453" width="104.217" height="1.30271" fill="#68C4BA"/>
</g>
<rect x="18.0859" y="119.697" width="141.647" height="21.7975" stroke="#68C4BA"/>
<g clip-path="url(#clip5_79105_5508)">
<rect x="17.5859" y="144.602" width="142.647" height="22.7975" fill="#EDF9F8"/>
<rect x="17.9116" y="144.927" width="141.996" height="22.1461" stroke="#BEDCD9" stroke-width="0.651357"/>
<rect x="24.4253" y="148.185" width="3.25678" height="15.6326" fill="#FCFDFD" stroke="#68C4BA" stroke-width="0.651357"/>
<rect x="32.2417" y="148.185" width="3.25678" height="15.6326" fill="#FCFDFD" stroke="#68C4BA" stroke-width="0.651357"/>
<rect x="40.0581" y="148.185" width="3.25678" height="15.6326" fill="#FCFDFD" stroke="#68C4BA" stroke-width="0.651357"/>
<rect x="49.5039" y="153.852" width="104.217" height="1.30271" fill="#68C4BA"/>
<rect x="49.5039" y="159.844" width="104.217" height="1.30271" fill="#68C4BA"/>
<rect x="49.5039" y="162.84" width="104.217" height="1.30271" fill="#68C4BA"/>
<rect x="49.5039" y="150.855" width="104.217" height="1.30271" fill="#68C4BA"/>
<rect x="49.5039" y="156.848" width="104.217" height="1.30271" fill="#68C4BA"/>
<rect x="49.5039" y="147.859" width="104.217" height="1.30271" fill="#68C4BA"/>
</g>
<rect x="18.0859" y="145.102" width="141.647" height="21.7975" stroke="#68C4BA"/>
<g clip-path="url(#clip6_79105_5508)">
<rect x="17.5859" y="170.004" width="142.647" height="22.7975" fill="#EDF9F8"/>
<rect x="17.9116" y="170.33" width="141.996" height="22.1461" stroke="#BEDCD9" stroke-width="0.651357"/>
<rect x="24.4253" y="173.587" width="3.25678" height="15.6326" fill="#FCFDFD" stroke="#68C4BA" stroke-width="0.651357"/>
<rect x="32.2417" y="173.587" width="3.25678" height="15.6326" fill="#FCFDFD" stroke="#68C4BA" stroke-width="0.651357"/>
<rect x="40.0581" y="173.587" width="3.25678" height="15.6326" fill="#FCFDFD" stroke="#68C4BA" stroke-width="0.651357"/>
<rect x="49.5039" y="179.254" width="104.217" height="1.30271" fill="#68C4BA"/>
<rect x="49.5039" y="185.246" width="104.217" height="1.30271" fill="#68C4BA"/>
<rect x="49.5039" y="188.242" width="104.217" height="1.30271" fill="#68C4BA"/>
<rect x="49.5039" y="176.258" width="104.217" height="1.30271" fill="#68C4BA"/>
<rect x="49.5039" y="182.25" width="104.217" height="1.30271" fill="#68C4BA"/>
<rect x="49.5039" y="173.262" width="104.217" height="1.30271" fill="#68C4BA"/>
</g>
<rect x="18.0859" y="170.504" width="141.647" height="21.7975" stroke="#68C4BA"/>
<g clip-path="url(#clip7_79105_5508)">
<rect x="17.5859" y="195.406" width="142.647" height="22.7975" fill="#EDF9F8"/>
<rect x="17.9116" y="195.732" width="141.996" height="22.1461" stroke="#BEDCD9" stroke-width="0.651357"/>
<rect x="24.4253" y="198.99" width="3.25678" height="15.6326" fill="#FCFDFD" stroke="#68C4BA" stroke-width="0.651357"/>
<rect x="32.2417" y="198.99" width="3.25678" height="15.6326" fill="#FCFDFD" stroke="#68C4BA" stroke-width="0.651357"/>
<rect x="40.0581" y="198.99" width="3.25678" height="15.6326" fill="#FCFDFD" stroke="#68C4BA" stroke-width="0.651357"/>
<rect x="49.5039" y="204.656" width="104.217" height="1.30271" fill="#68C4BA"/>
<rect x="49.5039" y="210.648" width="104.217" height="1.30271" fill="#68C4BA"/>
<rect x="49.5039" y="213.645" width="104.217" height="1.30271" fill="#68C4BA"/>
<rect x="49.5039" y="201.66" width="104.217" height="1.30271" fill="#68C4BA"/>
<rect x="49.5039" y="207.652" width="104.217" height="1.30271" fill="#68C4BA"/>
<rect x="49.5039" y="198.664" width="104.217" height="1.30271" fill="#68C4BA"/>
</g>
<rect x="18.0859" y="195.906" width="141.647" height="21.7975" stroke="#68C4BA"/>
<rect x="17.9116" y="221.134" width="141.996" height="22.1461" stroke="#BEDCD9" stroke-width="0.651357"/>
<g clip-path="url(#clip8_79105_5508)">
<rect x="177.82" y="17.5859" width="142.647" height="22.7975" fill="#EDF9F8"/>
<rect x="178.146" y="17.9116" width="141.996" height="22.1461" stroke="#BEDCD9" stroke-width="0.651357"/>
<rect x="184.66" y="21.1675" width="3.25678" height="15.6326" fill="#FCFDFD" stroke="#68C4BA" stroke-width="0.651357"/>
<rect x="192.476" y="21.1675" width="3.25678" height="15.6326" fill="#FCFDFD" stroke="#68C4BA" stroke-width="0.651357"/>
<rect x="200.292" y="21.1675" width="3.25678" height="15.6326" fill="#FCFDFD" stroke="#68C4BA" stroke-width="0.651357"/>
<rect x="209.736" y="26.8359" width="104.217" height="1.30271" fill="#68C4BA"/>
<rect x="209.736" y="32.8281" width="104.217" height="1.30271" fill="#68C4BA"/>
<rect x="209.736" y="35.8242" width="104.217" height="1.30271" fill="#68C4BA"/>
<rect x="209.736" y="23.8398" width="104.217" height="1.30271" fill="#68C4BA"/>
<rect x="209.736" y="29.832" width="104.217" height="1.30271" fill="#68C4BA"/>
<rect x="209.736" y="20.8438" width="104.217" height="1.30271" fill="#68C4BA"/>
</g>
<rect x="178.32" y="18.0859" width="141.647" height="21.7975" stroke="#68C4BA"/>
<g clip-path="url(#clip9_79105_5508)">
<rect x="177.82" y="42.9883" width="142.647" height="22.7975" fill="#EDF9F8"/>
<rect x="178.146" y="43.314" width="141.996" height="22.1461" stroke="#BEDCD9" stroke-width="0.651357"/>
<rect x="184.66" y="46.5698" width="3.25678" height="15.6326" fill="#FCFDFD" stroke="#68C4BA" stroke-width="0.651357"/>
<rect x="192.476" y="46.5698" width="3.25678" height="15.6326" fill="#FCFDFD" stroke="#68C4BA" stroke-width="0.651357"/>
<rect x="200.292" y="46.5698" width="3.25678" height="15.6326" fill="#FCFDFD" stroke="#68C4BA" stroke-width="0.651357"/>
<rect x="209.736" y="52.2383" width="104.217" height="1.30271" fill="#68C4BA"/>
<rect x="209.736" y="58.2305" width="104.217" height="1.30271" fill="#68C4BA"/>
<rect x="209.736" y="61.2266" width="104.217" height="1.30271" fill="#68C4BA"/>
<rect x="209.736" y="49.2422" width="104.217" height="1.30271" fill="#68C4BA"/>
<rect x="209.736" y="55.2344" width="104.217" height="1.30271" fill="#68C4BA"/>
<rect x="209.736" y="46.2461" width="104.217" height="1.30271" fill="#68C4BA"/>
</g>
<rect x="178.32" y="43.4883" width="141.647" height="21.7975" stroke="#68C4BA"/>
<g clip-path="url(#clip10_79105_5508)">
<rect x="177.82" y="68.3926" width="142.647" height="22.7975" fill="#EDF9F8"/>
<rect x="178.146" y="68.7183" width="141.996" height="22.1461" stroke="#BEDCD9" stroke-width="0.651357"/>
<rect x="184.66" y="71.9741" width="3.25678" height="15.6326" fill="#FCFDFD" stroke="#68C4BA" stroke-width="0.651357"/>
<rect x="192.476" y="71.9741" width="3.25678" height="15.6326" fill="#FCFDFD" stroke="#68C4BA" stroke-width="0.651357"/>
<rect x="200.292" y="71.9741" width="3.25678" height="15.6326" fill="#FCFDFD" stroke="#68C4BA" stroke-width="0.651357"/>
<rect x="209.736" y="77.6406" width="104.217" height="1.30271" fill="#68C4BA"/>
<rect x="209.736" y="83.6348" width="104.217" height="1.30271" fill="#68C4BA"/>
<rect x="209.736" y="86.6309" width="104.217" height="1.30271" fill="#68C4BA"/>
<rect x="209.736" y="74.6445" width="104.217" height="1.30271" fill="#68C4BA"/>
<rect x="209.736" y="80.6367" width="104.217" height="1.30271" fill="#68C4BA"/>
<rect x="209.736" y="71.6484" width="104.217" height="1.30271" fill="#68C4BA"/>
</g>
<rect x="178.32" y="68.8926" width="141.647" height="21.7975" stroke="#68C4BA"/>
<g clip-path="url(#clip11_79105_5508)">
<rect x="177.82" y="93.7949" width="142.647" height="22.7975" fill="#EDF9F8"/>
<rect x="178.146" y="94.1206" width="141.996" height="22.1461" stroke="#BEDCD9" stroke-width="0.651357"/>
<rect x="184.66" y="97.3765" width="3.25678" height="15.6326" fill="#FCFDFD" stroke="#68C4BA" stroke-width="0.651357"/>
<rect x="192.476" y="97.3765" width="3.25678" height="15.6326" fill="#FCFDFD" stroke="#68C4BA" stroke-width="0.651357"/>
<rect x="200.292" y="97.3765" width="3.25678" height="15.6326" fill="#FCFDFD" stroke="#68C4BA" stroke-width="0.651357"/>
<rect x="209.736" y="103.043" width="104.217" height="1.30271" fill="#68C4BA"/>
<rect x="209.736" y="109.037" width="104.217" height="1.30271" fill="#68C4BA"/>
<rect x="209.736" y="112.033" width="104.217" height="1.30271" fill="#68C4BA"/>
<rect x="209.736" y="100.047" width="104.217" height="1.30271" fill="#68C4BA"/>
<rect x="209.736" y="106.039" width="104.217" height="1.30271" fill="#68C4BA"/>
<rect x="209.736" y="97.0508" width="104.217" height="1.30271" fill="#68C4BA"/>
</g>
<rect x="178.32" y="94.2949" width="141.647" height="21.7975" stroke="#68C4BA"/>
<g clip-path="url(#clip12_79105_5508)">
<rect x="177.82" y="119.197" width="142.647" height="22.7975" fill="#EDF9F8"/>
<rect x="178.146" y="119.523" width="141.996" height="22.1461" stroke="#BEDCD9" stroke-width="0.651357"/>
<rect x="184.66" y="122.779" width="3.25678" height="15.6326" fill="#FCFDFD" stroke="#68C4BA" stroke-width="0.651357"/>
<rect x="192.476" y="122.779" width="3.25678" height="15.6326" fill="#FCFDFD" stroke="#68C4BA" stroke-width="0.651357"/>
<rect x="200.292" y="122.779" width="3.25678" height="15.6326" fill="#FCFDFD" stroke="#68C4BA" stroke-width="0.651357"/>
<rect x="209.736" y="128.445" width="104.217" height="1.30271" fill="#68C4BA"/>
<rect x="209.736" y="134.439" width="104.217" height="1.30271" fill="#68C4BA"/>
<rect x="209.736" y="137.436" width="104.217" height="1.30271" fill="#68C4BA"/>
<rect x="209.736" y="125.449" width="104.217" height="1.30271" fill="#68C4BA"/>
<rect x="209.736" y="131.441" width="104.217" height="1.30271" fill="#68C4BA"/>
<rect x="209.736" y="122.453" width="104.217" height="1.30271" fill="#68C4BA"/>
</g>
<rect x="178.32" y="119.697" width="141.647" height="21.7975" stroke="#68C4BA"/>
<g clip-path="url(#clip13_79105_5508)">
<rect x="177.82" y="144.6" width="142.647" height="22.7975" fill="#EDF9F8"/>
<rect x="178.146" y="144.925" width="141.996" height="22.1461" stroke="#BEDCD9" stroke-width="0.651357"/>
<rect x="184.66" y="148.181" width="3.25678" height="15.6326" fill="#FCFDFD" stroke="#68C4BA" stroke-width="0.651357"/>
<rect x="192.476" y="148.181" width="3.25678" height="15.6326" fill="#FCFDFD" stroke="#68C4BA" stroke-width="0.651357"/>
<rect x="200.292" y="148.181" width="3.25678" height="15.6326" fill="#FCFDFD" stroke="#68C4BA" stroke-width="0.651357"/>
<rect x="209.736" y="153.848" width="104.217" height="1.30271" fill="#68C4BA"/>
<rect x="209.736" y="159.842" width="104.217" height="1.30271" fill="#68C4BA"/>
<rect x="209.736" y="162.838" width="104.217" height="1.30271" fill="#68C4BA"/>
<rect x="209.736" y="150.852" width="104.217" height="1.30271" fill="#68C4BA"/>
<rect x="209.736" y="156.844" width="104.217" height="1.30271" fill="#68C4BA"/>
<rect x="209.736" y="147.855" width="104.217" height="1.30271" fill="#68C4BA"/>
</g>
<rect x="178.32" y="145.1" width="141.647" height="21.7975" stroke="#68C4BA"/>
<g clip-path="url(#clip14_79105_5508)">
<rect x="177.82" y="170.004" width="142.647" height="22.7975" fill="#EDF9F8"/>
<rect x="178.146" y="170.33" width="141.996" height="22.1461" stroke="#BEDCD9" stroke-width="0.651357"/>
<rect x="184.66" y="173.585" width="3.25678" height="15.6326" fill="#FCFDFD" stroke="#68C4BA" stroke-width="0.651357"/>
<rect x="192.476" y="173.585" width="3.25678" height="15.6326" fill="#FCFDFD" stroke="#68C4BA" stroke-width="0.651357"/>
<rect x="200.292" y="173.585" width="3.25678" height="15.6326" fill="#FCFDFD" stroke="#68C4BA" stroke-width="0.651357"/>
<rect x="209.736" y="179.254" width="104.217" height="1.30271" fill="#68C4BA"/>
<rect x="209.736" y="185.246" width="104.217" height="1.30271" fill="#68C4BA"/>
<rect x="209.736" y="188.242" width="104.217" height="1.30271" fill="#68C4BA"/>
<rect x="209.736" y="176.258" width="104.217" height="1.30271" fill="#68C4BA"/>
<rect x="209.736" y="182.25" width="104.217" height="1.30271" fill="#68C4BA"/>
<rect x="209.736" y="173.262" width="104.217" height="1.30271" fill="#68C4BA"/>
</g>
<rect x="178.32" y="170.504" width="141.647" height="21.7975" stroke="#68C4BA"/>
<g clip-path="url(#clip15_79105_5508)">
<rect x="177.82" y="195.406" width="142.647" height="22.7975" fill="#EDF9F8"/>
<rect x="178.146" y="195.732" width="141.996" height="22.1461" stroke="#BEDCD9" stroke-width="0.651357"/>
<rect x="184.66" y="198.988" width="3.25678" height="15.6326" fill="#FCFDFD" stroke="#68C4BA" stroke-width="0.651357"/>
<rect x="192.476" y="198.988" width="3.25678" height="15.6326" fill="#FCFDFD" stroke="#68C4BA" stroke-width="0.651357"/>
<rect x="200.292" y="198.988" width="3.25678" height="15.6326" fill="#FCFDFD" stroke="#68C4BA" stroke-width="0.651357"/>
<rect x="209.736" y="204.656" width="104.217" height="1.30271" fill="#68C4BA"/>
<rect x="209.736" y="210.648" width="104.217" height="1.30271" fill="#68C4BA"/>
<rect x="209.736" y="213.645" width="104.217" height="1.30271" fill="#68C4BA"/>
<rect x="209.736" y="201.66" width="104.217" height="1.30271" fill="#68C4BA"/>
<rect x="209.736" y="207.652" width="104.217" height="1.30271" fill="#68C4BA"/>
<rect x="209.736" y="198.664" width="104.217" height="1.30271" fill="#68C4BA"/>
</g>
<rect x="178.32" y="195.906" width="141.647" height="21.7975" stroke="#68C4BA"/>
<rect x="178.146" y="221.134" width="141.996" height="22.1461" stroke="#BEDCD9" stroke-width="0.651357"/>
<g clip-path="url(#clip16_79105_5508)">
<rect x="338.055" y="17.5859" width="142.647" height="22.7975" fill="#EDF9F8"/>
<rect x="338.38" y="17.9116" width="141.996" height="22.1461" stroke="#BEDCD9" stroke-width="0.651357"/>
<rect x="344.894" y="21.1694" width="3.25678" height="15.6326" fill="#FCFDFD" stroke="#68C4BA" stroke-width="0.651357"/>
<rect x="352.71" y="21.1694" width="3.25678" height="15.6326" fill="#FCFDFD" stroke="#68C4BA" stroke-width="0.651357"/>
<rect x="360.527" y="21.1694" width="3.25678" height="15.6326" fill="#FCFDFD" stroke="#68C4BA" stroke-width="0.651357"/>
<rect x="369.971" y="26.8359" width="104.217" height="1.30271" fill="#68C4BA"/>
<rect x="369.971" y="32.8281" width="104.217" height="1.30271" fill="#68C4BA"/>
<rect x="369.971" y="35.8242" width="104.217" height="1.30271" fill="#68C4BA"/>
<rect x="369.971" y="23.8398" width="104.217" height="1.30271" fill="#68C4BA"/>
<rect x="369.971" y="29.832" width="104.217" height="1.30271" fill="#68C4BA"/>
<rect x="369.971" y="20.8418" width="104.217" height="1.30271" fill="#68C4BA"/>
</g>
<rect x="338.555" y="18.0859" width="141.647" height="21.7975" stroke="#68C4BA"/>
<g clip-path="url(#clip17_79105_5508)">
<rect x="338.055" y="42.9883" width="142.647" height="22.7975" fill="#EDF9F8"/>
<rect x="338.38" y="43.314" width="141.996" height="22.1461" stroke="#BEDCD9" stroke-width="0.651357"/>
<rect x="344.894" y="46.5718" width="3.25678" height="15.6326" fill="#FCFDFD" stroke="#68C4BA" stroke-width="0.651357"/>
<rect x="352.71" y="46.5718" width="3.25678" height="15.6326" fill="#FCFDFD" stroke="#68C4BA" stroke-width="0.651357"/>
<rect x="360.527" y="46.5718" width="3.25678" height="15.6326" fill="#FCFDFD" stroke="#68C4BA" stroke-width="0.651357"/>
<rect x="369.971" y="52.2383" width="104.217" height="1.30271" fill="#68C4BA"/>
<rect x="369.971" y="58.2305" width="104.217" height="1.30271" fill="#68C4BA"/>
<rect x="369.971" y="61.2266" width="104.217" height="1.30271" fill="#68C4BA"/>
<rect x="369.971" y="49.2422" width="104.217" height="1.30271" fill="#68C4BA"/>
<rect x="369.971" y="55.2344" width="104.217" height="1.30271" fill="#68C4BA"/>
<rect x="369.971" y="46.2441" width="104.217" height="1.30271" fill="#68C4BA"/>
</g>
<rect x="338.555" y="43.4883" width="141.647" height="21.7975" stroke="#68C4BA"/>
<g clip-path="url(#clip18_79105_5508)">
<rect x="338.055" y="68.3906" width="142.647" height="22.7975" fill="#EDF9F8"/>
<rect x="338.38" y="68.7163" width="141.996" height="22.1461" stroke="#BEDCD9" stroke-width="0.651357"/>
<rect x="344.894" y="71.9741" width="3.25678" height="15.6326" fill="#FCFDFD" stroke="#68C4BA" stroke-width="0.651357"/>
<rect x="352.71" y="71.9741" width="3.25678" height="15.6326" fill="#FCFDFD" stroke="#68C4BA" stroke-width="0.651357"/>
<rect x="360.527" y="71.9741" width="3.25678" height="15.6326" fill="#FCFDFD" stroke="#68C4BA" stroke-width="0.651357"/>
<rect x="369.971" y="77.6406" width="104.217" height="1.30271" fill="#68C4BA"/>
<rect x="369.971" y="83.6328" width="104.217" height="1.30271" fill="#68C4BA"/>
<rect x="369.971" y="86.6289" width="104.217" height="1.30271" fill="#68C4BA"/>
<rect x="369.971" y="74.6445" width="104.217" height="1.30271" fill="#68C4BA"/>
<rect x="369.971" y="80.6367" width="104.217" height="1.30271" fill="#68C4BA"/>
<rect x="369.971" y="71.6465" width="104.217" height="1.30271" fill="#68C4BA"/>
</g>
<rect x="338.555" y="68.8906" width="141.647" height="21.7975" stroke="#68C4BA"/>
<g clip-path="url(#clip19_79105_5508)">
<rect x="338.055" y="93.7949" width="142.647" height="22.7975" fill="#EDF9F8"/>
<rect x="338.38" y="94.1206" width="141.996" height="22.1461" stroke="#BEDCD9" stroke-width="0.651357"/>
<rect x="344.894" y="97.3765" width="3.25678" height="15.6326" fill="#FCFDFD" stroke="#68C4BA" stroke-width="0.651357"/>
<rect x="352.71" y="97.3765" width="3.25678" height="15.6326" fill="#FCFDFD" stroke="#68C4BA" stroke-width="0.651357"/>
<rect x="360.527" y="97.3765" width="3.25678" height="15.6326" fill="#FCFDFD" stroke="#68C4BA" stroke-width="0.651357"/>
<rect x="369.971" y="103.043" width="104.217" height="1.30271" fill="#68C4BA"/>
<rect x="369.971" y="109.037" width="104.217" height="1.30271" fill="#68C4BA"/>
<rect x="369.971" y="112.033" width="104.217" height="1.30271" fill="#68C4BA"/>
<rect x="369.971" y="100.049" width="104.217" height="1.30271" fill="#68C4BA"/>
<rect x="369.971" y="106.039" width="104.217" height="1.30271" fill="#68C4BA"/>
<rect x="369.971" y="97.0508" width="104.217" height="1.30271" fill="#68C4BA"/>
</g>
<rect x="338.555" y="94.2949" width="141.647" height="21.7975" stroke="#68C4BA"/>
<g clip-path="url(#clip20_79105_5508)">
<rect x="338.055" y="119.197" width="142.647" height="22.7975" fill="#EDF9F8"/>
<rect x="338.38" y="119.523" width="141.996" height="22.1461" stroke="#BEDCD9" stroke-width="0.651357"/>
<rect x="344.894" y="122.779" width="3.25678" height="15.6326" fill="#FCFDFD" stroke="#68C4BA" stroke-width="0.651357"/>
<rect x="352.71" y="122.779" width="3.25678" height="15.6326" fill="#FCFDFD" stroke="#68C4BA" stroke-width="0.651357"/>
<rect x="360.527" y="122.779" width="3.25678" height="15.6326" fill="#FCFDFD" stroke="#68C4BA" stroke-width="0.651357"/>
<rect x="369.971" y="128.445" width="104.217" height="1.30271" fill="#68C4BA"/>
<rect x="369.971" y="134.439" width="104.217" height="1.30271" fill="#68C4BA"/>
<rect x="369.971" y="137.436" width="104.217" height="1.30271" fill="#68C4BA"/>
<rect x="369.971" y="125.451" width="104.217" height="1.30271" fill="#68C4BA"/>
<rect x="369.971" y="131.441" width="104.217" height="1.30271" fill="#68C4BA"/>
<rect x="369.971" y="122.453" width="104.217" height="1.30271" fill="#68C4BA"/>
</g>
<rect x="338.555" y="119.697" width="141.647" height="21.7975" stroke="#68C4BA"/>
<g clip-path="url(#clip21_79105_5508)">
<rect x="338.055" y="144.602" width="142.647" height="22.7975" fill="#EDF9F8"/>
<rect x="338.38" y="144.927" width="141.996" height="22.1461" stroke="#BEDCD9" stroke-width="0.651357"/>
<rect x="344.894" y="148.185" width="3.25678" height="15.6326" fill="#FCFDFD" stroke="#68C4BA" stroke-width="0.651357"/>
<rect x="352.71" y="148.185" width="3.25678" height="15.6326" fill="#FCFDFD" stroke="#68C4BA" stroke-width="0.651357"/>
<rect x="360.527" y="148.185" width="3.25678" height="15.6326" fill="#FCFDFD" stroke="#68C4BA" stroke-width="0.651357"/>
<rect x="369.971" y="153.852" width="104.217" height="1.30271" fill="#68C4BA"/>
<rect x="369.971" y="159.844" width="104.217" height="1.30271" fill="#68C4BA"/>
<rect x="369.971" y="162.84" width="104.217" height="1.30271" fill="#68C4BA"/>
<rect x="369.971" y="150.855" width="104.217" height="1.30271" fill="#68C4BA"/>
<rect x="369.971" y="156.848" width="104.217" height="1.30271" fill="#68C4BA"/>
<rect x="369.971" y="147.857" width="104.217" height="1.30271" fill="#68C4BA"/>
</g>
<rect x="338.555" y="145.102" width="141.647" height="21.7975" stroke="#68C4BA"/>
<g clip-path="url(#clip22_79105_5508)">
<rect x="338.055" y="170.004" width="142.647" height="22.7975" fill="#EDF9F8"/>
<rect x="338.38" y="170.33" width="141.996" height="22.1461" stroke="#BEDCD9" stroke-width="0.651357"/>
<rect x="344.894" y="173.587" width="3.25678" height="15.6326" fill="#FCFDFD" stroke="#68C4BA" stroke-width="0.651357"/>
<rect x="352.71" y="173.587" width="3.25678" height="15.6326" fill="#FCFDFD" stroke="#68C4BA" stroke-width="0.651357"/>
<rect x="360.527" y="173.587" width="3.25678" height="15.6326" fill="#FCFDFD" stroke="#68C4BA" stroke-width="0.651357"/>
<rect x="369.971" y="179.254" width="104.217" height="1.30271" fill="#68C4BA"/>
<rect x="369.971" y="185.246" width="104.217" height="1.30271" fill="#68C4BA"/>
<rect x="369.971" y="188.242" width="104.217" height="1.30271" fill="#68C4BA"/>
<rect x="369.971" y="176.258" width="104.217" height="1.30271" fill="#68C4BA"/>
<rect x="369.971" y="182.25" width="104.217" height="1.30271" fill="#68C4BA"/>
<rect x="369.971" y="173.26" width="104.217" height="1.30271" fill="#68C4BA"/>
</g>
<rect x="338.555" y="170.504" width="141.647" height="21.7975" stroke="#68C4BA"/>
<g clip-path="url(#clip23_79105_5508)">
<rect x="338.055" y="195.406" width="142.647" height="22.7975" fill="#EDF9F8"/>
<rect x="338.38" y="195.732" width="141.996" height="22.1461" stroke="#BEDCD9" stroke-width="0.651357"/>
<rect x="344.894" y="198.99" width="3.25678" height="15.6326" fill="#FCFDFD" stroke="#68C4BA" stroke-width="0.651357"/>
<rect x="352.71" y="198.99" width="3.25678" height="15.6326" fill="#FCFDFD" stroke="#68C4BA" stroke-width="0.651357"/>
<rect x="360.527" y="198.99" width="3.25678" height="15.6326" fill="#FCFDFD" stroke="#68C4BA" stroke-width="0.651357"/>
<rect x="369.971" y="204.656" width="104.217" height="1.30271" fill="#68C4BA"/>
<rect x="369.971" y="210.648" width="104.217" height="1.30271" fill="#68C4BA"/>
<rect x="369.971" y="213.645" width="104.217" height="1.30271" fill="#68C4BA"/>
<rect x="369.971" y="201.66" width="104.217" height="1.30271" fill="#68C4BA"/>
<rect x="369.971" y="207.652" width="104.217" height="1.30271" fill="#68C4BA"/>
<rect x="369.971" y="198.662" width="104.217" height="1.30271" fill="#68C4BA"/>
</g>
<rect x="338.555" y="195.906" width="141.647" height="21.7975" stroke="#68C4BA"/>
<rect x="338.38" y="221.134" width="141.996" height="22.1461" stroke="#BEDCD9" stroke-width="0.651357"/>
<defs>
<clipPath id="clip0_79105_5508">
<rect x="17.5859" y="17.5859" width="142.647" height="22.7975" fill="white"/>
</clipPath>
<clipPath id="clip1_79105_5508">
<rect x="17.5859" y="42.9883" width="142.647" height="22.7975" fill="white"/>
</clipPath>
<clipPath id="clip2_79105_5508">
<rect x="17.5859" y="68.3906" width="142.647" height="22.7975" fill="white"/>
</clipPath>
<clipPath id="clip3_79105_5508">
<rect x="17.5859" y="93.7949" width="142.647" height="22.7975" fill="white"/>
</clipPath>
<clipPath id="clip4_79105_5508">
<rect x="17.5859" y="119.197" width="142.647" height="22.7975" fill="white"/>
</clipPath>
<clipPath id="clip5_79105_5508">
<rect x="17.5859" y="144.602" width="142.647" height="22.7975" fill="white"/>
</clipPath>
<clipPath id="clip6_79105_5508">
<rect x="17.5859" y="170.004" width="142.647" height="22.7975" fill="white"/>
</clipPath>
<clipPath id="clip7_79105_5508">
<rect x="17.5859" y="195.406" width="142.647" height="22.7975" fill="white"/>
</clipPath>
<clipPath id="clip8_79105_5508">
<rect x="177.82" y="17.5859" width="142.647" height="22.7975" fill="white"/>
</clipPath>
<clipPath id="clip9_79105_5508">
<rect x="177.82" y="42.9883" width="142.647" height="22.7975" fill="white"/>
</clipPath>
<clipPath id="clip10_79105_5508">
<rect x="177.82" y="68.3926" width="142.647" height="22.7975" fill="white"/>
</clipPath>
<clipPath id="clip11_79105_5508">
<rect x="177.82" y="93.7949" width="142.647" height="22.7975" fill="white"/>
</clipPath>
<clipPath id="clip12_79105_5508">
<rect x="177.82" y="119.197" width="142.647" height="22.7975" fill="white"/>
</clipPath>
<clipPath id="clip13_79105_5508">
<rect x="177.82" y="144.6" width="142.647" height="22.7975" fill="white"/>
</clipPath>
<clipPath id="clip14_79105_5508">
<rect x="177.82" y="170.004" width="142.647" height="22.7975" fill="white"/>
</clipPath>
<clipPath id="clip15_79105_5508">
<rect x="177.82" y="195.406" width="142.647" height="22.7975" fill="white"/>
</clipPath>
<clipPath id="clip16_79105_5508">
<rect x="338.055" y="17.5859" width="142.647" height="22.7975" fill="white"/>
</clipPath>
<clipPath id="clip17_79105_5508">
<rect x="338.055" y="42.9883" width="142.647" height="22.7975" fill="white"/>
</clipPath>
<clipPath id="clip18_79105_5508">
<rect x="338.055" y="68.3906" width="142.647" height="22.7975" fill="white"/>
</clipPath>
<clipPath id="clip19_79105_5508">
<rect x="338.055" y="93.7949" width="142.647" height="22.7975" fill="white"/>
</clipPath>
<clipPath id="clip20_79105_5508">
<rect x="338.055" y="119.197" width="142.647" height="22.7975" fill="white"/>
</clipPath>
<clipPath id="clip21_79105_5508">
<rect x="338.055" y="144.602" width="142.647" height="22.7975" fill="white"/>
</clipPath>
<clipPath id="clip22_79105_5508">
<rect x="338.055" y="170.004" width="142.647" height="22.7975" fill="white"/>
</clipPath>
<clipPath id="clip23_79105_5508">
<rect x="338.055" y="195.406" width="142.647" height="22.7975" fill="white"/>
</clipPath>
</defs>
</svg>
