<svg width="277" height="221" viewBox="0 0 277 221" fill="none" xmlns="http://www.w3.org/2000/svg">
<mask id="path-1-inside-1_78797_3905" fill="white">
<path d="M384.002 193L384.002 204L128.002 204L128.002 193L384.002 193Z"/>
</mask>
<path d="M384.002 193L384.002 204L128.002 204L128.002 193L384.002 193Z" fill="#FCFDFD"/>
<path d="M384.002 193L385.002 193L385.002 192L384.002 192L384.002 193ZM384.002 204L384.002 205L385.002 205L385.002 204L384.002 204ZM384.002 193L383.002 193L383.002 204L384.002 204L385.002 204L385.002 193L384.002 193ZM384.002 204L384.002 203L128.002 203L128.002 204L128.002 205L384.002 205L384.002 204ZM128.002 193L128.002 194L384.002 194L384.002 193L384.002 192L128.002 192L128.002 193Z" fill="#68C4BA" mask="url(#path-1-inside-1_78797_3905)"/>
<mask id="path-3-inside-2_78797_3905" fill="white">
<path d="M128.424 204H28.6768V204.323H4.98633V144.475H27.4238V85H128.424V204Z"/>
</mask>
<path d="M128.424 204H28.6768V204.323H4.98633V144.475H27.4238V85H128.424V204Z" fill="#EDF9F8"/>
<path d="M128.424 204V205H129.424V204H128.424ZM28.6768 204V203H27.6768V204H28.6768ZM28.6768 204.323V205.323H29.6768V204.323H28.6768ZM4.98633 204.323H3.98633V205.323H4.98633V204.323ZM4.98633 144.475V143.475H3.98633V144.475H4.98633ZM27.4238 144.475V145.475H28.4238V144.475H27.4238ZM27.4238 85V84H26.4238V85H27.4238ZM128.424 85H129.424V84H128.424V85ZM128.424 204V203H28.6768V204V205H128.424V204ZM28.6768 204H27.6768V204.323H28.6768H29.6768V204H28.6768ZM28.6768 204.323V203.323H4.98633V204.323V205.323H28.6768V204.323ZM4.98633 204.323H5.98633V144.475H4.98633H3.98633V204.323H4.98633ZM4.98633 144.475V145.475H27.4238V144.475V143.475H4.98633V144.475ZM27.4238 144.475H28.4238V85H27.4238H26.4238V144.475H27.4238ZM27.4238 85V86H128.424V85V84H27.4238V85ZM128.424 85H127.424V204H128.424H129.424V85H128.424Z" fill="#68C4BA" mask="url(#path-3-inside-2_78797_3905)"/>
<rect x="88.0293" y="94.6074" width="41.3924" height="51.3671" rx="12.5" transform="rotate(90 88.0293 94.6074)" fill="#FCFDFD" stroke="#68C4BA"/>
<rect x="135.502" y="0.5" width="248" height="186" fill="#BEDCD9" stroke="#68C4BA"/>
<mask id="path-7-inside-3_78797_3905" fill="white">
<path d="M6 153H16V189H6V153Z"/>
</mask>
<path d="M6 153H16V189H6V153Z" fill="#FCFDFD"/>
<path d="M16 153H17V152H16V153ZM16 189V190H17V189H16ZM6 153V154H16V153V152H6V153ZM16 153H15V189H16H17V153H16ZM16 189V188H6V189V190H16V189Z" fill="#68C4BA" mask="url(#path-7-inside-3_78797_3905)"/>
<rect x="31.918" y="194.848" width="10.2215" height="31.4177" transform="rotate(90 31.918 194.848)" fill="#EDF9F8" stroke="#68C4BA"/>
<rect x="243.883" y="193.602" width="25.1835" height="67.576" transform="rotate(90 243.883 193.602)" fill="#EDF9F8" stroke="#68C4BA"/>
<rect x="228.92" y="193.602" width="25.1835" height="40.1456" transform="rotate(90 228.92 193.602)" fill="#EDF9F8" stroke="#68C4BA"/>
<circle cx="71.0691" cy="205.569" r="26.9304" fill="#EDF9F8" stroke="#68C4BA"/>
<circle cx="71.0707" cy="205.569" r="13.2152" fill="#FCFDFD" stroke="#68C4BA"/>
</svg>
