<svg width="405" height="349" viewBox="0 0 405 349" fill="none" xmlns="http://www.w3.org/2000/svg">
<rect y="0.499967" width="317.259" height="605.706" transform="matrix(0.866044 0.499967 -0.866044 0.499967 453.72 0.25)" fill="#BEDCD9" stroke="#68C4BA"/>
<rect y="0.499967" width="184.62" height="111.178" transform="matrix(0.866044 0.499967 -0.866044 0.499967 219.583 192.957)" fill="#F5F5F4" stroke="#BEDCD9"/>
<rect y="0.499967" width="184.62" height="111.178" transform="matrix(0.866044 0.499967 -0.866044 0.499967 219.583 189.961)" fill="#F5F5F4" stroke="#BEDCD9"/>
<rect y="0.499967" width="184.62" height="111.178" transform="matrix(0.866044 0.499967 -0.866044 0.499967 219.583 186.965)" fill="#F5F5F4" stroke="#BEDCD9"/>
<rect y="0.499967" width="184.62" height="111.178" transform="matrix(0.866044 0.499967 -0.866044 0.499967 219.583 183.971)" fill="#F5F5F4" stroke="#BEDCD9"/>
<rect y="0.499967" width="184.62" height="111.178" transform="matrix(0.866044 0.499967 -0.866044 0.499967 219.583 180.975)" fill="#F5F5F4" stroke="#BEDCD9"/>
<rect y="0.499967" width="184.62" height="111.178" transform="matrix(0.866044 0.499967 -0.866044 0.499967 219.583 177.979)" fill="#F5F5F4" stroke="#BEDCD9"/>
<rect y="0.499967" width="184.62" height="111.178" transform="matrix(0.866044 0.499967 -0.866044 0.499967 219.583 174.982)" fill="#F5F5F4" stroke="#BEDCD9"/>
<rect y="0.499967" width="184.62" height="111.178" transform="matrix(0.866044 0.499967 -0.866044 0.499967 219.583 172.25)" fill="#F5F5F4" stroke="#BEDCD9"/>
<rect y="0.499967" width="184.62" height="111.178" transform="matrix(0.866044 0.499967 -0.866044 0.499967 219.583 169.256)" fill="#F5F5F4" stroke="#BEDCD9"/>
<rect y="0.499967" width="184.62" height="111.178" transform="matrix(0.866044 0.499967 -0.866044 0.499967 219.583 166.26)" fill="#F5F5F4" stroke="#BEDCD9"/>
<rect y="0.499967" width="184.62" height="111.178" transform="matrix(0.866044 0.499967 -0.866044 0.499967 219.583 163.264)" fill="#F5F5F4" stroke="#BEDCD9"/>
<rect y="0.499967" width="184.62" height="111.178" transform="matrix(0.866044 0.499967 -0.866044 0.499967 219.583 160.27)" fill="#F5F5F4" stroke="#BEDCD9"/>
<rect y="0.499967" width="184.62" height="111.178" transform="matrix(0.866044 0.499967 -0.866044 0.499967 219.583 157.273)" fill="#F5F5F4" stroke="#BEDCD9"/>
<rect y="0.499967" width="184.62" height="111.178" transform="matrix(0.866044 0.499967 -0.866044 0.499967 219.583 154.277)" fill="#F5F5F4" stroke="#BEDCD9"/>
<rect y="0.499967" width="184.62" height="111.178" transform="matrix(0.866044 0.499967 -0.866044 0.499967 219.583 151.283)" fill="white" stroke="#BEDCD9"/>
<path d="M277.795 209.507C290.855 217.047 289.457 230.187 274.434 238.859C259.41 247.532 236.65 248.34 223.589 240.8C210.528 233.26 211.927 220.12 226.95 211.447C241.973 202.774 264.734 201.967 277.795 209.507Z" fill="#F5F5F4" stroke="#68C4BA"/>
<path d="M265.718 216.366L266.338 217.766L266.957 219.164L267.578 220.564L268.197 221.963L268.818 223.362L269.437 224.761L270.057 226.16L270.676 227.56L271.296 228.958L271.297 228.959L271.917 230.358L272.454 231.57L270.584 231.75L263.99 232.385L262.069 232.57L261.518 231.328L260.899 229.929L260.279 228.53L259.659 227.13L258.42 224.332L257.8 222.933L257.18 221.534L257.016 221.163L256.971 221.061L256.795 221.035L256.152 220.94L253.728 220.582L251.304 220.225L248.88 219.866L246.458 219.509L244.033 219.151L241.61 218.793L239.186 218.435L237.035 218.117L237.356 217.009L238.088 214.471L238.454 213.202L238.765 212.123L240.867 212.433L243.29 212.791L245.714 213.149L248.138 213.506L250.561 213.864L252.985 214.222L255.409 214.58L257.833 214.937L262.679 215.653L265.103 216.011L265.593 216.083L265.718 216.366Z" fill="white" stroke="#68C4BA" stroke-width="0.5"/>
<path d="M255.009 223.232L255.629 224.631L256.248 226.031L256.868 227.43L257.488 228.828L258.726 231.627L258.727 231.627L259.265 232.839L252.998 233.443L250.801 233.654L248.88 233.838L248.331 232.597L247.71 231.197L247.09 229.798L246.471 228.399L246.065 227.484L246.02 227.383L245.844 227.357L244.26 227.123L241.835 226.765L236.989 226.049L236.988 226.049L234.838 225.731L235.157 224.622L235.523 223.354L236.568 219.736L238.668 220.047L241.092 220.404L243.517 220.762L245.938 221.12L248.363 221.478L250.787 221.836L253.211 222.194L254.642 222.404L255.009 223.232Z" fill="white" stroke="#68C4BA" stroke-width="0.5"/>
<path d="M244.297 230.099L244.918 231.498L245.537 232.897L246.074 234.11L244.205 234.29L242.008 234.501L242.007 234.501L239.809 234.712L239.808 234.713L237.888 234.897L237.338 233.656L237.337 233.656L236.938 232.753L236.893 232.652L236.717 232.626L235.154 232.396L233.004 232.078L233.324 230.97L233.325 230.969L233.69 229.7L234.056 228.431L234.368 227.352L236.469 227.662L238.893 228.02L241.317 228.378L243.691 228.728L244.297 230.099Z" fill="white" stroke="#68C4BA" stroke-width="0.5"/>
<path d="M265.768 215.982L256.785 221.168" stroke="#68C4BA" stroke-width="0.5"/>
<path d="M254.818 222.303L245.813 227.501" stroke="#68C4BA" stroke-width="0.5"/>
<path d="M243.881 228.617L236.672 232.779" stroke="#68C4BA" stroke-width="0.5"/>
<rect y="0.499967" width="184.62" height="111.178" transform="matrix(0.866044 0.499967 -0.866044 0.499967 334.583 126.957)" fill="#F5F5F4" stroke="#BEDCD9"/>
<rect y="0.499967" width="184.62" height="111.178" transform="matrix(0.866044 0.499967 -0.866044 0.499967 334.583 123.961)" fill="#F5F5F4" stroke="#BEDCD9"/>
<rect y="0.499967" width="184.62" height="111.178" transform="matrix(0.866044 0.499967 -0.866044 0.499967 334.583 120.965)" fill="#F5F5F4" stroke="#BEDCD9"/>
<rect y="0.499967" width="184.62" height="111.178" transform="matrix(0.866044 0.499967 -0.866044 0.499967 334.583 117.971)" fill="#F5F5F4" stroke="#BEDCD9"/>
<rect y="0.499967" width="184.62" height="111.178" transform="matrix(0.866044 0.499967 -0.866044 0.499967 334.583 114.975)" fill="#F5F5F4" stroke="#BEDCD9"/>
<rect y="0.499967" width="184.62" height="111.178" transform="matrix(0.866044 0.499967 -0.866044 0.499967 334.583 111.979)" fill="#F5F5F4" stroke="#BEDCD9"/>
<rect y="0.499967" width="184.62" height="111.178" transform="matrix(0.866044 0.499967 -0.866044 0.499967 334.583 108.982)" fill="#F5F5F4" stroke="#BEDCD9"/>
<rect y="0.499967" width="184.62" height="111.178" transform="matrix(0.866044 0.499967 -0.866044 0.499967 334.583 106.25)" fill="#F5F5F4" stroke="#BEDCD9"/>
<rect y="0.499967" width="184.62" height="111.178" transform="matrix(0.866044 0.499967 -0.866044 0.499967 334.583 103.256)" fill="#F5F5F4" stroke="#BEDCD9"/>
<rect y="0.499967" width="184.62" height="111.178" transform="matrix(0.866044 0.499967 -0.866044 0.499967 334.583 100.26)" fill="#F5F5F4" stroke="#BEDCD9"/>
<rect y="0.499967" width="184.62" height="111.178" transform="matrix(0.866044 0.499967 -0.866044 0.499967 334.583 97.2637)" fill="#F5F5F4" stroke="#BEDCD9"/>
<rect y="0.499967" width="184.62" height="111.178" transform="matrix(0.866044 0.499967 -0.866044 0.499967 334.583 94.2695)" fill="#F5F5F4" stroke="#BEDCD9"/>
<rect y="0.499967" width="184.62" height="111.178" transform="matrix(0.866044 0.499967 -0.866044 0.499967 334.583 91.2734)" fill="#F5F5F4" stroke="#BEDCD9"/>
<rect y="0.499967" width="184.62" height="111.178" transform="matrix(0.866044 0.499967 -0.866044 0.499967 334.583 88.2773)" fill="#F5F5F4" stroke="#BEDCD9"/>
<rect y="0.499967" width="184.62" height="111.178" transform="matrix(0.866044 0.499967 -0.866044 0.499967 334.583 85.2832)" fill="#FCFDFD" stroke="#BEDCD9"/>
<path d="M392.795 143.507C405.855 151.047 404.457 164.187 389.434 172.859C374.41 181.532 351.65 182.34 338.589 174.8C325.528 167.26 326.927 154.12 341.95 145.447C356.973 136.774 379.734 135.967 392.795 143.507Z" fill="#EDF9F8" stroke="#68C4BA"/>
<path d="M380.718 150.366L381.338 151.766L381.957 153.164L382.578 154.564L383.197 155.963L383.818 157.362L384.437 158.761L385.057 160.16L385.676 161.56L386.296 162.958L386.297 162.959L386.917 164.358L387.454 165.57L385.584 165.75L378.99 166.385L377.069 166.57L376.518 165.328L375.899 163.929L375.279 162.53L374.659 161.13L373.42 158.332L372.8 156.933L372.18 155.534L372.016 155.163L371.971 155.061L371.795 155.035L371.152 154.94L368.728 154.582L366.304 154.225L363.88 153.866L361.458 153.509L359.033 153.151L356.61 152.793L354.186 152.435L352.035 152.117L352.356 151.009L353.088 148.471L353.454 147.202L353.765 146.123L355.867 146.433L358.29 146.791L360.714 147.149L363.138 147.506L365.561 147.864L367.985 148.222L370.409 148.58L372.833 148.937L377.679 149.653L380.103 150.011L380.593 150.083L380.718 150.366Z" fill="#FCFDFD" stroke="#68C4BA" stroke-width="0.5"/>
<path d="M370.009 157.232L370.629 158.631L371.248 160.031L371.868 161.43L372.488 162.828L373.726 165.627L373.727 165.627L374.265 166.839L367.998 167.443L365.801 167.654L363.88 167.838L363.331 166.597L362.71 165.197L362.09 163.798L361.471 162.399L361.065 161.484L361.02 161.383L360.844 161.357L359.26 161.123L356.835 160.765L351.989 160.049L351.988 160.049L349.838 159.731L350.157 158.622L350.523 157.354L351.568 153.736L353.668 154.047L356.092 154.404L358.517 154.762L360.938 155.12L363.363 155.478L365.787 155.836L368.211 156.194L369.642 156.404L370.009 157.232Z" fill="#FCFDFD" stroke="#68C4BA" stroke-width="0.5"/>
<path d="M359.297 164.099L359.918 165.498L360.537 166.897L361.074 168.11L359.205 168.29L357.008 168.501L357.007 168.501L354.809 168.712L354.808 168.713L352.888 168.897L352.338 167.656L352.337 167.656L351.938 166.753L351.893 166.652L351.717 166.626L350.154 166.396L348.004 166.078L348.324 164.97L348.325 164.969L348.69 163.7L349.056 162.431L349.368 161.352L351.469 161.662L353.893 162.02L356.317 162.378L358.691 162.728L359.297 164.099Z" fill="#FCFDFD" stroke="#68C4BA" stroke-width="0.5"/>
<path d="M380.768 149.982L371.785 155.168" stroke="#68C4BA" stroke-width="0.5"/>
<path d="M369.818 156.303L360.813 161.501" stroke="#68C4BA" stroke-width="0.5"/>
<path d="M358.881 162.617L351.672 166.779" stroke="#68C4BA" stroke-width="0.5"/>
<rect y="0.499967" width="184.62" height="111.178" transform="matrix(0.866044 0.499967 -0.866044 0.499967 219.583 192.957)" fill="#F5F5F4" stroke="#BEDCD9"/>
<rect y="0.499967" width="184.62" height="111.178" transform="matrix(0.866044 0.499967 -0.866044 0.499967 219.583 189.961)" fill="#F5F5F4" stroke="#BEDCD9"/>
<rect y="0.499967" width="184.62" height="111.178" transform="matrix(0.866044 0.499967 -0.866044 0.499967 219.583 186.965)" fill="#F5F5F4" stroke="#BEDCD9"/>
<rect y="0.499967" width="184.62" height="111.178" transform="matrix(0.866044 0.499967 -0.866044 0.499967 219.583 183.971)" fill="#F5F5F4" stroke="#BEDCD9"/>
<rect y="0.499967" width="184.62" height="111.178" transform="matrix(0.866044 0.499967 -0.866044 0.499967 219.583 180.975)" fill="#F5F5F4" stroke="#BEDCD9"/>
<rect y="0.499967" width="184.62" height="111.178" transform="matrix(0.866044 0.499967 -0.866044 0.499967 219.583 177.979)" fill="#F5F5F4" stroke="#BEDCD9"/>
<rect y="0.499967" width="184.62" height="111.178" transform="matrix(0.866044 0.499967 -0.866044 0.499967 219.583 174.982)" fill="#F5F5F4" stroke="#BEDCD9"/>
<rect y="0.499967" width="184.62" height="111.178" transform="matrix(0.866044 0.499967 -0.866044 0.499967 219.583 172.25)" fill="#F5F5F4" stroke="#BEDCD9"/>
<rect y="0.499967" width="184.62" height="111.178" transform="matrix(0.866044 0.499967 -0.866044 0.499967 219.583 169.256)" fill="#F5F5F4" stroke="#BEDCD9"/>
<rect y="0.499967" width="184.62" height="111.178" transform="matrix(0.866044 0.499967 -0.866044 0.499967 219.583 166.26)" fill="#F5F5F4" stroke="#BEDCD9"/>
<rect y="0.499967" width="184.62" height="111.178" transform="matrix(0.866044 0.499967 -0.866044 0.499967 219.583 163.264)" fill="#F5F5F4" stroke="#BEDCD9"/>
<rect y="0.499967" width="184.62" height="111.178" transform="matrix(0.866044 0.499967 -0.866044 0.499967 219.583 160.27)" fill="#F5F5F4" stroke="#BEDCD9"/>
<rect y="0.499967" width="184.62" height="111.178" transform="matrix(0.866044 0.499967 -0.866044 0.499967 219.583 157.273)" fill="#F5F5F4" stroke="#BEDCD9"/>
<rect y="0.499967" width="184.62" height="111.178" transform="matrix(0.866044 0.499967 -0.866044 0.499967 219.583 154.277)" fill="#F5F5F4" stroke="#BEDCD9"/>
<rect y="0.499967" width="184.62" height="111.178" transform="matrix(0.866044 0.499967 -0.866044 0.499967 219.583 151.283)" fill="#FCFDFD" stroke="#BEDCD9"/>
<path d="M277.795 209.507C290.855 217.047 289.457 230.187 274.434 238.859C259.41 247.532 236.65 248.34 223.589 240.8C210.528 233.26 211.927 220.12 226.95 211.447C241.973 202.774 264.734 201.967 277.795 209.507Z" fill="#EDF9F8" stroke="#68C4BA"/>
<path d="M265.716 216.366L266.336 217.766L266.955 219.164L267.576 220.564L268.195 221.963L268.816 223.362L269.435 224.761L270.055 226.16L270.674 227.56L271.294 228.958L271.295 228.959L271.915 230.358L272.452 231.57L270.582 231.75L263.988 232.385L262.067 232.57L261.516 231.328L260.897 229.929L260.277 228.53L259.657 227.13L258.418 224.332L257.798 222.933L257.178 221.534L257.014 221.163L256.969 221.061L256.793 221.035L256.15 220.94L253.726 220.582L251.302 220.225L248.878 219.866L246.456 219.509L244.031 219.151L241.608 218.793L239.184 218.435L237.033 218.117L237.354 217.009L238.086 214.471L238.452 213.202L238.763 212.123L240.865 212.433L243.288 212.791L245.712 213.149L248.136 213.506L250.559 213.864L252.983 214.222L255.407 214.58L257.831 214.937L262.677 215.653L265.101 216.011L265.591 216.083L265.716 216.366Z" fill="#FCFDFD" stroke="#68C4BA" stroke-width="0.5"/>
<path d="M255.007 223.232L255.627 224.631L256.247 226.031L256.866 227.43L257.486 228.828L258.725 231.627L258.725 231.627L259.263 232.839L252.996 233.443L250.799 233.654L248.878 233.838L248.329 232.597L247.708 231.197L247.088 229.798L246.469 228.399L246.063 227.484L246.018 227.383L245.842 227.357L244.258 227.123L241.833 226.765L236.987 226.049L236.986 226.049L234.836 225.731L235.155 224.622L235.521 223.354L236.566 219.736L238.666 220.047L241.09 220.404L243.515 220.762L245.936 221.12L248.361 221.478L250.785 221.836L253.209 222.194L254.64 222.404L255.007 223.232Z" fill="#FCFDFD" stroke="#68C4BA" stroke-width="0.5"/>
<path d="M244.295 230.099L244.916 231.498L245.535 232.897L246.072 234.11L244.203 234.29L242.006 234.501L242.005 234.501L239.807 234.712L239.806 234.713L237.886 234.897L237.336 233.656L237.335 233.656L236.936 232.753L236.891 232.652L236.715 232.626L235.152 232.396L233.002 232.078L233.322 230.97L233.323 230.969L233.688 229.7L234.054 228.431L234.366 227.352L236.467 227.662L238.891 228.02L241.315 228.378L243.689 228.728L244.295 230.099Z" fill="#FCFDFD" stroke="#68C4BA" stroke-width="0.5"/>
<path d="M265.766 215.982L256.783 221.168" stroke="#68C4BA" stroke-width="0.5"/>
<path d="M254.816 222.303L245.811 227.501" stroke="#68C4BA" stroke-width="0.5"/>
<path d="M243.879 228.617L236.67 232.779" stroke="#68C4BA" stroke-width="0.5"/>
<rect y="0.499967" width="184.62" height="111.178" transform="matrix(0.866044 0.499967 -0.866044 0.499967 106.585 262.957)" fill="#F5F5F4" stroke="#BEDCD9"/>
<rect y="0.499967" width="184.62" height="111.178" transform="matrix(0.866044 0.499967 -0.866044 0.499967 106.585 259.961)" fill="#F5F5F4" stroke="#BEDCD9"/>
<rect y="0.499967" width="184.62" height="111.178" transform="matrix(0.866044 0.499967 -0.866044 0.499967 106.585 256.965)" fill="#F5F5F4" stroke="#BEDCD9"/>
<rect y="0.499967" width="184.62" height="111.178" transform="matrix(0.866044 0.499967 -0.866044 0.499967 106.585 253.971)" fill="#F5F5F4" stroke="#BEDCD9"/>
<rect y="0.499967" width="184.62" height="111.178" transform="matrix(0.866044 0.499967 -0.866044 0.499967 106.585 250.975)" fill="#F5F5F4" stroke="#BEDCD9"/>
<rect y="0.499967" width="184.62" height="111.178" transform="matrix(0.866044 0.499967 -0.866044 0.499967 106.585 247.979)" fill="#F5F5F4" stroke="#BEDCD9"/>
<rect y="0.499967" width="184.62" height="111.178" transform="matrix(0.866044 0.499967 -0.866044 0.499967 106.585 244.982)" fill="#F5F5F4" stroke="#BEDCD9"/>
<rect y="0.499967" width="184.62" height="111.178" transform="matrix(0.866044 0.499967 -0.866044 0.499967 106.585 242.25)" fill="#F5F5F4" stroke="#BEDCD9"/>
<rect y="0.499967" width="184.62" height="111.178" transform="matrix(0.866044 0.499967 -0.866044 0.499967 106.585 239.256)" fill="#F5F5F4" stroke="#BEDCD9"/>
<rect y="0.499967" width="184.62" height="111.178" transform="matrix(0.866044 0.499967 -0.866044 0.499967 106.585 236.26)" fill="#F5F5F4" stroke="#BEDCD9"/>
<rect y="0.499967" width="184.62" height="111.178" transform="matrix(0.866044 0.499967 -0.866044 0.499967 106.585 233.264)" fill="#F5F5F4" stroke="#BEDCD9"/>
<rect y="0.499967" width="184.62" height="111.178" transform="matrix(0.866044 0.499967 -0.866044 0.499967 106.585 230.27)" fill="#F5F5F4" stroke="#BEDCD9"/>
<rect y="0.499967" width="184.62" height="111.178" transform="matrix(0.866044 0.499967 -0.866044 0.499967 106.585 227.273)" fill="#F5F5F4" stroke="#BEDCD9"/>
<rect y="0.499967" width="184.62" height="111.178" transform="matrix(0.866044 0.499967 -0.866044 0.499967 106.585 224.277)" fill="#F5F5F4" stroke="#BEDCD9"/>
<rect y="0.499967" width="184.62" height="111.178" transform="matrix(0.866044 0.499967 -0.866044 0.499967 106.585 221.283)" fill="#FCFDFD" stroke="#BEDCD9"/>
<path d="M164.796 279.507C177.857 287.047 176.459 300.187 161.435 308.859C146.412 317.532 123.652 318.34 110.591 310.8C97.53 303.26 98.9287 290.12 113.952 281.447C128.975 272.774 151.736 271.967 164.796 279.507Z" fill="#EDF9F8" stroke="#68C4BA"/>
<path d="M152.718 286.366L153.338 287.766L153.957 289.164L154.578 290.564L155.197 291.963L155.818 293.362L156.437 294.761L157.057 296.16L157.676 297.56L158.296 298.958L158.297 298.959L158.917 300.358L159.454 301.57L157.584 301.75L150.99 302.385L149.069 302.57L148.518 301.328L147.899 299.929L147.279 298.53L146.659 297.13L145.42 294.332L144.8 292.933L144.18 291.534L144.016 291.163L143.971 291.061L143.795 291.035L143.152 290.94L140.728 290.582L138.304 290.225L135.88 289.866L133.458 289.509L131.033 289.151L128.61 288.793L126.186 288.435L124.035 288.117L124.356 287.009L125.088 284.471L125.454 283.202L125.765 282.123L127.867 282.433L130.29 282.791L132.714 283.149L135.138 283.506L137.561 283.864L139.985 284.222L142.409 284.58L144.833 284.937L149.679 285.653L152.103 286.011L152.593 286.083L152.718 286.366Z" fill="#FCFDFD" stroke="#68C4BA" stroke-width="0.5"/>
<path d="M142.009 293.232L142.629 294.631L143.248 296.031L143.868 297.43L144.488 298.828L145.726 301.627L145.727 301.627L146.265 302.839L139.998 303.443L137.801 303.654L135.88 303.838L135.331 302.597L134.71 301.197L134.09 299.798L133.471 298.399L133.065 297.484L133.02 297.383L132.844 297.357L131.26 297.123L128.835 296.765L123.989 296.049L123.988 296.049L121.838 295.731L122.157 294.622L122.523 293.354L123.568 289.736L125.668 290.047L128.092 290.404L130.517 290.762L132.938 291.12L135.363 291.478L137.787 291.836L140.211 292.194L141.642 292.404L142.009 293.232Z" fill="#FCFDFD" stroke="#68C4BA" stroke-width="0.5"/>
<path d="M131.297 300.099L131.918 301.498L132.537 302.897L133.074 304.11L131.205 304.29L129.008 304.501L129.007 304.501L126.809 304.712L126.808 304.713L124.888 304.897L124.338 303.656L124.337 303.656L123.938 302.753L123.893 302.652L123.717 302.626L122.154 302.396L120.004 302.078L120.324 300.97L120.325 300.969L120.69 299.7L121.056 298.431L121.368 297.352L123.469 297.662L125.893 298.02L128.317 298.378L130.691 298.728L131.297 300.099Z" fill="#FCFDFD" stroke="#68C4BA" stroke-width="0.5"/>
<path d="M152.768 285.982L143.785 291.168" stroke="#68C4BA" stroke-width="0.5"/>
<path d="M141.818 292.303L132.813 297.501" stroke="#68C4BA" stroke-width="0.5"/>
<path d="M130.881 298.617L123.672 302.779" stroke="#68C4BA" stroke-width="0.5"/>
<rect y="0.499967" width="184.62" height="111.178" transform="matrix(0.866044 0.499967 -0.866044 0.499967 -6.41466 332.957)" fill="#F5F5F4" stroke="#68C4BA"/>
<rect y="0.499967" width="184.62" height="111.178" transform="matrix(0.866044 0.499967 -0.866044 0.499967 -6.41466 329.961)" fill="#F5F5F4" stroke="#68C4BA"/>
<rect y="0.499967" width="184.62" height="111.178" transform="matrix(0.866044 0.499967 -0.866044 0.499967 -6.41466 326.965)" fill="#F5F5F4" stroke="#68C4BA"/>
<rect y="0.499967" width="184.62" height="111.178" transform="matrix(0.866044 0.499967 -0.866044 0.499967 -6.41466 323.971)" fill="#F5F5F4" stroke="#68C4BA"/>
<rect y="0.499967" width="184.62" height="111.178" transform="matrix(0.866044 0.499967 -0.866044 0.499967 -6.41466 320.975)" fill="#F5F5F4" stroke="#68C4BA"/>
<rect y="0.499967" width="184.62" height="111.178" transform="matrix(0.866044 0.499967 -0.866044 0.499967 -6.41466 317.979)" fill="#F5F5F4" stroke="#68C4BA"/>
<rect y="0.499967" width="184.62" height="111.178" transform="matrix(0.866044 0.499967 -0.866044 0.499967 -6.41466 314.982)" fill="#F5F5F4" stroke="#68C4BA"/>
<rect y="0.499967" width="184.62" height="111.178" transform="matrix(0.866044 0.499967 -0.866044 0.499967 -6.41466 312.25)" fill="#F5F5F4" stroke="#68C4BA"/>
<rect y="0.499967" width="184.62" height="111.178" transform="matrix(0.866044 0.499967 -0.866044 0.499967 -6.41466 309.256)" fill="#F5F5F4" stroke="#68C4BA"/>
<rect y="0.499967" width="184.62" height="111.178" transform="matrix(0.866044 0.499967 -0.866044 0.499967 -6.41466 306.26)" fill="#F5F5F4" stroke="#68C4BA"/>
<rect y="0.499967" width="184.62" height="111.178" transform="matrix(0.866044 0.499967 -0.866044 0.499967 -6.41466 303.264)" fill="#F5F5F4" stroke="#68C4BA"/>
<rect y="0.499967" width="184.62" height="111.178" transform="matrix(0.866044 0.499967 -0.866044 0.499967 -6.41466 300.27)" fill="#F5F5F4" stroke="#68C4BA"/>
<rect y="0.499967" width="184.62" height="111.178" transform="matrix(0.866044 0.499967 -0.866044 0.499967 -6.41466 297.273)" fill="#F5F5F4" stroke="#68C4BA"/>
<rect y="0.499967" width="184.62" height="111.178" transform="matrix(0.866044 0.499967 -0.866044 0.499967 -6.41466 294.277)" fill="#F5F5F4" stroke="#68C4BA"/>
<rect y="0.499967" width="184.62" height="111.178" transform="matrix(0.866044 0.499967 -0.866044 0.499967 -6.41466 291.283)" fill="white" stroke="#BEDCD9"/>
<path d="M51.7945 349.507C64.8552 357.047 63.4566 370.187 48.4335 378.859C33.4104 387.532 10.6499 388.34 -2.41105 380.8C-15.472 373.26 -14.0732 360.12 0.949944 351.447C15.9731 342.774 38.7336 341.967 51.7945 349.507Z" fill="#F5F5F4" stroke="#68C4BA"/>
<path d="M39.7202 356.366L40.3402 357.766L40.9593 359.164L41.58 360.564L42.1991 361.963L42.8199 363.362L43.439 364.761L44.0589 366.16L44.678 367.56L45.2979 368.958L45.2988 368.959L45.9187 370.358L46.4558 371.57L44.5858 371.75L37.9915 372.385L36.0709 372.57L35.5203 371.328L34.9012 369.929L34.2813 368.53L33.6613 367.13L32.4215 364.332L31.8024 362.933L31.1816 361.534L31.0175 361.163L30.9727 361.061L30.7968 361.035L30.154 360.94L27.7301 360.582L25.3062 360.225L22.8823 359.866L20.4601 359.509L18.0353 359.151L15.6122 358.793L13.1875 358.435L11.0368 358.117L11.3581 357.009L12.0897 354.471L12.4559 353.202L12.7672 352.123L14.8688 352.433L17.2919 352.791L19.7158 353.149L22.1397 353.506L24.5628 353.864L26.9867 354.222L29.4106 354.58L31.8345 354.937L36.6806 355.653L39.1045 356.011L39.5951 356.083L39.7202 356.366Z" fill="white" stroke="#68C4BA" stroke-width="0.5"/>
</svg>
