<svg width="405" height="276" viewBox="0 0 405 276" fill="none" xmlns="http://www.w3.org/2000/svg">
<rect y="0.499967" width="279.893" height="544.956" transform="matrix(0.866044 0.499967 -0.866044 0.499967 415.255 0.25)" fill="#BEDCD9" stroke="#68C4BA"/>
<path d="M144.335 81.8266C147.934 76.7873 155.433 78.827 158.733 80.4767L150.634 96.2246L141.185 102.524C138.936 93.075 139.836 88.1256 144.335 81.8266Z" fill="#EDF9F8"/>
<path d="M147.035 93.525C147.635 92.1752 148.204 88.9356 147.485 86.776M158.733 80.4767C155.433 78.827 147.934 76.7873 144.335 81.8266C139.836 88.1256 138.936 93.075 141.185 102.524L150.634 96.2246L158.733 80.4767Z" stroke="#68C4BA" stroke-linecap="round"/>
<path d="M306.311 216.804C314.59 217.164 317.56 210.955 318.01 207.806L315.76 206.006L291.014 207.356L291.464 210.055C292.813 213.655 295.963 216.354 306.311 216.804Z" fill="#EDF9F8" stroke="#68C4BA"/>
<path d="M164.702 198.088C155.645 204.975 146.804 197.537 143.001 192.28C142.696 191.859 142.615 191.323 142.731 190.816C143.269 188.452 144.287 182.778 145.235 173.613C146.585 160.565 140.736 153.816 137.586 129.969C134.437 106.123 143.885 93.5248 168.182 71.0281C187.619 53.0307 219.788 61.3911 233.872 66.0788C264.331 79.3885 286.828 104.585 315.31 100.723C340.151 97.3558 341.856 97.5739 345.006 98.9237C348.156 100.273 336.576 121.581 337.357 122.77C338.121 123.932 345.16 133.381 345.906 143.917C346.651 154.454 349.055 166.414 360.754 173.613C372.452 180.812 357.154 212.307 340.057 208.708C322.959 205.108 299.563 209.608 288.314 210.057C277.066 210.507 275.716 226.705 275.266 234.354C274.816 242.003 268.967 240.653 262.218 241.103C255.469 241.553 250.52 239.303 249.62 231.654C248.72 224.005 254.119 208.708 228.023 203.758C201.927 198.809 191.578 191.61 190.678 190.71C189.779 189.81 184.829 186.661 178.08 183.512C171.331 180.362 169.532 184.411 168.182 186.661C167.214 188.274 166.174 193.382 165.644 196.476C165.536 197.111 165.215 197.698 164.702 198.088Z" fill="#EDF9F8" stroke="#68C4BA"/>
<path d="M358.818 198.621C351.619 208.34 344.12 209.57 341.271 208.97C340.371 205.82 339.921 196.822 345.32 186.923C349.639 179.004 357.318 174.925 360.618 173.875C364.667 174.325 367.817 186.473 358.818 198.621Z" fill="#FCFDFD"/>
<path d="M345.456 99.3732C340.807 98.9232 329.709 102.163 322.51 118.72" stroke="#68C4BA"/>
<path d="M360.304 173.611C352.505 176.911 337.717 188.639 340.957 209.156" stroke="#68C4BA"/>
<path d="M287.866 157.866C286.366 146.468 287.506 125.021 304.063 130.42C297.764 124.571 283.456 118.182 276.617 139.419" stroke="#68C4BA"/>
<path d="M218.211 83.9023L259.882 102.695" stroke="#68C4BA" stroke-linecap="round"/>
<path d="M164.702 198.088C155.645 204.975 146.804 197.537 143.001 192.28C142.696 191.859 142.615 191.323 142.731 190.816C143.269 188.452 144.287 182.778 145.235 173.613C146.585 160.565 140.736 153.816 137.586 129.969C134.437 106.123 143.885 93.5248 168.182 71.0281C187.619 53.0307 219.788 61.3911 233.872 66.0788C264.331 79.3885 286.828 104.585 315.31 100.723C340.151 97.3558 341.856 97.5739 345.006 98.9237C348.156 100.273 336.576 121.581 337.357 122.77C338.121 123.932 345.16 133.381 345.906 143.917C346.651 154.454 349.055 166.414 360.754 173.613C372.452 180.812 357.154 212.307 340.057 208.708C322.959 205.108 299.563 209.608 288.314 210.057C277.066 210.507 275.716 226.705 275.266 234.354C274.816 242.003 268.967 240.653 262.218 241.103C255.469 241.553 250.52 239.303 249.62 231.654C248.72 224.005 254.119 208.708 228.023 203.758C201.927 198.809 191.578 191.61 190.678 190.71C189.779 189.81 184.829 186.661 178.08 183.512C171.331 180.362 169.532 184.411 168.182 186.661C167.214 188.274 166.174 193.382 165.644 196.476C165.536 197.111 165.215 197.698 164.702 198.088Z" stroke="#68C4BA"/>
</svg>
