<svg width="275" height="202" viewBox="0 0 275 202" fill="none" xmlns="http://www.w3.org/2000/svg">
<rect x="0.5" y="0.5" width="211.804" height="138.716" fill="#EDF9F8" stroke="#68C4BA"/>
<path d="M25.1562 50.6523H187.648" stroke="#68C4BA"/>
<path d="M25.1562 32.9746H79.207" stroke="#68C4BA"/>
<path d="M25.1562 69.6875H187.648" stroke="#68C4BA"/>
<path d="M25.1562 88.7266H187.648" stroke="#68C4BA"/>
<path d="M25.1562 108H187.648" stroke="#68C4BA"/>
<path d="M217.023 200.057C221.646 204 225.748 216.997 227.221 223.003H274.133V107.763C274.133 103.139 272.093 97.2245 271.074 94.845C241.703 42.6299 225.837 33.9944 212.636 32.9745V61.1898C213.146 62.7195 210.7 57.8933 222.802 75.9782C237.929 98.5843 217.023 111.502 217.023 112.182C217.023 112.726 205.238 100.851 199.346 94.845C199.346 94.845 173 58.7721 158.213 67.3097C143.425 75.8472 179.396 107.933 185.578 118.641C191.76 129.349 199.856 163.683 200.876 171.672C201.895 179.66 211.244 195.128 217.023 200.057Z" fill="#FCFDFD"/>
<path d="M217.023 112.182C217.023 112.726 205.238 100.851 199.346 94.845C199.346 94.845 173 58.7721 158.213 67.3097C143.425 75.8472 179.396 107.933 185.578 118.641C191.76 129.349 199.856 163.683 200.876 171.672C201.895 179.66 211.244 195.128 217.023 200.057C221.646 204 225.748 216.997 227.221 223.003H274.133C274.133 223.003 274.133 112.386 274.133 107.763C274.133 103.139 272.093 97.2245 271.074 94.845C241.703 42.6299 225.837 33.9944 212.636 32.9745V61.1898C213.146 62.7195 210.7 57.8933 222.802 75.9782C237.929 98.5843 217.023 111.502 217.023 112.182ZM217.023 112.182L222.292 117.451" stroke="#68C4BA"/>
</svg>
