<svg width="1018" height="669" viewBox="0 0 1018 669" fill="none" xmlns="http://www.w3.org/2000/svg">
  <path
    d="M475.464 363.898C462.821 363.898 453.769 356.566 453.769 346.242V312.128L448.607 307.34H470.676L465.589 312.128L465.739 344.222C465.739 352.152 471.873 357.539 480.402 357.539C488.706 357.539 494.541 352.302 494.541 344.521V312.128L486.761 307.34H504.267L496.561 312.128V345.419C496.561 356.192 487.808 363.898 475.464 363.898Z"
    fill="#2F2823" />
  <path
    d="M525.637 363.898C519.428 363.898 511.722 362.775 506.859 361.13V359.783L504.391 341.679C509.852 354.471 517.782 362.327 526.909 362.327C532.744 362.327 536.784 358.661 536.784 353.2C536.784 337.714 505.363 342.726 505.363 322.976C505.363 313.25 513.966 306.068 525.562 306.068C530.949 306.068 536.709 307.265 541.497 309.659V311.006L543.816 326.267C537.831 314.447 531.098 307.714 523.617 307.714C517.632 307.714 513.443 311.53 513.443 316.916C513.443 330.981 544.938 326.492 544.938 346.841C544.938 356.716 537.308 363.898 525.637 363.898Z"
    fill="#2F2823" />
  <path
    d="M571.182 363H547.616L552.778 358.287V312.128L547.616 307.34H571.182C589.96 307.34 603.949 319.31 603.949 334.721C603.949 350.656 589.96 363 571.182 363ZM564.599 308.911V361.429H570.434C582.628 361.429 591.157 350.357 591.157 334.721C591.157 319.534 582.628 308.911 570.509 308.911H564.599Z"
    fill="#2F2823" />
  <path d="M616.382 363.598H604.637V351.479H616.382V363.598Z" fill="#A99482" />
  <path
    d="M637.446 363H619.641L626.823 358.436L644.553 315.046L640.663 308.986L654.354 306.517L676.348 358.586L681.884 363H655.326L663.032 358.661L656.598 343.399H635.052L628.992 358.436L637.446 363ZM645.227 317.889L635.725 341.753H655.925L645.975 317.889H645.227Z"
    fill="#A99482" />
  <path
    d="M682.555 363L687.717 358.586V311.754L682.555 307.34H704.624L699.537 311.754V358.586L704.624 363H682.555Z"
    fill="#A99482" />
  <path
    d="M327.083 369.785C307.872 349.949 308.379 318.295 328.215 299.083C348.051 279.872 379.705 280.379 398.917 300.215C418.128 320.051 417.621 351.705 397.785 370.917C377.949 390.128 346.295 389.621 327.083 369.785Z"
    fill="url(#paint0_linear_5111_54)" />
  <path
    d="M330.752 366.232C313.504 348.422 313.959 320.001 331.768 302.752C349.578 285.503 377.999 285.958 395.248 303.768C412.497 321.578 412.042 349.999 394.232 367.248C376.422 384.496 348.001 384.041 330.752 366.232Z"
    fill="#141414" />
  <path
    d="M355.537 351.585L361.778 359.725L363.055 358.987L363.057 358.988V346.981L355.537 351.585ZM345.962 339.092L353.481 348.901V348.899L363.057 343.036V328.625L345.962 339.092ZM345.962 320.735L336.387 326.599L343.906 336.408V336.407L363.057 324.681V310.27L345.962 320.735Z"
    fill="url(#paint1_linear_5111_54)" />
  <path
    d="M363.051 358.996L363.066 358.987L364.335 359.719L370.57 351.585L363.051 346.981V358.996ZM363.051 343.036L372.628 348.899V348.901L380.146 339.092L363.051 328.625V343.036ZM363.051 324.681L382.203 336.407V336.408L389.721 326.599L380.146 320.735L363.051 310.27V324.681Z"
    fill="url(#paint2_linear_5111_54)" />
  <defs>
    <linearGradient id="paint0_linear_5111_54" x1="345.171" y1="287.988" x2="357.92" y2="385"
      gradientUnits="userSpaceOnUse">
      <stop stop-color="#C4AE9C" />
      <stop offset="0.586538" stop-color="#A99482" />
      <stop offset="1" stop-color="#7D6B5B" />
    </linearGradient>
    <linearGradient id="paint1_linear_5111_54" x1="361.152" y1="359.568" x2="349.615" y2="319.5"
      gradientUnits="userSpaceOnUse">
      <stop stop-color="#EBCAAE" />
      <stop offset="1" stop-color="#FFF1E5" />
    </linearGradient>
    <linearGradient id="paint2_linear_5111_54" x1="363.043" y1="359.566" x2="378.775" y2="318.87"
      gradientUnits="userSpaceOnUse">
      <stop offset="0.0673077" stop-color="#473321" />
      <stop offset="1" stop-color="#A99482" />
    </linearGradient>
  </defs>
</svg>