<svg width="530" height="135" viewBox="0 0 530 135" fill="none" xmlns="http://www.w3.org/2000/svg">
<path d="M45.0247 79.3149C45.9213 81.3527 47.144 83.2276 48.6113 84.8578C45.4323 86.5696 42.1717 87.3847 38.5036 87.3847C27.7438 87.3847 20 80.2116 20 68.7181C20 57.1432 28.1514 49.97 38.5036 49.97C42.1717 49.97 45.1062 50.7851 48.0407 52.3339C46.655 54.0457 45.5138 56.002 44.6986 58.1214C42.9053 57.3877 41.112 57.0617 39.2372 57.0617C32.8792 57.0617 27.9068 61.2189 27.9068 68.7181C27.9068 75.8098 32.7161 80.3746 39.4818 80.3746C41.5196 80.3746 43.3129 80.0485 45.0247 79.3149ZM66.6258 50.0515C77.2226 50.0515 84.8033 57.6323 84.8033 68.7996C84.8033 79.8855 77.1411 87.4663 66.6258 87.4663C56.1105 87.4663 48.5298 79.8855 48.5298 68.7996C48.5298 57.6323 56.1921 50.0515 66.6258 50.0515ZM66.6258 56.8986C60.7568 56.8986 56.4366 61.4634 56.4366 68.7996C56.4366 75.9728 60.7568 80.6191 66.6258 80.6191C72.6578 80.6191 76.8965 76.0544 76.8965 68.7996C76.8965 61.4634 72.7393 56.8986 66.6258 56.8986ZM89.8572 86.5696V50.7851H97.764V86.5696H89.8572ZM88.879 39.8623C88.879 37.0908 91.1614 34.9715 93.7698 34.9715C96.3783 34.9715 98.6607 37.1724 98.6607 39.8623C98.6607 42.7153 96.3783 44.9162 93.7698 44.9162C91.1614 44.9162 88.879 42.6338 88.879 39.8623ZM104.611 53.0675C109.502 51.1112 115.615 49.97 120.751 49.97C129.717 49.97 135.505 53.4751 135.505 63.5013V86.4881H127.68V64.3164C127.68 59.181 124.5 57.3062 120.099 57.3062C117.327 57.3062 114.556 57.7138 112.436 58.3659V86.6511H104.53V53.0675H104.611ZM142.107 31.7109H150.014V51.8448C151.645 50.9482 154.905 50.0515 158.084 50.0515C168.273 50.0515 175.936 56.6541 175.936 68.1475C175.936 79.7225 168.355 87.4663 155.313 87.4663C150.259 87.4663 145.776 86.4066 142.189 85.1024V31.7109H142.107ZM149.933 79.804C151.482 80.2931 153.438 80.5376 155.394 80.5376C162.649 80.5376 167.784 76.4619 167.784 68.229C167.784 61.3004 162.893 57.1432 156.943 57.1432C153.845 57.1432 151.481 57.9583 149.851 58.855V79.804H149.933ZM198.515 62.6046C198.515 58.6919 195.662 56.9802 191.749 56.9802C187.674 56.9802 184.495 58.2029 181.56 59.9147V52.9045C184.658 51.1112 188.652 49.97 192.972 49.97C200.716 49.97 206.177 53.2305 206.177 62.197V85.836C202.835 86.7326 198.107 87.3033 194.113 87.3033C184.984 87.3033 178.299 84.4503 178.299 76.3804C178.299 69.1257 184.413 65.5391 194.602 65.5391H198.515V62.6046ZM198.515 70.919H195.173C189.711 70.919 186.125 72.5493 186.125 76.1359C186.125 79.8855 189.467 81.2712 194.276 81.2712C195.499 81.2712 197.129 81.1082 198.596 80.8637L198.515 70.919ZM211.965 76.8695C215.225 79.3964 219.138 80.9452 222.724 80.9452C226.23 80.9452 228.512 79.7225 228.512 76.8695C228.512 73.935 226.474 72.8753 221.909 71.7341C214.573 70.0224 211.476 67.0879 211.476 60.8113C211.476 53.5566 216.855 49.97 224.029 49.97C228.023 49.97 231.202 50.8666 234.136 52.7414V60.0777C231.039 57.7953 228.023 56.4096 224.273 56.4096C220.85 56.4096 219.056 58.1213 219.056 60.4852C219.056 62.8491 220.605 64.0719 224.599 65.1315C232.669 66.9248 236.093 69.9408 236.093 76.4619C236.093 83.9612 230.468 87.3847 222.806 87.3847C218.649 87.3847 214.573 86.2436 211.883 84.4503V76.8695H211.965ZM246.934 70.5114V70.6744C247.423 77.0325 252.803 80.5376 258.346 80.5376C263.237 80.5376 266.66 79.3964 270.165 77.0325V84.0427C266.986 86.3251 262.259 87.3847 257.775 87.3847C246.771 87.3847 239.353 80.2931 239.353 68.9627C239.353 57.5508 246.689 49.97 256.39 49.97C266.66 49.97 271.47 56.6541 271.47 66.4358V70.5114H246.934ZM264.052 65.3761C263.889 59.8331 261.199 56.7356 256.063 56.7356C251.499 56.7356 248.157 59.9962 247.179 65.3761H264.052Z" fill="white"/>
<path d="M299.509 30H300.243C300.977 30 301.547 30.5706 301.547 31.3042V104.667C301.547 105.4 300.977 105.971 300.243 105.971H299.509C298.776 105.971 298.205 105.4 298.205 104.667V31.3042C298.205 30.5706 298.857 30 299.509 30Z" fill="white"/>
<path d="M344.913 86.6515H340.512L326.98 50.541H330.975L342.876 82.9019L354.777 50.541H358.608L344.913 86.6515ZM380.046 73.6094H360.483V73.6909C360.483 80.212 365.047 84.0431 370.101 84.0431C373.769 84.0431 376.296 83.065 378.905 81.0271V84.6952C376.622 86.4885 373.28 87.2222 370.101 87.2222C362.602 87.2222 356.896 82.0053 356.896 73.3648C356.896 65.3765 362.194 59.5075 369.205 59.5075C375.726 59.5075 380.046 63.5017 380.046 71.0824V73.6094ZM360.727 70.5119H376.541C376.296 64.9689 373.362 62.7681 369.042 62.7681C365.047 62.7681 361.787 65.5395 360.727 70.5119ZM384.04 86.6515V61.5454C387.464 60.2411 391.376 59.5075 394.881 59.5075C401.402 59.5075 405.397 62.1159 405.397 68.7185V86.57H401.81V69.4522C401.81 64.0723 398.06 62.8496 394.555 62.8496C391.865 62.8496 389.42 63.3386 387.545 63.8277V86.57H384.04V86.6515ZM407.597 63.2571V60.1596H411.592V53.72H415.178V60.1596H422.433V63.2571H415.178V79.3968C415.178 82.8204 416.482 84.1246 418.928 84.1246C420.558 84.1246 421.944 83.554 423.737 82.6574V85.9179C422.188 86.7331 420.395 87.2222 418.194 87.2222C414.445 87.2222 411.673 85.1843 411.673 79.7229V63.1756H407.597V63.2571ZM447.213 60.1596V86.3255C444.034 86.8961 440.855 87.2222 438.165 87.2222C430.666 87.2222 426.427 84.6137 426.427 78.0111V60.1596H430.014V77.8481C430.014 82.8204 433.845 84.1246 438.002 84.1246C439.795 84.1246 441.833 84.0431 443.708 83.7986V60.2411H447.213V60.1596ZM456.832 64.5613V86.6515H453.245V62.605C455.935 60.8117 459.277 59.752 462.864 59.752C464.249 59.752 465.717 59.9151 467.184 60.3227V63.9092C465.635 63.3387 463.842 63.2571 462.619 63.2571C460.092 63.1756 458.136 63.7462 456.832 64.5613ZM490.252 73.6094H470.689V73.6909C470.689 80.212 475.254 84.0431 480.308 84.0431C483.976 84.0431 486.503 83.065 489.111 81.0271V84.6952C486.829 86.4885 483.487 87.2222 480.308 87.2222C472.808 87.2222 467.102 82.0053 467.102 73.3648C467.102 65.3765 472.401 59.5075 479.411 59.5075C485.932 59.5075 490.252 63.5017 490.252 71.0824V73.6094ZM470.934 70.5119H486.747C486.503 64.9689 483.568 62.7681 479.248 62.7681C475.172 62.7681 471.912 65.5395 470.934 70.5119ZM492.942 85.1028V80.9456C495.143 82.9834 497.425 84.1246 500.197 84.1246C503.457 84.1246 505.495 82.8204 505.495 79.8859C505.495 76.7069 503.213 75.8918 499.137 74.506C494.573 72.9573 492.616 71.0009 492.616 66.7622C492.616 62.1159 496.04 59.589 500.768 59.589C503.294 59.589 505.821 60.1596 507.859 61.6269V65.5395C505.821 63.8277 503.784 62.6865 500.768 62.6865C497.915 62.6865 496.121 64.2353 496.121 66.7622C496.121 69.2076 497.507 70.4303 501.501 71.7346C505.984 73.1203 509 74.9136 509 79.7229C509 84.9398 505.006 87.3037 500.197 87.3037C497.344 87.2222 494.572 86.407 492.942 85.1028Z" fill="#A8A8A8"/>
</svg>
