<svg width="530" height="135" viewBox="0 0 530 135" fill="none" xmlns="http://www.w3.org/2000/svg">
<g clip-path="url(#clip0_83407_914)">
<path d="M290.068 112.986C263.039 112.986 241.135 92.6218 241.135 67.493C241.135 42.3642 263.039 22 290.068 22V44.6743C276.509 44.6743 265.524 54.8871 265.524 67.493C265.524 80.0994 276.509 90.312 290.068 90.312V112.986Z" fill="white"/>
<path d="M185.283 22H163.173V22.0133H151V67.5063H175.346V44.6743H185.283C198.847 44.6743 209.835 54.8902 209.835 67.4997C209.835 80.1094 198.847 90.3253 185.283 90.3253V113C212.316 113 234.224 92.6322 234.224 67.4997C234.224 42.3672 212.316 22 185.283 22Z" fill="white"/>
<path d="M366.326 113H344.216C317.183 113 295.275 92.6322 295.275 67.4997C295.275 42.3674 317.183 22 344.216 22V44.6743C330.652 44.6743 319.664 54.8902 319.664 67.4997C319.664 80.1094 330.652 90.3253 344.216 90.3253H354.152V67.4935H378.499V112.986H366.326V113Z" fill="white"/>
</g>
<defs>
<clipPath id="clip0_83407_914">
<rect width="227.5" height="91" fill="white" transform="translate(151 22)"/>
</clipPath>
</defs>
</svg>
