<svg width="530" height="135" viewBox="0 0 530 135" fill="none" xmlns="http://www.w3.org/2000/svg">
<path d="M331.436 46C325.683 46 320.864 47.9465 317.34 51.6953C313.816 55.4442 312.018 60.6349 312.018 66.6907C312.018 72.7465 313.888 78.0814 317.412 81.7581C320.864 85.4349 325.755 87.4535 331.436 87.4535C337.118 87.4535 342.009 85.4349 345.461 81.7581C348.914 78.0093 350.783 72.8186 350.783 66.6907C350.783 60.6349 348.914 55.4442 345.461 51.6953C341.937 47.9465 337.118 46 331.436 46ZM340.571 77C338.341 79.5953 335.176 80.9651 331.436 80.9651C327.697 80.9651 324.532 79.5953 322.23 77C320.001 74.4767 318.85 70.8721 318.85 66.6907C318.85 62.5093 320.001 58.9767 322.23 56.4535C324.46 53.8581 327.697 52.4884 331.436 52.4884C335.176 52.4884 338.341 53.8581 340.571 56.4535C342.8 58.9767 343.951 62.5093 343.951 66.6907C343.951 70.8721 342.8 74.4767 340.571 77Z" fill="white"/>
<path d="M245.419 46.8633L231.754 86.0819H239.306L242.83 75.6284H259.156L262.68 86.0819H269.873L256.567 46.8633H245.419ZM244.916 69.5726L250.166 52.054H251.748L256.927 69.5726H244.916Z" fill="white"/>
<path d="M173.352 46.8633H157.889V86.0819H172.201C177.955 86.0819 182.846 84.2075 186.37 80.6749C189.894 77.1423 191.764 72.1679 191.764 66.4005C191.764 60.6331 189.966 55.6586 186.657 52.1982C183.349 48.7377 178.746 46.8633 173.352 46.8633ZM181.839 75.8447C179.753 78.2958 176.876 79.5214 173.496 79.5214H164.793V53.3517H172.273C176.013 53.3517 179.249 54.5772 181.479 56.9563C183.781 59.2633 184.931 62.5075 184.931 66.4005C184.859 70.2214 183.852 73.5377 181.839 75.8447Z" fill="white"/>
<path d="M220.532 65.8958C223.697 65.8237 225.638 64.9586 227.005 63.0121C227.868 61.5703 228.3 59.9121 228.3 58.1819C228.3 54.8656 227.077 52.054 224.775 49.9633C222.474 47.9447 219.166 46.8633 215.354 46.8633H196.582V86.0819H203.415V71.3749H216.72C219.669 71.3749 220.676 73.033 220.676 74.8354V86.0819H227.149V73.6098C227.149 70.0772 225.351 67.554 222.33 67.554C221.97 67.554 219.525 67.554 219.237 67.554V65.9679L220.532 65.8958ZM215.354 64.8865H203.415V53.4238H215.354C219.022 53.4238 221.467 55.6586 221.467 58.9749C221.467 62.2191 218.878 64.8865 215.354 64.8865Z" fill="white"/>
<path d="M284.257 70.6558H301.662L301.59 72.1698C301.23 77.4326 296.339 81.0372 289.363 81.0372C285.767 81.0372 282.674 79.6674 280.445 77.0721C278.215 74.4767 277.064 70.9442 277.064 66.7628C277.064 62.5814 278.215 59.0488 280.373 56.5256C282.602 53.9302 285.695 52.5605 289.363 52.5605C294.038 52.5605 297.706 55.2279 299.36 59.6256V59.6977L306.049 58.4721L305.977 58.3279C304.754 54.7233 302.525 51.6233 299.504 49.3884C296.555 47.2256 293.031 46 289.363 46C283.753 46 278.934 47.9465 275.482 51.6953C272.03 55.4442 270.232 60.6349 270.232 66.6907C270.232 72.7465 271.886 77.9372 275.123 81.686C278.359 85.4349 282.746 87.4535 287.997 87.4535C294.398 87.4535 299.288 84.0651 300.943 80.3163H301.734V87.0209H307.775V64.4558H284.329L284.257 70.6558ZM394.441 86.0837H401.274V68.2767H420.117V62.2209H401.274V53.4256H422.203V46.9372H394.441V86.0837ZM472.764 46.8651L463.989 63.3744H462.407L453.633 46.9372H445.865L457.157 66.7628H459.818V86.0837H466.651V66.7628H469.312L480.603 46.9372H472.764V46.8651ZM382.574 79.7395H381.279L366.823 46.9372H355.1V86.0837H361.932V53.2814H363.083L377.683 86.0837H389.406V46.9372H382.574V79.7395ZM433.063 46.9372H426.015V86.0116H431.121H433.063H452.338V79.9558H433.063V46.9372ZM68.7066 66.7628V66.3302L49 59.6977V52.0558L75.5392 61.5721V71.593L49 81.0372V73.3953L68.7066 66.7628ZM82.6595 86.0837V46.8651H89.9955V86.0837H82.6595ZM123.367 80.9651L96.8281 71.5209V61.5L123.367 51.9837V59.6256L103.661 66.2581V66.6907L123.367 73.2512V80.9651Z" fill="white"/>
</svg>
