<svg width="530" height="135" viewBox="0 0 530 135" fill="none" xmlns="http://www.w3.org/2000/svg">
<path fill-rule="evenodd" clip-rule="evenodd" d="M69 48.7782V62.8467H80.0698V48.7782H69ZM80.1349 48.7782H104.944V38.1778H80.1349V48.7782ZM460.74 55.7143H446.74L433.065 70.5025V37H422.386V95.4331H433.065V84.9635L437.493 80.2523L447.912 95.4331H461L444.851 72.4001L460.74 55.7143ZM80.1349 95.4331V73.1853H102.209V62.9121H80.1349V73.1853H69V95.4331H80.1349ZM133.009 55.5834C132.228 55.518 131.381 55.4526 130.535 55.4526C127.149 55.4526 121.679 56.4341 119.27 61.6688V55.7797H108.916V95.4985H119.595V77.3077C119.595 68.7358 124.349 66.1184 129.819 66.1184C130.795 66.1184 131.837 66.1838 133.009 66.4456V55.5834ZM150.33 96.5455C141.865 96.5455 136.786 90.7872 136.786 84.5709C136.786 77.4386 141.995 73.5125 148.572 72.531L158.274 71.0914C160.553 70.7642 161.27 69.6518 161.27 68.2777C161.27 65.464 159.121 63.1084 154.628 63.1084C149.94 63.1084 147.4 66.1184 147.074 69.5864L137.567 67.5579C138.219 61.3417 143.884 54.471 154.498 54.471C167 54.471 171.688 61.6034 171.688 69.5864V89.1514C171.688 91.2453 171.949 94.0589 172.144 95.4331H162.377C162.116 94.3861 161.986 92.2268 161.986 90.6563C159.967 93.7972 156.191 96.5455 150.33 96.5455ZM147.465 83.982C147.465 86.3377 149.158 88.5624 152.609 88.5624C157.102 88.5624 161.27 86.4031 161.27 79.3362V77.5694L152.349 78.9436C149.614 79.4016 147.465 80.9066 147.465 83.982ZM188.814 95.4331V72.2038C188.814 67.8197 191.549 64.3516 196.172 64.3516C200.991 64.3516 203.14 67.5579 203.14 71.8766V95.4331H213.753V72.2038C213.753 67.9505 216.488 64.3516 221.047 64.3516C225.93 64.3516 228.014 67.5579 228.014 71.8766V95.4331H238.433V69.7173C238.433 59.0514 231.465 54.6019 224.107 54.6019C218.898 54.6019 214.73 56.3686 211.605 61.2108C209.586 56.9575 205.288 54.6019 199.884 54.6019C195.521 54.6019 190.507 56.6958 188.293 60.5564V55.7143H178.07V95.4331H188.814ZM302.247 81.2338L310.842 55.7143H322.107L330.637 81.2992L337.93 55.7143H348.544L336.172 95.4331H325.493L316.247 68.3432L307.195 95.4331H296.321L283.688 55.7143H294.953L302.247 81.2338ZM368.991 86.8611C363.781 86.8611 358.963 83.0005 358.963 75.541C358.963 68.016 363.781 64.2208 368.991 64.2208C374.2 64.2208 379.019 68.016 379.019 75.541C379.019 83.0659 374.2 86.8611 368.991 86.8611ZM368.991 54.5365C357.205 54.5365 348.284 63.3047 348.284 75.6064C348.284 87.7772 357.205 96.6763 368.991 96.6763C380.777 96.6763 389.698 87.7772 389.698 75.6064C389.698 63.3047 380.777 54.5365 368.991 54.5365ZM415.354 55.3871C416.265 55.3871 417.047 55.4525 417.828 55.518V66.3147C416.591 66.0529 415.549 65.9875 414.637 65.9875C409.167 65.9875 404.414 68.6703 404.414 77.1768V95.3676H393.735V55.6489H404.088V61.538C406.563 56.3686 412.033 55.3871 415.354 55.3871Z" fill="white"/>
<path d="M254.059 71.093C254.32 67.4287 257.38 63.2409 262.915 63.2409C269.036 63.2409 271.576 67.1015 271.771 71.093H254.059ZM272.813 81.3662C271.51 84.8997 268.776 87.4517 263.827 87.4517C258.552 87.4517 254.124 83.6565 253.864 78.4217H282.124C282.124 78.2908 282.255 76.655 282.255 75.0845C282.255 62.3248 274.962 54.4727 262.72 54.4727C252.627 54.4727 243.25 62.7174 243.25 75.3463C243.25 88.7604 252.822 96.5471 263.631 96.5471C273.334 96.5471 279.585 90.7888 281.603 83.9836L272.813 81.3662Z" fill="white"/>
</svg>
