<svg width="530" height="135" viewBox="0 0 530 135" fill="none" xmlns="http://www.w3.org/2000/svg">
<path d="M123.554 109.572V107.588H127.691V90.6034H123.79V88.6191H134.182V90.6034H130.045V107.622H134.384V109.572H123.554ZM139.328 88.6191H141.615L150.427 104.157V88.6191H152.647H152.983V88.8545C152.848 88.9891 152.759 89.1348 152.714 89.2918C152.691 89.4487 152.68 89.7178 152.68 90.099V109.572H150.83L141.581 93.0923V109.572H139.328V88.6191ZM164.048 109.909C162.905 109.909 161.839 109.707 160.853 109.303C159.866 108.877 158.992 108.227 158.23 107.353C157.49 106.478 156.907 105.368 156.481 104.023C156.055 102.678 155.842 101.074 155.842 99.2134C155.842 97.5766 155.999 96.1528 156.313 94.9421C156.626 93.7089 157.052 92.6775 157.591 91.8479C158.129 91.0183 158.745 90.3568 159.44 89.8635C160.135 89.3703 160.864 89.0115 161.626 88.7873C162.389 88.5631 163.151 88.451 163.914 88.451C165.438 88.451 166.739 88.8321 167.815 89.5945C168.891 90.3344 169.698 91.3322 170.236 92.5878L168.218 93.5295L167.916 93.664L167.815 93.4286C167.882 93.2492 167.882 93.0923 167.815 92.9577C167.748 92.8008 167.624 92.5654 167.445 92.2514C166.884 91.4891 166.301 90.9846 165.696 90.738C165.113 90.4689 164.496 90.3344 163.846 90.3344C162.972 90.3344 162.176 90.5362 161.458 90.9398C160.763 91.3209 160.158 91.8927 159.642 92.655C159.149 93.395 158.768 94.303 158.499 95.3793C158.252 96.4555 158.129 97.6775 158.129 99.0452C158.129 100.368 158.274 101.568 158.566 102.644C158.88 103.72 159.295 104.651 159.81 105.435C160.348 106.22 160.965 106.826 161.66 107.252C162.378 107.678 163.14 107.891 163.947 107.891C164.508 107.891 165.046 107.79 165.562 107.588C166.1 107.386 166.593 107.095 167.041 106.713C167.49 106.31 167.871 105.85 168.185 105.335L169.934 106.478C169.261 107.599 168.454 108.451 167.512 109.034C166.57 109.617 165.416 109.909 164.048 109.909ZM173.263 109.572V88.5855H186.111V90.6707H175.483V97.5654H184.261V99.7179H175.483V107.487H186.01V109.572H173.263ZM190.08 109.572V88.6191H196.806C198.376 88.6191 199.643 88.8882 200.607 89.4263C201.571 89.9644 202.277 90.6819 202.726 91.5788C203.196 92.4532 203.432 93.4398 203.432 94.5385C203.432 95.3457 203.309 96.0968 203.062 96.7919C202.815 97.4869 202.423 98.1035 201.885 98.6417C201.369 99.1798 200.708 99.5946 199.9 99.8861C199.093 100.178 198.118 100.323 196.974 100.323H192.501V109.572H190.08ZM192.501 98.2381H196.705C197.737 98.2381 198.566 98.0923 199.194 97.8008C199.822 97.4869 200.282 97.0609 200.573 96.5228C200.865 95.9623 201.01 95.3232 201.01 94.6057C201.01 93.9107 200.865 93.2829 200.573 92.7223C200.282 92.1618 199.822 91.7133 199.194 91.377C198.566 91.0183 197.748 90.8389 196.739 90.8389H192.501V98.2381ZM211.907 109.572V90.7043H205.954V88.5855H220.484V90.7043H214.295V109.572H211.907ZM224.452 109.572V107.588H228.589V90.6034H224.688V88.6191H235.08V90.6034H230.943V107.622H235.282V109.572H224.452ZM246.953 109.942C245.361 109.942 244.004 109.527 242.883 108.698C241.762 107.868 240.91 106.657 240.327 105.065C239.744 103.451 239.452 101.5 239.452 99.2134C239.452 96.9937 239.744 95.0878 240.327 93.4959C240.91 91.8815 241.762 90.6483 242.883 89.7963C244.004 88.9218 245.361 88.4846 246.953 88.4846C248.567 88.4846 249.923 88.9218 251.022 89.7963C252.143 90.6483 252.995 91.8815 253.578 93.4959C254.161 95.0878 254.453 96.9937 254.453 99.2134C254.453 101.5 254.161 103.451 253.578 105.065C252.995 106.657 252.143 107.868 251.022 108.698C249.923 109.527 248.567 109.942 246.953 109.942ZM246.953 107.891C248.029 107.891 248.937 107.554 249.677 106.882C250.439 106.209 251.022 105.234 251.426 103.956C251.829 102.655 252.031 101.074 252.031 99.2134C252.031 97.4421 251.829 95.9174 251.426 94.6394C251.022 93.3389 250.439 92.3299 249.677 91.6124C248.937 90.8949 248.029 90.5362 246.953 90.5362C245.899 90.5362 244.991 90.8949 244.228 91.6124C243.466 92.3299 242.883 93.3389 242.479 94.6394C242.076 95.9174 241.874 97.4421 241.874 99.2134C241.874 101.074 242.076 102.655 242.479 103.956C242.883 105.234 243.466 106.209 244.228 106.882C244.991 107.554 245.899 107.891 246.953 107.891ZM257.042 88.6191H259.329L268.141 104.157V88.6191H270.361H270.697V88.8545C270.563 88.9891 270.473 89.1348 270.428 89.2918C270.406 89.4487 270.394 89.7178 270.394 90.099V109.572H268.545L259.296 93.0923V109.572H257.042V88.6191ZM290.978 109.572V88.6191H297.704C299.274 88.6191 300.541 88.8882 301.505 89.4263C302.469 89.9644 303.175 90.6819 303.624 91.5788C304.094 92.4532 304.33 93.4398 304.33 94.5385C304.33 95.3457 304.207 96.0968 303.96 96.7919C303.713 97.4869 303.321 98.1035 302.783 98.6417C302.267 99.1798 301.606 99.5946 300.798 99.8861C299.991 100.178 299.016 100.323 297.872 100.323H293.399V109.572H290.978ZM293.399 98.2381H297.603C298.635 98.2381 299.464 98.0923 300.092 97.8008C300.72 97.4869 301.18 97.0609 301.471 96.5228C301.763 95.9623 301.908 95.3232 301.908 94.6057C301.908 93.9107 301.763 93.2829 301.471 92.7223C301.18 92.1618 300.72 91.7133 300.092 91.377C299.464 91.0183 298.646 90.8389 297.637 90.8389H293.399V98.2381ZM307.693 109.572V88.6191H313.881C315.541 88.6191 316.875 88.8658 317.884 89.359C318.915 89.8523 319.666 90.5474 320.137 91.4443C320.608 92.3411 320.843 93.395 320.843 94.6057C320.843 95.3905 320.664 96.1753 320.305 96.96C319.969 97.7448 319.476 98.4286 318.825 99.0116C318.198 99.5946 317.447 99.9982 316.572 100.222L321.415 109.572H318.792L314.151 100.323H310.081V109.572H307.693ZM310.081 98.2381H314.151C315.653 98.2381 316.74 97.9129 317.413 97.2627C318.086 96.5901 318.422 95.7044 318.422 94.6057C318.422 93.9107 318.276 93.2829 317.985 92.7223C317.693 92.1393 317.234 91.6797 316.606 91.3434C315.978 91.007 315.16 90.8389 314.151 90.8389H310.081V98.2381ZM331.034 109.942C329.442 109.942 328.086 109.527 326.965 108.698C325.844 107.868 324.991 106.657 324.409 105.065C323.826 103.451 323.534 101.5 323.534 99.2134C323.534 96.9937 323.826 95.0878 324.409 93.4959C324.991 91.8815 325.844 90.6483 326.965 89.7963C328.086 88.9218 329.442 88.4846 331.034 88.4846C332.649 88.4846 334.005 88.9218 335.104 89.7963C336.225 90.6483 337.077 91.8815 337.66 93.4959C338.243 95.0878 338.534 96.9937 338.534 99.2134C338.534 101.5 338.243 103.451 337.66 105.065C337.077 106.657 336.225 107.868 335.104 108.698C334.005 109.527 332.649 109.942 331.034 109.942ZM331.034 107.891C332.11 107.891 333.018 107.554 333.758 106.882C334.521 106.209 335.104 105.234 335.507 103.956C335.911 102.655 336.113 101.074 336.113 99.2134C336.113 97.4421 335.911 95.9174 335.507 94.6394C335.104 93.3389 334.521 92.3299 333.758 91.6124C333.018 90.8949 332.11 90.5362 331.034 90.5362C329.98 90.5362 329.072 90.8949 328.31 91.6124C327.548 92.3299 326.965 93.3389 326.561 94.6394C326.157 95.9174 325.956 97.4421 325.956 99.2134C325.956 101.074 326.157 102.655 326.561 103.956C326.965 105.234 327.548 106.209 328.31 106.882C329.072 107.554 329.98 107.891 331.034 107.891ZM348.759 109.909C347.099 109.909 345.653 109.471 344.42 108.597C343.209 107.722 342.279 106.489 341.628 104.897C340.978 103.305 340.653 101.456 340.653 99.3479C340.631 97.5318 340.788 95.9959 341.124 94.7403C341.483 93.4622 341.954 92.4084 342.537 91.5788C343.119 90.7492 343.77 90.099 344.487 89.6281C345.205 89.1572 345.922 88.8321 346.64 88.6528C347.38 88.4734 348.052 88.3837 348.658 88.3837C349.487 88.3837 350.294 88.5406 351.079 88.8545C351.886 89.146 352.615 89.5496 353.265 90.0653C353.938 90.581 354.465 91.1976 354.846 91.9151L353.198 93.2268L352.929 93.4622L352.794 93.2604C352.817 93.0811 352.783 92.9241 352.694 92.7896C352.626 92.6326 352.469 92.4084 352.223 92.1169C351.886 91.7357 351.539 91.4218 351.18 91.1752C350.821 90.9286 350.429 90.7492 350.003 90.6371C349.599 90.525 349.14 90.4689 348.624 90.4689C348.019 90.4689 347.436 90.5586 346.875 90.738C346.315 90.8949 345.799 91.1752 345.328 91.5788C344.857 91.96 344.442 92.4757 344.084 93.1259C343.725 93.7761 343.445 94.5721 343.243 95.5138C343.063 96.4555 342.974 97.5654 342.974 98.8434C342.974 100.301 343.108 101.59 343.377 102.711C343.646 103.81 344.028 104.74 344.521 105.503C345.037 106.265 345.642 106.848 346.337 107.252C347.055 107.633 347.862 107.823 348.759 107.823C349.072 107.823 349.398 107.801 349.734 107.756C350.093 107.711 350.44 107.644 350.777 107.554C351.135 107.442 351.483 107.308 351.819 107.151C352.155 106.971 352.458 106.77 352.727 106.545V101.568H348.927V99.5161H354.913V107.722C353.927 108.44 352.918 108.989 351.886 109.37C350.855 109.729 349.812 109.909 348.759 109.909ZM358.142 109.572V88.6191H364.33C365.99 88.6191 367.324 88.8658 368.333 89.359C369.364 89.8523 370.115 90.5474 370.586 91.4443C371.057 92.3411 371.292 93.395 371.292 94.6057C371.292 95.3905 371.113 96.1753 370.754 96.96C370.418 97.7448 369.925 98.4286 369.274 99.0116C368.647 99.5946 367.896 99.9982 367.021 100.222L371.864 109.572H369.241L364.6 100.323H360.53V109.572H358.142ZM360.53 98.2381H364.6C366.102 98.2381 367.189 97.9129 367.862 97.2627C368.535 96.5901 368.871 95.7044 368.871 94.6057C368.871 93.9107 368.725 93.2829 368.434 92.7223C368.142 92.1393 367.683 91.6797 367.055 91.3434C366.427 91.007 365.609 90.8389 364.6 90.8389H360.53V98.2381ZM385.082 103.451H377.481L377.952 101.635H384.544L385.082 103.451ZM381.449 93.6304L375.934 109.572H373.613L381.349 88.2492H381.618L389.353 109.572H386.932L381.449 93.6304ZM391.27 109.572V88.6191H393.12L398.299 98.8771L403.58 88.5855H405.362V109.572H403.143V93.7649L398.602 102.207H397.694L393.456 93.8658V109.572H391.27Z" fill="white"/>
<path fill-rule="evenodd" clip-rule="evenodd" d="M404.249 57.7235V56.925H404.763C405.043 56.925 405.425 56.9463 405.425 57.2878C405.425 57.6577 405.229 57.7235 404.897 57.7235H404.249ZM404.249 58.2838H404.592L405.389 59.6781H406.264L405.382 58.2269C405.838 58.1931 406.212 57.9779 406.212 57.3661C406.212 56.6066 405.686 56.3612 404.797 56.3612H403.51V59.6781H404.249V58.2838ZM407.994 58.0241C407.994 56.0766 406.475 54.9473 404.781 54.9473C403.076 54.9473 401.559 56.0766 401.559 58.0241C401.559 59.9716 403.076 61.1063 404.781 61.1063C406.473 61.1063 407.994 59.9716 407.994 58.0241ZM407.066 58.0241C407.066 59.4434 406.018 60.3967 404.781 60.3967V60.386C403.508 60.3967 402.48 59.4434 402.48 58.0241C402.48 56.6066 403.51 55.6569 404.781 55.6569C406.02 55.6569 407.066 56.6066 407.066 58.0241Z" fill="white"/>
<path fill-rule="evenodd" clip-rule="evenodd" d="M290.041 25.0676L290.045 60.0333H299.956V25.0676H290.041ZM212.072 25.0213V60.0333H222.074V32.8557L229.875 32.8806C232.441 32.8806 234.213 33.4942 235.45 34.8085C237.019 36.4732 237.658 39.1552 237.658 44.0657V60.0333H247.346V40.6883C247.346 26.8816 238.514 25.0195 229.872 25.0195H212.074L212.072 25.0213ZM306 25.0693V60.0333H322.077C330.642 60.0333 333.437 58.614 336.46 55.4323C338.598 53.1984 339.978 48.2933 339.978 42.9346C339.978 38.0205 338.809 33.6365 336.77 30.9064C333.098 26.0244 327.809 25.0693 319.91 25.0693H306ZM315.833 32.6814H320.094C326.276 32.6814 330.274 35.4488 330.274 42.6251C330.274 49.805 326.276 52.5706 320.094 52.5706H315.833V32.6814ZM275.751 25.0693L267.479 52.7787L259.553 25.0711L248.855 25.0693L260.172 60.0333H274.459L285.867 25.0693H275.751ZM344.591 60.0333H354.504V25.0711L344.587 25.0693L344.591 60.0333ZM372.375 25.0818L358.534 60.0208H368.308L370.498 53.8458H386.877L388.949 60.0208H399.56L385.615 25.08L372.375 25.0818ZM378.808 31.4578L384.813 47.8273H372.616L378.808 31.4578Z" fill="white"/>
<path fill-rule="evenodd" clip-rule="evenodd" d="M148.149 30.8964V26.0855C148.617 26.05 149.091 26.0268 149.573 26.0108C162.783 25.5982 171.45 37.3205 171.45 37.3205C171.45 37.3205 162.089 50.2716 152.053 50.2716C150.727 50.277 149.407 50.0671 148.149 49.6492V35.0582C153.29 35.6771 154.325 37.9394 157.417 43.0757L164.294 37.2991C164.294 37.2991 159.274 30.7399 150.812 30.7399C149.893 30.7399 149.013 30.8039 148.149 30.8964ZM148.149 15V22.1906C148.622 22.1532 149.097 22.123 149.573 22.1052C167.942 21.4898 179.912 37.1159 179.912 37.1159C179.912 37.1159 166.166 53.77 151.844 53.77C150.532 53.77 149.302 53.6491 148.149 53.4445V57.8873C149.136 58.0118 150.159 58.0865 151.226 58.0865C164.552 58.0865 174.19 51.3067 183.523 43.2803C185.071 44.5146 191.406 47.5185 192.707 48.8346C183.834 56.2333 163.155 62.2002 151.43 62.2002C150.334 62.1966 149.24 62.1397 148.149 62.0295V68.2721H198.802V15H148.149ZM148.149 49.6492V53.4445C135.823 51.2569 132.401 38.4889 132.401 38.4889C132.401 38.4889 138.32 31.9546 148.149 30.8964V35.0582L148.129 35.0564C142.97 34.4392 138.941 39.2413 138.941 39.2413C138.941 39.2413 141.199 47.3229 148.149 49.6492ZM126.256 37.9358C126.256 37.9358 133.561 27.1935 148.149 26.0855V22.187C131.992 23.48 118 37.1124 118 37.1124C118 37.1124 125.924 59.9361 148.149 62.0259V57.8873C131.84 55.8438 126.256 37.9358 126.256 37.9358Z" fill="#76B900"/>
</svg>
