<svg width="530" height="135" viewBox="0 0 530 135" fill="none" xmlns="http://www.w3.org/2000/svg">
<path d="M145.312 47.2129H130.91C130.434 47.2126 129.972 47.3826 129.61 47.6922C129.247 48.0019 129.007 48.4308 128.933 48.9018L123.108 85.832C123.081 86.0033 123.092 86.1785 123.139 86.3453C123.187 86.5122 123.27 86.6668 123.383 86.7984C123.496 86.9301 123.636 87.0358 123.793 87.1082C123.951 87.1805 124.122 87.2179 124.296 87.2176H131.171C131.649 87.2178 132.11 87.0475 132.473 86.7375C132.835 86.4274 133.075 85.998 133.149 85.5266L134.72 75.566C134.794 75.095 135.033 74.6658 135.395 74.3558C135.757 74.0458 136.218 73.8753 136.695 73.875H141.254C150.741 73.875 156.216 69.2842 157.646 60.187C158.29 56.2069 157.673 53.0798 155.81 50.8897C153.763 48.4848 150.132 47.2129 145.312 47.2129ZM146.974 60.7008C146.186 65.8686 142.238 65.8686 138.42 65.8686H136.246L137.771 56.2175C137.816 55.9351 137.96 55.678 138.177 55.4923C138.394 55.3066 138.671 55.2046 138.957 55.2046H139.953C142.554 55.2046 145.007 55.2046 146.275 56.6871C147.031 57.5715 147.262 58.8856 146.974 60.7008ZM188.362 60.5345H181.465C181.179 60.5345 180.903 60.6365 180.686 60.8222C180.468 61.0079 180.324 61.265 180.28 61.5474L179.974 63.4763L179.492 62.7772C177.999 60.6103 174.67 59.8859 171.347 59.8859C163.726 59.8859 157.216 65.658 155.949 73.755C155.29 77.794 156.227 81.6561 158.518 84.3495C160.62 86.8259 163.627 87.8578 167.205 87.8578C173.345 87.8578 176.75 83.9093 176.75 83.9093L176.443 85.8256C176.415 85.997 176.426 86.1722 176.472 86.3393C176.519 86.5063 176.602 86.6613 176.714 86.7934C176.827 86.9255 176.967 87.0316 177.124 87.1045C177.281 87.1774 177.453 87.2152 177.626 87.2155H183.839C184.316 87.2157 184.777 87.0454 185.14 86.7354C185.502 86.4253 185.742 85.9959 185.816 85.5245L189.543 61.9201C189.571 61.7492 189.561 61.5743 189.514 61.4076C189.467 61.2409 189.385 61.0863 189.273 60.9545C189.16 60.8228 189.021 60.717 188.863 60.6445C188.706 60.5719 188.535 60.5344 188.362 60.5345ZM178.749 73.9571C178.083 77.8971 174.956 80.5421 170.968 80.5421C168.965 80.5421 167.365 79.8998 166.337 78.6826C165.318 77.4739 164.93 75.7534 165.255 73.8371C165.876 69.9307 169.056 67.1995 172.983 67.1995C174.941 67.1995 176.533 67.8502 177.582 69.0779C178.633 70.3182 179.05 72.0492 178.749 73.9571ZM225.092 60.5345H218.162C217.835 60.5342 217.513 60.6142 217.224 60.7673C216.935 60.9204 216.688 61.1419 216.504 61.4126L206.946 75.4923L202.894 61.9622C202.771 61.549 202.517 61.1868 202.171 60.9295C201.825 60.6722 201.405 60.5337 200.974 60.5345H194.164C193.972 60.534 193.784 60.5791 193.614 60.6662C193.443 60.7532 193.297 60.8797 193.185 61.035C193.074 61.1904 193.001 61.37 192.973 61.5592C192.945 61.7483 192.963 61.9413 193.024 62.1223L200.658 84.5242L193.481 94.6554C193.354 94.8351 193.278 95.0463 193.263 95.2661C193.247 95.4859 193.292 95.7056 193.394 95.9014C193.495 96.0971 193.648 96.2612 193.836 96.3757C194.024 96.4903 194.24 96.5508 194.46 96.5507H201.382C201.706 96.551 202.024 96.473 202.31 96.3233C202.597 96.1737 202.843 95.9569 203.027 95.6915L226.078 62.4192C226.203 62.2392 226.276 62.0284 226.289 61.8097C226.303 61.591 226.257 61.3728 226.155 61.1786C226.054 60.9844 225.901 60.8217 225.713 60.7082C225.526 60.5946 225.311 60.5346 225.092 60.5345Z" fill="white"/>
<path d="M248.039 47.213H233.635C233.158 47.2132 232.698 47.3835 232.336 47.6931C231.973 48.0027 231.734 48.4313 231.659 48.9019L225.835 85.8321C225.808 86.0031 225.819 86.1779 225.866 86.3445C225.913 86.511 225.995 86.6654 226.108 86.797C226.22 86.9286 226.36 87.0344 226.517 87.107C226.674 87.1796 226.845 87.2174 227.018 87.2178H234.41C234.743 87.2173 235.066 87.0978 235.319 86.8809C235.572 86.6639 235.739 86.3637 235.791 86.0343L237.444 75.5661C237.518 75.0951 237.758 74.666 238.12 74.356C238.482 74.0459 238.943 73.8754 239.42 73.8751H243.977C253.465 73.8751 258.939 69.2844 260.371 60.1871C261.017 56.2071 260.396 53.0799 258.532 50.8898C256.487 48.485 252.859 47.213 248.039 47.213ZM249.7 60.701C248.915 65.8687 244.966 65.8687 241.146 65.8687H238.975L240.502 56.2176C240.546 55.9356 240.69 55.6788 240.907 55.4931C241.124 55.3075 241.4 55.2052 241.685 55.2047H242.681C245.28 55.2047 247.735 55.2047 249.003 56.6872C249.759 57.5717 249.989 58.8857 249.7 60.701ZM291.086 60.5346H284.194C283.908 60.5351 283.632 60.6374 283.416 60.823C283.199 61.0087 283.055 61.2655 283.01 61.5475L282.705 63.4765L282.221 62.7773C280.728 60.6104 277.401 59.886 274.077 59.886C266.456 59.886 259.949 65.6581 258.682 73.7551C258.025 77.7941 258.958 81.6562 261.249 84.3496C263.355 86.8261 266.357 87.8579 269.935 87.8579C276.076 87.8579 279.481 83.9095 279.481 83.9095L279.174 85.8258C279.146 85.9975 279.156 86.1731 279.203 86.3404C279.251 86.5078 279.333 86.6629 279.446 86.7951C279.559 86.9273 279.7 87.0334 279.858 87.106C280.016 87.1786 280.187 87.216 280.361 87.2157H286.571C287.048 87.2154 287.509 87.0449 287.871 86.7348C288.233 86.4248 288.473 85.9956 288.547 85.5247L292.276 61.9203C292.303 61.7487 292.292 61.5734 292.245 61.4064C292.197 61.2394 292.114 61.0847 292.001 60.953C291.888 60.8212 291.747 60.7156 291.59 60.6434C291.432 60.5712 291.26 60.5341 291.086 60.5346ZM281.473 73.9573C280.812 77.8973 277.681 80.5422 273.692 80.5422C271.694 80.5422 270.089 79.9 269.061 78.6828C268.042 77.474 267.659 75.7535 267.979 73.8372C268.604 69.9309 271.78 67.1996 275.707 67.1996C277.666 67.1996 279.258 67.8503 280.307 69.078C281.362 70.3184 281.779 72.0494 281.473 73.9573ZM299.217 48.226L293.306 85.8321C293.279 86.0031 293.29 86.1779 293.337 86.3445C293.384 86.511 293.467 86.6654 293.579 86.797C293.692 86.9286 293.831 87.0344 293.988 87.107C294.145 87.1796 294.316 87.2174 294.489 87.2178H300.432C301.42 87.2178 302.258 86.5018 302.41 85.5268L308.238 48.5987C308.266 48.4275 308.255 48.2525 308.208 48.0857C308.161 47.9189 308.079 47.7642 307.966 47.6324C307.854 47.5005 307.714 47.3946 307.557 47.3218C307.399 47.2491 307.228 47.2112 307.055 47.2109H300.401C300.115 47.2115 299.839 47.3141 299.622 47.5001C299.405 47.6862 299.261 47.9436 299.217 48.226Z" fill="white"/>
<path d="M63.2992 94.3956L64.4005 87.4L61.9472 87.3431H50.2324L58.3736 35.7226C58.3979 35.5649 58.478 35.4211 58.5993 35.3175C58.7207 35.2139 58.8753 35.1574 59.0349 35.1582H78.7877C85.3453 35.1582 89.8707 36.5228 92.2335 39.2162C93.3412 40.4797 94.0466 41.8 94.3878 43.2531C94.7458 44.7777 94.7521 46.5993 94.4025 48.8209L94.3772 48.9831V50.4066L95.4849 51.0342C96.3303 51.463 97.0903 52.0425 97.7276 52.7441C98.6753 53.8244 99.2881 55.1974 99.5471 56.8252C99.8145 58.4994 99.7261 60.4915 99.2881 62.7469C98.7827 65.3413 97.9656 67.6008 96.8621 69.4498C95.8884 71.106 94.5794 72.5405 93.019 73.6615C91.5533 74.7018 89.8118 75.4914 87.8428 75.9968C85.9349 76.4938 83.7596 76.7444 81.3736 76.7444H79.8364C78.7371 76.7444 77.6695 77.1403 76.8313 77.85C75.993 78.566 75.4374 79.5576 75.2646 80.6465L75.1488 81.2762L73.203 93.6059L73.1145 94.0587C73.0914 94.2019 73.0514 94.2735 72.9924 94.3219C72.9349 94.3679 72.8639 94.3938 72.7902 94.3956H63.2992Z" fill="#253B80"/>
<path d="M96.535 49.1445C96.4761 49.5208 96.4087 49.9068 96.3329 50.3027C93.728 63.677 84.816 68.2972 73.4339 68.2972H67.6386C66.2467 68.2972 65.0737 69.308 64.8568 70.681L61.8897 89.4988L61.0495 94.8329C61.016 95.0445 61.0288 95.2608 61.0869 95.467C61.1451 95.6732 61.2472 95.8643 61.3863 96.0272C61.5254 96.1901 61.6981 96.321 61.8927 96.4107C62.0872 96.5004 62.2988 96.547 62.513 96.5471H72.7916C74.0088 96.5471 75.0428 95.6626 75.2344 94.4623L75.3355 93.94L77.2708 81.6588L77.395 80.9849C77.5845 79.7804 78.6206 78.8959 79.8378 78.8959H81.3751C91.3336 78.8959 99.1294 74.8527 101.408 63.1526C102.36 58.2649 101.867 54.1838 99.3485 51.3136C98.5491 50.4268 97.596 49.6919 96.535 49.1445Z" fill="#F7F7F7"/>
<path d="M93.8107 48.0591C92.9786 47.8198 92.1325 47.632 91.2773 47.4969C89.5873 47.2345 87.8788 47.1099 86.1686 47.1241H70.6864C70.0972 47.1237 69.5273 47.334 69.0796 47.7172C68.632 48.1003 68.3362 48.6309 68.2457 49.2131L64.9522 70.0736L64.8574 70.6822C64.96 70.0181 65.2969 69.4127 65.8072 68.9755C66.3174 68.5382 66.9673 68.2981 67.6392 68.2984H73.4345C84.8166 68.2984 93.7285 63.6761 96.3335 50.304C96.4107 49.9081 96.4781 49.522 96.5356 49.1458C95.8482 48.7853 95.1318 48.4832 94.394 48.2423C94.2005 48.1781 94.0061 48.1171 93.8107 48.0591Z" fill="#EAEAEA"/>
<path d="M68.2454 49.2129C68.3355 48.6307 68.6313 48.1001 69.079 47.7172C69.5268 47.3344 70.0969 47.1246 70.6861 47.126H86.1682C88.0024 47.126 89.7145 47.246 91.277 47.4987C91.7235 47.5703 92.158 47.6525 92.5805 47.7451C93.1927 47.8836 93.7984 48.0495 94.3958 48.2421C95.1651 48.4962 95.879 48.7973 96.5374 49.1455C97.3124 44.2031 96.5311 40.838 93.8588 37.7908C90.9127 34.4362 85.5954 33 78.7915 33H59.0386C57.6488 33 56.4632 34.0108 56.2484 35.3859L48.0209 87.5371C47.9825 87.7793 47.9971 88.0268 48.0636 88.2628C48.1301 88.4987 48.2469 88.7175 48.406 88.904C48.5651 89.0905 48.7627 89.2403 48.9852 89.3432C49.2077 89.446 49.4499 89.4995 49.695 89.4998H61.89L64.9519 70.0734L68.2454 49.2129Z" fill="white"/>
<path d="M335.433 71.8011V86.8145H329.854V49.8437H336.175C339.272 49.8437 341.611 50.0592 343.191 50.4902C344.787 50.9212 346.192 51.7353 347.405 52.9326C349.528 55.0078 350.59 57.6258 350.59 60.7865C350.59 64.1707 349.456 66.8525 347.19 68.8319C344.923 70.8114 341.866 71.8011 338.019 71.8011H335.433ZM335.433 66.629H337.516C342.64 66.629 345.202 64.6575 345.202 60.7146C345.202 56.8994 342.56 54.9918 337.276 54.9918H335.433V66.629ZM363.807 70.8433L351.739 49.8437H358.156L366.609 64.6176L375.085 49.8437H381.503L369.386 70.8433V86.8145H363.807V70.8433ZM391.368 49.8437V72.1124C391.368 75.289 391.887 77.6117 392.924 79.0803C394.473 81.2034 396.652 82.2649 399.461 82.2649C402.287 82.2649 404.474 81.2034 406.022 79.0803C407.06 77.6596 407.578 75.3369 407.578 72.1124V49.8437H413.158V73.6448C413.158 77.5398 411.944 80.7484 409.518 83.2706C406.788 86.0801 403.436 87.4849 399.461 87.4849C395.486 87.4849 392.142 86.0801 389.428 83.2706C387.002 80.7484 385.789 77.5398 385.789 73.6448V49.8437H391.368ZM442.945 55.351L438.419 58.0328C437.573 56.5642 436.767 55.6064 436.001 55.1594C435.203 54.6486 434.173 54.3932 432.912 54.3932C431.364 54.3932 430.079 54.8322 429.057 55.7102C428.035 56.5722 427.524 57.6577 427.524 58.9667C427.524 60.7705 428.865 62.2232 431.547 63.3246L435.235 64.8331C438.236 66.0463 440.431 67.5309 441.819 69.2869C443.208 71.0269 443.903 73.1659 443.903 75.7041C443.903 79.1042 442.769 81.9138 440.502 84.1326C438.22 86.3675 435.386 87.4849 432.002 87.4849C428.793 87.4849 426.144 86.5351 424.052 84.6355C421.993 82.7359 420.708 80.062 420.197 76.614L425.848 75.3688C426.104 77.5398 426.551 79.0404 427.189 79.8705C428.339 81.4668 430.015 82.2649 432.218 82.2649C433.958 82.2649 435.402 81.6823 436.552 80.517C437.701 79.3517 438.276 77.8751 438.276 76.0872C438.276 75.3688 438.172 74.7144 437.964 74.1237C437.773 73.5171 437.462 72.9664 437.031 72.4715C436.615 71.9607 436.073 71.4898 435.402 71.0588C434.732 70.6118 433.934 70.1888 433.008 69.7897L429.44 68.3051C424.38 66.1661 421.85 63.0373 421.85 58.9188C421.85 56.1412 422.911 53.8185 425.034 51.9508C427.157 50.0672 429.799 49.1254 432.96 49.1254C437.222 49.1254 440.55 51.2006 442.945 55.351ZM450.631 86.8145V49.8437H458.389C462.109 49.8437 465.046 50.2108 467.201 50.9452C469.516 51.6635 471.615 52.8847 473.498 54.6087C477.314 58.0887 479.221 62.6621 479.221 68.3291C479.221 74.012 477.234 78.6094 473.259 82.1213C471.264 83.8772 469.172 85.0984 466.985 85.7848C464.942 86.4712 462.045 86.8145 458.293 86.8145H450.631ZM456.21 81.5705H458.724C461.231 81.5705 463.314 81.3072 464.974 80.7804C466.634 80.2217 468.135 79.3357 469.476 78.1225C472.221 75.6163 473.594 72.3518 473.594 68.3291C473.594 64.2744 472.237 60.986 469.524 58.4638C467.081 56.213 463.482 55.0876 458.724 55.0876H456.21V81.5705Z" fill="white"/>
</svg>
