<svg width="627" height="362" viewBox="0 0 627 362" fill="none" xmlns="http://www.w3.org/2000/svg">
<path d="M625.815 188.736L326.898 361.316L1 173.158L299.917 0.578125L625.815 188.736Z" fill="#FCFDFD"/>
<path d="M625.815 188.736L626.065 189.169L626.815 188.736L626.065 188.303L625.815 188.736ZM326.898 361.316L326.648 361.749L326.898 361.894L327.148 361.749L326.898 361.316ZM1 173.158L0.75 172.725L1.90735e-06 173.158L0.749999 173.591L1 173.158ZM299.917 0.578125L300.167 0.145113L299.917 0.000774384L299.667 0.145112L299.917 0.578125ZM625.815 188.736L625.565 188.303L326.648 360.883L326.898 361.316L327.148 361.749L626.065 189.169L625.815 188.736ZM326.898 361.316L327.148 360.883L1.25 172.725L1 173.158L0.749999 173.591L326.648 361.749L326.898 361.316ZM1 173.158L1.25 173.591L300.167 1.01114L299.917 0.578125L299.667 0.145112L0.75 172.725L1 173.158ZM299.917 0.578125L299.667 1.01114L625.565 189.169L625.815 188.736L626.065 188.303L300.167 0.145113L299.917 0.578125Z" fill="#68C4BA"/>
<path d="M478.137 176.377L479.262 182.411L479.543 182.692L480.386 182.131L479.543 175.255L481.089 168.659H481.791H483.759L484.602 166.554L488.537 168.238L489.521 167.115H491.629L492.613 164.87L494.58 165.291V163.186L497.11 160.38C497.438 160.193 498.094 159.79 498.094 159.678C498.094 159.566 498.281 159.257 498.375 159.117L497.11 156.591L496.689 153.363L495.845 149.855C495.189 149.013 494.159 147.048 495.283 145.926C496.407 144.803 495.002 142.464 494.159 141.435L494.58 140.313L494.159 139.19L493.034 138.909V137.647L492.332 134.84L491.629 133.016L489.802 133.437V132.595L489.24 131.191L488.116 129.648L487.132 128.946H484.462L481.791 126.561H480.527L478.559 127.824H477.435H476.591L476.17 128.946L473.5 130.77C470.352 130.658 470.408 132.501 470.829 133.437V134.84C464.983 137.422 466.801 143.306 468.44 145.926L467.457 147.329L466.894 149.013L468.44 150.416L468.159 151.118L466.613 151.539L463.662 151.82C461.638 155.075 463.756 157.386 465.067 158.134V159.117L464.646 159.678V161.081L465.489 162.064L467.738 163.186L468.721 164.59L469.986 166.554L470.829 165.993L471.954 164.87L472.235 166.975L473.078 167.396L475.186 167.115L476.17 168.098L478.137 169.641V176.377Z" fill="#FCFDFD"/>
<path d="M495.054 148.317L494.638 148.28C494.466 149.051 495.878 150.208 495.624 151.039C494.981 150.837 494.691 150.697 494.028 150.712L493.965 150.975C494.702 151.656 495.311 151.332 495.927 151.758C496.679 152.278 495.435 153.147 495.705 154.35C496.113 154.745 496.304 154.891 496.487 155.452C496.539 156.385 496.493 156.657 497.123 157.265L497.257 157.039C496.145 152.932 497.213 151.961 495.054 148.317Z" fill="#68C4BA"/>
<path d="M494.82 158.844C494.482 158.837 494.645 158.796 494.339 158.999C494.915 159.666 495.856 159.339 496.261 160.181C496.078 160.873 494.939 161.701 494.248 162.642L494.101 162.842C493.208 162.356 493.007 162.23 491.965 161.998L491.826 162.228L492.122 162.404L494.222 163.514C495.475 161.794 495.614 161.895 497.239 160.578C497.555 160.323 497.418 160.066 497.356 159.762C496.6 159.095 495.886 159.103 494.82 158.844Z" fill="#68C4BA"/>
<path d="M493.697 144.805C491.559 145.055 491.818 146.878 489.865 145.249L489.487 145.694C491.023 147.634 492.554 146.356 493.697 144.805Z" fill="#68C4BA"/>
<path d="M481.374 126.094C477.783 126.075 479.462 127.419 476.782 127.192C475.724 127.629 474.334 129.422 473.655 130.384C472.466 130.375 471.571 130.404 470.488 130.909C469.581 132.141 470.8 132.36 470.501 134.285C470.038 134.874 469.797 134.654 468.863 134.992C464.981 139.567 465.783 140.608 467.819 145.598C467.463 147.464 464.327 148.162 467.938 150.276L468.011 150.635C467.047 151.339 463.734 150.994 463.734 150.994L462.971 151.405C462.869 151.507 462.584 151.917 462.584 152.378L462.461 152.839C462.074 154.701 462.828 156.19 463.734 157.933C463.844 158.147 464.466 158.089 464.686 158.754C462.983 161.126 465.332 161.927 466.431 163.656C466.038 163.916 465.717 164.047 465.564 164.478L465.925 164.852L466.296 164.847C466.451 164.623 466.61 164.4 466.771 164.179C467.273 163.502 467.09 163.573 467.732 163.474C468.378 164.778 468.825 165.802 469.763 166.933L471.404 165.33C471.642 166.401 471.624 166.958 472.44 167.575C473.261 167.769 473.957 167.44 474.795 167.18C476.099 168.928 476.766 170.118 477.808 172.002C477.425 177.498 477.62 177.104 478.752 182.495L479.07 182.693L479.38 182.512C479.276 180.818 477.965 177.76 478.167 176.274C478.505 173.794 477.771 169.807 478.22 167.625L478.709 167.719L478.942 167.759C478.919 168.585 478.785 170.331 479.141 170.96C479.494 170.398 479.58 168.859 479.663 168.106C480.171 167.596 479.973 167.637 480.534 167.6C480.785 168.554 478.909 173.289 478.956 174.89C478.993 176.131 479.618 181.484 480.175 182.24C480.936 181.984 479.207 176.354 479.512 175.071C480 173.044 480.051 170.55 481.205 168.691C481.682 168.504 481.708 168.609 482.21 168.816C484.616 169.806 483.596 167.905 484.277 166.927C485.67 167.096 486.936 168.639 488.308 168.424C488.702 168.014 488.73 167.941 488.989 167.46L489.061 167.327C489.88 166.877 490.015 167.241 490.847 167.2C492.266 167.13 491.64 165.919 492.521 164.922C493.481 164.803 493.356 165.175 494.476 165.376L494.633 165.036C494.266 164.505 492.343 163.787 491.613 164.138C491.817 167.22 490.92 166.745 488.873 166.513C488.484 166.469 488.757 167.389 487.915 167.851C486.432 167.606 484.573 165.858 483.835 165.778C483.664 166.905 483.79 168.212 482.632 168.504C480.524 167.657 481.668 166.075 481.093 165.047C480.55 165.371 480.978 165.887 480.383 166.844L479.435 166.816L479.084 167.197L478.73 167.143C478.201 166.51 478.289 165.794 477.914 164.862C477.818 165.241 477.714 165.618 477.602 165.992C477.333 166.876 477.19 167.076 476.403 167.497C474.833 167.505 475.526 165.789 474.56 165.109C474.252 165.505 474.597 165.71 474.493 166.568C473.594 167.128 472.68 167.45 472.007 166.484C471.901 165.495 472.438 164.704 472.164 164.141L471.653 164.06C471.08 164.321 470.666 165.21 470.001 165.841L469.581 165.786C468.735 164.923 468.745 163.754 467.93 162.533C467.436 162.667 467.287 162.674 466.79 162.724C465.426 162.203 465.216 161.35 464.466 159.993C466.174 158.332 465.758 158.373 463.968 156.921C462.602 155.813 462.28 152.712 463.921 151.787C465.342 150.986 467.291 152.421 468.517 150.862C468.276 149.045 465.426 149.404 468.466 145.903C469.638 146.705 472.837 148.88 474.14 148.921L474.321 148.613C473.995 147.849 472.034 147.352 471.084 146.997C466.221 145.182 465.161 136.687 470.49 135.072C470.882 135.215 471.171 135.31 471.571 135.424C471.787 134.213 469.879 133.158 471.053 131.417C473.223 130.178 473.324 131.269 474.644 132.44L474.762 132.18C474.389 131.545 474.295 131.444 474.136 130.742C474.68 129.439 475.628 129.231 476.88 129.269C476.585 128.761 476.585 128.723 476.422 128.185L476.615 127.858L477.078 127.834C477.574 128.279 477.427 128.062 477.478 128.926C478.889 128.249 477.288 127.462 480.895 126.484C481.529 126.816 482.563 127.353 483.046 127.862C483.464 128.301 483.686 129.117 484.179 129.464L484.834 128.864C485.633 128.584 486.498 129.016 487.222 129.362C487.354 130.124 486.875 130.725 486.439 131.415L488.117 130.183C488.53 130.921 489.132 131.83 489.169 132.636C488.722 132.92 488.278 133.207 487.837 133.499L487.831 133.778C489.185 134.466 489.564 133.18 491.012 133.126C491.56 133.623 491.389 133.471 491.595 134.331C491.208 135.096 490.168 135.433 489.32 136.242L489.344 136.532L489.825 136.534C490.539 135.963 490.718 135.845 491.55 135.452L491.748 135.361C491.946 136.058 492.412 137.512 492.304 138.195C492.258 138.493 491.554 138.782 491.195 138.984L491.191 139.267C491.948 139.535 492.152 138.897 493.338 139.05C494.321 139.985 493.21 141.223 493.624 142.14L493.921 142.049C494.341 141.239 494.423 139.8 494.146 138.94C493.836 137.982 493.299 138.981 492.837 137.498C492.317 135.83 492.333 133.793 491.595 132.271C490.979 132.159 490.71 132.519 490.043 132.945L489.841 132.809L490.064 132.225C489.228 131.382 489.195 130.437 488.241 129.39C487.071 128.108 485.331 128.709 484.495 128.196C483.723 127.722 482.265 126.665 481.374 126.094Z" fill="#68C4BA"/>
<path d="M319.78 129.862L320.904 135.896L321.185 136.176L322.029 135.615L321.185 128.739L322.731 122.144H323.434H325.402L326.245 120.039L330.18 121.723L331.164 120.6H333.272L334.256 118.355L336.223 118.776V116.671L338.753 113.864C339.081 113.677 339.737 113.275 339.737 113.162C339.737 113.05 339.924 112.741 340.018 112.601L338.753 110.075L338.331 106.848L337.488 103.339C336.832 102.497 335.801 100.533 336.926 99.4102C338.05 98.2876 336.645 95.9488 335.801 94.9198L336.223 93.7971L335.801 92.6745L334.677 92.3938V91.1309L333.974 88.3243L333.272 86.5L331.445 86.921V86.0791L330.882 84.6758L329.758 83.1322L328.774 82.4305H326.104L323.434 80.0449H322.169L320.202 81.3079H319.077H318.234L317.812 82.4305L315.142 84.2548C311.994 84.1425 312.05 85.9855 312.472 86.921V88.3243C306.626 90.9063 308.443 96.7908 310.083 99.4102L309.099 100.814L308.537 102.497L310.083 103.901L309.802 104.602L308.256 105.023L305.305 105.304C303.281 108.56 305.398 110.87 306.71 111.619V112.601L306.288 113.162V114.566L307.132 115.548L309.38 116.671L310.364 118.074L311.629 120.039L312.472 119.477L313.596 118.355L313.877 120.46L314.721 120.881L316.829 120.6L317.812 121.582L319.78 123.126V129.862Z" fill="#FCFDFD"/>
<path d="M336.697 101.802L336.281 101.765C336.108 102.536 337.52 103.692 337.267 104.524C336.623 104.322 336.334 104.182 335.67 104.197L335.608 104.459C336.344 105.14 336.954 104.817 337.569 105.243C338.321 105.763 337.078 106.632 337.348 107.834C337.756 108.229 337.947 108.376 338.13 108.937C338.182 109.869 338.135 110.141 338.766 110.749L338.899 110.523C337.787 106.417 338.855 105.445 336.697 101.802Z" fill="#68C4BA"/>
<path d="M336.462 112.328C336.125 112.322 336.288 112.28 335.982 112.484C336.558 113.15 337.498 112.823 337.903 113.665C337.721 114.358 336.581 115.186 335.891 116.126L335.744 116.326C334.85 115.841 334.65 115.715 333.608 115.482L333.469 115.712L333.765 115.888L335.865 116.998C337.117 115.279 337.256 115.379 338.882 114.062C339.198 113.807 339.061 113.551 338.999 113.247C338.243 112.579 337.528 112.587 336.462 112.328Z" fill="#68C4BA"/>
<path d="M335.34 98.2891C333.201 98.5393 333.46 100.362 331.507 98.7332L331.13 99.1789C332.665 101.119 334.196 99.8408 335.34 98.2891Z" fill="#68C4BA"/>
<path d="M323.017 79.5783C319.426 79.5591 321.104 80.9037 318.425 80.6768C317.367 81.1134 315.976 82.9062 315.297 83.8688C314.109 83.859 313.214 83.8879 312.131 84.3937C311.224 85.6252 312.443 85.8439 312.143 87.7697C311.68 88.3579 311.44 88.1384 310.506 88.4768C306.624 93.0516 307.425 94.0923 309.462 99.0822C309.105 100.949 305.969 101.647 309.58 103.761L309.654 104.119C308.689 104.824 305.376 104.479 305.376 104.479L304.614 104.889C304.512 104.991 304.226 105.401 304.226 105.863L304.104 106.324C303.716 108.185 304.471 109.674 305.376 111.418C305.486 111.632 306.108 111.573 306.328 112.238C304.626 114.611 306.975 115.412 308.074 117.14C307.68 117.4 307.36 117.531 307.207 117.962L307.568 118.336L307.939 118.331C308.094 118.107 308.253 117.884 308.414 117.664C308.916 116.987 308.732 117.057 309.374 116.958C310.021 118.262 310.467 119.287 311.405 120.417L313.046 118.815C313.285 119.885 313.267 120.442 314.082 121.06C314.904 121.253 315.599 120.925 316.437 120.665C317.742 122.412 318.409 123.602 319.451 125.486C319.067 130.983 319.263 130.588 320.395 135.979L320.713 136.177L321.023 135.996C320.919 134.303 319.608 131.244 319.809 129.758C320.148 127.278 319.414 123.291 319.862 121.109L320.352 121.203L320.584 121.243C320.562 122.07 320.427 123.815 320.784 124.444C321.137 123.882 321.222 122.343 321.306 121.591C321.814 121.081 321.616 121.122 322.177 121.084C322.427 122.039 320.552 126.773 320.598 128.375C320.635 129.615 321.261 134.968 321.818 135.725C322.578 135.468 320.849 129.838 321.155 128.555C321.642 126.528 321.693 124.035 322.847 122.176C323.324 121.988 323.351 122.094 323.852 122.3C326.258 123.29 325.239 121.389 325.92 120.412C327.313 120.58 328.579 122.123 329.951 121.908C330.344 121.498 330.373 121.425 330.632 120.945L330.703 120.812C331.523 120.361 331.657 120.725 332.489 120.684C333.908 120.614 333.282 119.403 334.163 118.407C335.123 118.288 334.999 118.659 336.118 118.861L336.275 118.52C335.908 117.989 333.986 117.272 333.256 117.622C333.46 120.705 332.563 120.229 330.516 119.997C330.126 119.953 330.399 120.873 329.557 121.336C328.075 121.091 326.216 119.343 325.477 119.262C325.306 120.389 325.433 121.696 324.275 121.988C322.166 121.141 323.31 119.559 322.735 118.531C322.193 118.856 322.621 119.372 322.026 120.328L321.078 120.301L320.727 120.681L320.372 120.628C319.844 119.995 319.932 119.278 319.557 118.346C319.461 118.725 319.357 119.102 319.245 119.477C318.975 120.36 318.833 120.56 318.046 120.981C316.476 120.99 317.169 119.274 316.203 118.593C315.895 118.99 316.239 119.194 316.135 120.053C315.236 120.612 314.323 120.934 313.65 119.969C313.544 118.979 314.08 118.189 313.807 117.626L313.295 117.544C312.722 117.806 312.308 118.694 311.644 119.325L311.224 119.271C310.378 118.408 310.388 117.239 309.572 116.018C309.079 116.152 308.93 116.158 308.432 116.208C307.068 115.687 306.858 114.835 306.108 113.478C307.817 111.816 307.401 111.858 305.611 110.406C304.245 109.297 303.922 106.196 305.564 105.271C306.985 104.47 308.934 105.905 310.159 104.346C309.919 102.529 307.068 102.888 310.108 99.3878C311.281 100.189 314.48 102.365 315.783 102.405L315.964 102.097C315.638 101.333 313.676 100.836 312.726 100.481C307.864 98.6662 306.803 90.1711 312.133 88.5561C312.524 88.699 312.814 88.7945 313.214 88.9084C313.43 87.697 311.521 86.6423 312.696 84.9017C314.865 83.6625 314.967 84.7534 316.286 85.9244L316.404 85.6639C316.031 85.0298 315.938 84.9284 315.778 84.226C316.323 82.9238 317.271 82.7152 318.523 82.7533C318.227 82.2451 318.227 82.2073 318.064 81.6696L318.258 81.3421L318.721 81.3179C319.216 81.7632 319.069 81.546 319.12 82.4102C320.531 81.7333 318.931 80.9459 322.537 79.9679C323.172 80.2999 324.205 80.8371 324.688 81.346C325.106 81.7856 325.329 82.6017 325.822 82.9484L326.477 82.3479C327.276 82.068 328.14 82.5008 328.864 82.846C328.997 83.6086 328.517 84.2094 328.081 84.8995L329.759 83.6672C330.173 84.4056 330.775 85.3145 330.811 86.1206C330.365 86.4042 329.92 86.6917 329.48 86.9832L329.474 87.2619C330.828 87.9505 331.207 86.6645 332.654 86.61C333.203 87.1069 333.032 86.9551 333.237 87.815C332.85 88.5801 331.81 88.9174 330.962 89.7259L330.987 90.0167L331.468 90.0186C332.181 89.4472 332.361 89.329 333.193 88.9367L333.39 88.8451C333.588 89.5423 334.055 90.9968 333.947 91.6799C333.9 91.9779 333.197 92.2664 332.838 92.4687L332.834 92.7515C333.59 93.0198 333.794 92.3812 334.981 92.5343C335.963 93.4692 334.852 94.7077 335.266 95.6246L335.564 95.5338C335.984 94.7233 336.065 93.2848 335.788 92.4248C335.478 91.4659 334.942 92.4652 334.479 90.982C333.959 89.3142 333.976 87.2777 333.237 85.7558C332.622 85.6435 332.353 86.0029 331.686 86.429L331.484 86.2937L331.706 85.7096C330.87 84.8665 330.838 83.9213 329.884 82.8746C328.713 81.5925 326.974 82.1932 326.138 81.6802C325.365 81.2062 323.908 80.1493 323.017 79.5783Z" fill="#68C4BA"/>
<path d="M233.238 175.395L232.113 181.429L231.832 181.71L230.989 181.148L231.832 174.272L230.286 167.677H229.584H227.616L226.773 165.572L222.838 167.256L221.854 166.133H219.746L218.762 163.888L216.795 164.309V162.204L214.265 159.397C213.937 159.21 213.281 158.808 213.281 158.696C213.281 158.583 213.094 158.275 213 158.134L214.265 155.608L214.686 152.381L215.53 148.873C216.186 148.031 217.216 146.066 216.092 144.943C214.968 143.821 216.373 141.482 217.216 140.453L216.795 139.33L217.216 138.208L218.341 137.927V136.664L219.043 133.857L219.746 132.033L221.573 132.454V131.612L222.135 130.209L223.259 128.665L224.243 127.964H226.913L229.584 125.578H230.848L232.816 126.841H233.94H234.784L235.205 127.964L237.875 129.788C241.023 129.676 240.967 131.519 240.546 132.454V133.857C246.392 136.44 244.574 142.324 242.935 144.943L243.918 146.347L244.481 148.031L242.935 149.434L243.216 150.136L244.762 150.557L247.713 150.837C249.737 154.093 247.619 156.404 246.308 157.152V158.134L246.729 158.696V160.099L245.886 161.081L243.637 162.204L242.654 163.607L241.389 165.572L240.546 165.01L239.421 163.888L239.14 165.993L238.297 166.414L236.189 166.133L235.205 167.115L233.238 168.659V175.395Z" fill="#FCFDFD"/>
<path d="M308.12 260.108L306.996 266.142L306.715 266.422L305.872 265.861L306.715 258.985L305.169 252.39H304.466H302.499L301.656 250.285L297.72 251.969L296.737 250.846H294.629L293.645 248.601L291.677 249.022V246.917L289.148 244.11C288.82 243.923 288.164 243.521 288.164 243.409C288.164 243.296 287.977 242.988 287.883 242.847L289.148 240.321L289.569 237.094L290.412 233.586C291.068 232.744 292.099 230.779 290.975 229.656C289.85 228.534 291.256 226.195 292.099 225.166L291.677 224.043L292.099 222.921L293.223 222.64V221.377L293.926 218.57L294.629 216.746L296.456 217.167V216.325L297.018 214.922L298.142 213.378L299.126 212.677H301.796L304.466 210.291H305.731L307.699 211.554H308.823H309.666L310.088 212.677L312.758 214.501C315.906 214.389 315.85 216.232 315.428 217.167V218.57C321.275 221.152 319.457 227.037 317.818 229.656L318.801 231.06L319.363 232.744L317.818 234.147L318.099 234.848L319.645 235.269L322.596 235.55C324.62 238.806 322.502 241.117 321.19 241.865V242.847L321.612 243.409V244.812L320.769 245.794L318.52 246.917L317.536 248.32L316.272 250.285L315.428 249.723L314.304 248.601L314.023 250.706L313.18 251.127L311.072 250.846L310.088 251.828L308.12 253.372V260.108Z" fill="#FCFDFD"/>
<path d="M291.204 232.048L291.62 232.011C291.792 232.782 290.38 233.938 290.634 234.77C291.277 234.568 291.567 234.428 292.23 234.443L292.293 234.705C291.556 235.386 290.947 235.063 290.331 235.489C289.579 236.009 290.823 236.878 290.552 238.08C290.145 238.475 289.954 238.622 289.771 239.183C289.719 240.115 289.765 240.387 289.135 240.996L289.001 240.769C290.113 236.663 289.045 235.691 291.204 232.048Z" fill="#68C4BA"/>
<path d="M291.438 242.574C291.776 242.568 291.613 242.526 291.918 242.73C291.343 243.396 290.402 243.069 289.997 243.912C290.18 244.604 291.319 245.432 292.01 246.372L292.157 246.572C293.05 246.087 293.25 245.961 294.293 245.728L294.432 245.958L294.136 246.134L292.036 247.244C290.783 245.525 290.644 245.625 289.018 244.308C288.703 244.053 288.84 243.797 288.901 243.493C289.658 242.825 290.372 242.833 291.438 242.574Z" fill="#68C4BA"/>
<path d="M292.561 228.535C294.699 228.785 294.44 230.608 296.393 228.979L296.77 229.425C295.235 231.365 293.704 230.087 292.561 228.535Z" fill="#68C4BA"/>
<path d="M304.884 209.824C308.474 209.805 306.796 211.15 309.475 210.923C310.534 211.359 311.924 213.152 312.603 214.115C313.792 214.105 314.687 214.134 315.769 214.64C316.677 215.871 315.457 216.09 315.757 218.016C316.22 218.604 316.461 218.385 317.394 218.723C321.276 223.298 320.475 224.338 318.438 229.328C318.795 231.195 321.931 231.893 318.32 234.007L318.247 234.365C319.211 235.07 322.524 234.725 322.524 234.725L323.287 235.135C323.389 235.237 323.674 235.647 323.674 236.109L323.797 236.57C324.184 238.432 323.43 239.92 322.524 241.664C322.414 241.878 321.792 241.819 321.572 242.484C323.275 244.857 320.926 245.658 319.827 247.386C320.22 247.646 320.54 247.777 320.693 248.208L320.332 248.582L319.961 248.577C319.806 248.353 319.647 248.131 319.486 247.91C318.985 247.233 319.168 247.303 318.526 247.204C317.88 248.508 317.433 249.533 316.495 250.663L314.854 249.061C314.615 250.131 314.634 250.688 313.818 251.306C312.997 251.499 312.301 251.171 311.463 250.911C310.158 252.658 309.492 253.848 308.45 255.733C308.833 261.229 308.637 260.834 307.506 266.225L307.188 266.423L306.878 266.242C306.982 264.549 308.293 261.49 308.091 260.004C307.753 257.524 308.487 253.538 308.038 251.355L307.549 251.449L307.316 251.489C307.339 252.316 307.473 254.061 307.116 254.69C306.764 254.128 306.678 252.589 306.594 251.837C306.087 251.327 306.285 251.368 305.724 251.331C305.473 252.285 307.349 257.019 307.302 258.621C307.265 259.861 306.639 265.214 306.083 265.971C305.322 265.715 307.051 260.084 306.745 258.801C306.258 256.774 306.207 254.281 305.053 252.422C304.576 252.234 304.549 252.34 304.048 252.546C301.642 253.536 302.661 251.635 301.98 250.658C300.588 250.827 299.322 252.37 297.95 252.154C297.556 251.744 297.528 251.671 297.269 251.191L297.197 251.058C296.378 250.607 296.243 250.971 295.411 250.93C293.992 250.86 294.618 249.649 293.737 248.653C292.777 248.534 292.901 248.905 291.782 249.107L291.625 248.766C291.992 248.235 293.915 247.518 294.645 247.868C294.441 250.951 295.338 250.475 297.385 250.244C297.774 250.199 297.501 251.119 298.343 251.582C299.825 251.337 301.685 249.589 302.423 249.509C302.594 250.635 302.468 251.942 303.626 252.234C305.734 251.387 304.59 249.805 305.165 248.778C305.708 249.102 305.279 249.618 305.875 250.574L306.823 250.547L307.174 250.927L307.528 250.874C308.056 250.241 307.969 249.525 308.344 248.592C308.44 248.971 308.544 249.348 308.656 249.723C308.925 250.606 309.068 250.806 309.855 251.227C311.425 251.236 310.731 249.52 311.698 248.839C312.006 249.236 311.661 249.44 311.765 250.299C312.664 250.859 313.578 251.18 314.25 250.215C314.357 249.225 313.82 248.435 314.093 247.872L314.605 247.79C315.178 248.052 315.592 248.94 316.257 249.571L316.677 249.517C317.523 248.654 317.513 247.485 318.328 246.264C318.822 246.398 318.97 246.404 319.468 246.454C320.832 245.934 321.042 245.081 321.792 243.724C320.084 242.062 320.5 242.104 322.29 240.652C323.656 239.544 323.978 236.443 322.337 235.517C320.916 234.716 318.966 236.151 317.741 234.592C317.982 232.775 320.832 233.134 317.792 229.634C316.62 230.435 313.421 232.611 312.118 232.652L311.936 232.343C312.263 231.579 314.224 231.082 315.174 230.727C320.037 228.912 321.097 220.417 315.767 218.802C315.376 218.945 315.086 219.041 314.687 219.155C314.471 217.943 316.379 216.888 315.205 215.148C313.035 213.909 312.933 214.999 311.614 216.171L311.496 215.91C311.869 215.276 311.963 215.174 312.122 214.472C311.578 213.17 310.629 212.961 309.378 212.999C309.673 212.491 309.673 212.453 309.836 211.916L309.643 211.588L309.18 211.564C308.684 212.009 308.831 211.792 308.78 212.656C307.369 211.979 308.97 211.192 305.363 210.214C304.729 210.546 303.695 211.083 303.212 211.592C302.794 212.032 302.572 212.848 302.078 213.195L301.424 212.594C300.625 212.314 299.76 212.747 299.036 213.092C298.904 213.855 299.383 214.456 299.819 215.146L298.141 213.913C297.727 214.652 297.126 215.561 297.089 216.367C297.536 216.65 297.98 216.938 298.421 217.229L298.427 217.508C297.073 218.197 296.694 216.911 295.246 216.856C294.698 217.353 294.869 217.201 294.663 218.061C295.05 218.826 296.09 219.164 296.938 219.972L296.914 220.263L296.433 220.265C295.719 219.693 295.54 219.575 294.708 219.183L294.51 219.091C294.312 219.788 293.845 221.243 293.953 221.926C294 222.224 294.704 222.513 295.063 222.715L295.067 222.998C294.31 223.266 294.106 222.627 292.92 222.78C291.937 223.715 293.048 224.954 292.634 225.871L292.337 225.78C291.917 224.969 291.835 223.531 292.112 222.671C292.422 221.712 292.958 222.711 293.421 221.228C293.941 219.56 293.925 217.524 294.663 216.002C295.279 215.89 295.548 216.249 296.215 216.675L296.416 216.54L296.194 215.956C297.03 215.113 297.063 214.167 298.017 213.121C299.187 211.839 300.926 212.439 301.762 211.926C302.535 211.452 303.993 210.395 304.884 209.824Z" fill="#68C4BA"/>
<path d="M327.051 267.125L328.176 273.159L328.457 273.44L329.3 272.879L328.457 266.003L330.003 259.407H330.706H332.673L333.516 257.302L337.451 258.986L338.435 257.864H340.543L341.527 255.618L343.494 256.039V253.934L346.024 251.128C346.352 250.941 347.008 250.538 347.008 250.426C347.008 250.314 347.195 250.005 347.289 249.865L346.024 247.339L345.603 244.111L344.759 240.603C344.103 239.761 343.073 237.797 344.197 236.674C345.321 235.551 343.916 233.212 343.073 232.183L343.494 231.061L343.073 229.938L341.949 229.658V228.395L341.246 225.588L340.543 223.764L338.716 224.185V223.343L338.154 221.939L337.03 220.396L336.046 219.694H333.376L330.705 217.309H329.441L327.473 218.572H326.349H325.506L325.084 219.694L322.414 221.518C319.266 221.406 319.322 223.249 319.743 224.185V225.588C313.897 228.17 315.715 234.054 317.354 236.674L316.371 238.077L315.808 239.761L317.354 241.164L317.073 241.866L315.527 242.287L312.576 242.568C310.552 245.823 312.67 248.134 313.981 248.883V249.865L313.56 250.426V251.829L314.403 252.812L316.652 253.934L317.635 255.338L318.9 257.302L319.743 256.741L320.868 255.618L321.149 257.723L321.992 258.144L324.1 257.864L325.084 258.846L327.051 260.389V267.125Z" fill="#FCFDFD"/>
<path d="M343.968 239.065L343.552 239.028C343.38 239.799 344.792 240.956 344.538 241.787C343.895 241.585 343.605 241.445 342.942 241.46L342.879 241.723C343.616 242.404 344.225 242.081 344.841 242.506C345.593 243.026 344.349 243.895 344.619 245.098C345.027 245.493 345.218 245.639 345.401 246.2C345.453 247.133 345.407 247.405 346.037 248.013L346.171 247.787C345.059 243.68 346.127 242.709 343.968 239.065Z" fill="#68C4BA"/>
<path d="M343.734 249.592C343.396 249.585 343.559 249.544 343.253 249.747C343.829 250.414 344.77 250.087 345.175 250.929C344.992 251.621 343.853 252.449 343.162 253.39L343.015 253.59C342.122 253.104 341.921 252.978 340.879 252.746L340.74 252.976L341.036 253.152L343.136 254.262C344.389 252.542 344.528 252.643 346.153 251.326C346.469 251.071 346.332 250.814 346.271 250.511C345.514 249.843 344.8 249.851 343.734 249.592Z" fill="#68C4BA"/>
<path d="M342.611 235.551C340.473 235.801 340.732 237.624 338.779 235.995L338.401 236.441C339.937 238.38 341.468 237.103 342.611 235.551Z" fill="#68C4BA"/>
<path d="M330.288 216.84C326.698 216.821 328.376 218.165 325.696 217.939C324.638 218.375 323.248 220.168 322.569 221.131C321.38 221.121 320.485 221.15 319.402 221.655C318.495 222.887 319.714 223.106 319.415 225.031C318.952 225.62 318.711 225.4 317.777 225.739C313.895 230.313 314.697 231.354 316.734 236.344C316.377 238.211 313.241 238.908 316.852 241.022L316.925 241.381C315.961 242.085 312.648 241.741 312.648 241.741L311.885 242.151C311.783 242.253 311.498 242.663 311.498 243.125L311.375 243.585C310.988 245.447 311.742 246.936 312.648 248.679C312.758 248.893 313.38 248.835 313.6 249.5C311.897 251.872 314.246 252.673 315.345 254.402C314.952 254.662 314.631 254.793 314.479 255.224L314.839 255.598L315.21 255.593C315.365 255.369 315.524 255.146 315.686 254.925C316.187 254.248 316.004 254.319 316.646 254.22C317.292 255.524 317.739 256.548 318.677 257.679L320.318 256.076C320.556 257.147 320.538 257.704 321.354 258.322C322.175 258.515 322.871 258.186 323.709 257.926C325.013 259.674 325.68 260.864 326.722 262.748C326.339 268.245 326.534 267.85 327.666 273.241L327.984 273.439L328.294 273.258C328.19 271.564 326.879 268.506 327.081 267.02C327.419 264.54 326.685 260.553 327.134 258.371L327.623 258.465L327.856 258.505C327.833 259.332 327.699 261.077 328.055 261.706C328.408 261.144 328.494 259.605 328.577 258.853C329.085 258.342 328.887 258.383 329.448 258.346C329.699 259.301 327.823 264.035 327.87 265.636C327.907 266.877 328.533 272.23 329.089 272.987C329.85 272.73 328.121 267.1 328.427 265.817C328.914 263.79 328.965 261.297 330.119 259.437C330.596 259.25 330.622 259.355 331.124 259.562C333.53 260.552 332.51 258.651 333.191 257.674C334.584 257.842 335.85 259.385 337.222 259.17C337.616 258.76 337.644 258.687 337.903 258.207L337.975 258.074C338.794 257.623 338.929 257.987 339.761 257.946C341.18 257.876 340.554 256.665 341.435 255.669C342.395 255.549 342.271 255.921 343.39 256.122L343.547 255.782C343.18 255.251 341.257 254.534 340.527 254.884C340.731 257.966 339.834 257.491 337.787 257.259C337.398 257.215 337.671 258.135 336.829 258.597C335.346 258.352 333.487 256.604 332.749 256.524C332.578 257.651 332.704 258.958 331.546 259.25C329.438 258.403 330.582 256.821 330.007 255.793C329.464 256.117 329.892 256.633 329.297 257.59L328.349 257.562L327.998 257.943L327.644 257.89C327.116 257.256 327.203 256.54 326.828 255.608C326.732 255.987 326.628 256.364 326.516 256.738C326.247 257.622 326.104 257.822 325.317 258.243C323.747 258.251 324.441 256.535 323.474 255.855C323.166 256.251 323.511 256.456 323.407 257.314C322.508 257.874 321.594 258.196 320.921 257.23C320.815 256.241 321.352 255.45 321.078 254.887L320.567 254.806C319.994 255.067 319.58 255.956 318.915 256.587L318.495 256.533C317.649 255.67 317.659 254.501 316.844 253.279C316.35 253.414 316.201 253.42 315.704 253.47C314.34 252.949 314.13 252.097 313.38 250.739C315.088 249.078 314.672 249.119 312.882 247.667C311.516 246.559 311.194 243.458 312.835 242.533C314.256 241.732 316.205 243.167 317.431 241.608C317.19 239.791 314.34 240.15 317.38 236.65C318.552 237.451 321.751 239.626 323.054 239.667L323.236 239.359C322.909 238.595 320.948 238.098 319.998 237.743C315.135 235.928 314.075 227.433 319.404 225.818C319.796 225.961 320.085 226.056 320.485 226.17C320.701 224.959 318.793 223.904 319.967 222.163C322.137 220.924 322.239 222.015 323.558 223.186L323.676 222.926C323.303 222.292 323.209 222.19 323.05 221.488C323.594 220.186 324.542 219.977 325.794 220.015C325.499 219.507 325.499 219.469 325.336 218.931L325.529 218.604L325.992 218.58C326.488 219.025 326.341 218.808 326.392 219.672C327.803 218.995 326.202 218.208 329.809 217.23C330.443 217.562 331.477 218.099 331.96 218.608C332.378 219.047 332.6 219.863 333.094 220.21L333.748 219.61C334.547 219.33 335.412 219.763 336.136 220.108C336.268 220.87 335.789 221.471 335.353 222.161L337.031 220.929C337.445 221.667 338.046 222.576 338.083 223.382C337.636 223.666 337.192 223.953 336.751 224.245L336.745 224.524C338.099 225.212 338.478 223.926 339.926 223.872C340.474 224.369 340.303 224.217 340.509 225.077C340.122 225.842 339.082 226.179 338.234 226.988L338.258 227.278L338.739 227.28C339.453 226.709 339.632 226.591 340.464 226.198L340.662 226.107C340.86 226.804 341.327 228.259 341.218 228.942C341.172 229.24 340.468 229.528 340.109 229.73L340.105 230.013C340.862 230.282 341.066 229.643 342.252 229.796C343.235 230.731 342.124 231.969 342.538 232.886L342.835 232.796C343.255 231.985 343.337 230.547 343.06 229.687C342.75 228.728 342.213 229.727 341.751 228.244C341.231 226.576 341.247 224.539 340.509 223.017C339.893 222.905 339.624 223.265 338.957 223.691L338.755 223.555L338.978 222.971C338.142 222.128 338.109 221.183 337.155 220.136C335.985 218.854 334.245 219.455 333.41 218.942C332.637 218.468 331.179 217.411 330.288 216.84Z" fill="#68C4BA"/>
<path d="M371.04 168.862L372.164 174.896L372.445 175.176L373.288 174.615L372.445 167.739L373.991 161.144H374.694H376.661L377.505 159.039L381.44 160.723L382.423 159.6H384.532L385.515 157.355L387.483 157.776V155.671L390.013 152.864C390.34 152.677 390.996 152.275 390.996 152.162C390.996 152.05 391.184 151.741 391.277 151.601L390.013 149.075L389.591 145.848L388.748 142.339C388.092 141.497 387.061 139.533 388.185 138.41C389.31 137.288 387.904 134.949 387.061 133.92L387.483 132.797L387.061 131.674L385.937 131.394V130.131L385.234 127.324L384.531 125.5L382.704 125.921V125.079L382.142 123.676L381.018 122.132L380.034 121.431H377.364L374.694 119.045H373.429L371.461 120.308H370.337H369.494L369.072 121.431L366.402 123.255C363.254 123.142 363.31 124.985 363.732 125.921V127.324C357.885 129.906 359.703 135.791 361.343 138.41L360.359 139.814L359.797 141.497L361.343 142.901L361.062 143.602L359.516 144.023L356.564 144.304C354.541 147.56 356.658 149.87 357.97 150.619V151.601L357.548 152.162V153.566L358.391 154.548L360.64 155.671L361.624 157.074L362.889 159.039L363.732 158.477L364.856 157.355L365.137 159.46L365.98 159.881L368.088 159.6L369.072 160.582L371.04 162.126V168.862Z" fill="#FCFDFD"/>
<path d="M387.956 140.802L387.54 140.765C387.368 141.536 388.78 142.692 388.527 143.524C387.883 143.322 387.594 143.182 386.93 143.197L386.868 143.459C387.604 144.14 388.213 143.817 388.829 144.243C389.581 144.763 388.337 145.632 388.608 146.834C389.016 147.229 389.207 147.376 389.389 147.937C389.442 148.869 389.395 149.141 390.026 149.749L390.159 149.523C389.047 145.417 390.115 144.445 387.956 140.802Z" fill="#68C4BA"/>
<path d="M387.722 151.328C387.385 151.322 387.547 151.28 387.242 151.484C387.817 152.15 388.758 151.823 389.163 152.665C388.981 153.358 387.841 154.186 387.15 155.126L387.003 155.326C386.11 154.841 385.91 154.715 384.868 154.482L384.729 154.712L385.024 154.888L387.125 155.998C388.377 154.279 388.516 154.379 390.142 153.062C390.457 152.807 390.32 152.551 390.259 152.247C389.503 151.579 388.788 151.587 387.722 151.328Z" fill="#68C4BA"/>
<path d="M386.6 137.289C384.461 137.539 384.72 139.362 382.767 137.733L382.39 138.179C383.925 140.119 385.456 138.841 386.6 137.289Z" fill="#68C4BA"/>
<path d="M374.276 118.578C370.686 118.559 372.364 119.904 369.685 119.677C368.627 120.113 367.236 121.906 366.557 122.869C365.368 122.859 364.473 122.888 363.391 123.394C362.483 124.625 363.703 124.844 363.403 126.77C362.94 127.358 362.7 127.138 361.766 127.477C357.884 132.052 358.685 133.092 360.722 138.082C360.365 139.949 357.229 140.647 360.84 142.761L360.913 143.119C359.949 143.824 356.636 143.479 356.636 143.479L355.873 143.889C355.771 143.991 355.486 144.401 355.486 144.863L355.364 145.324C354.976 147.185 355.731 148.674 356.636 150.418C356.746 150.632 357.368 150.573 357.588 151.238C355.886 153.611 358.234 154.412 359.333 156.14C358.94 156.4 358.62 156.531 358.467 156.962L358.828 157.336L359.199 157.331C359.354 157.107 359.513 156.884 359.674 156.664C360.175 155.987 359.992 156.057 360.634 155.958C361.28 157.262 361.727 158.287 362.665 159.417L364.306 157.815C364.545 158.885 364.526 159.442 365.342 160.06C366.164 160.253 366.859 159.925 367.697 159.665C369.002 161.412 369.668 162.602 370.71 164.486C370.327 169.983 370.523 169.588 371.654 174.979L371.972 175.177L372.282 174.996C372.178 173.303 370.867 170.244 371.069 168.758C371.408 166.278 370.674 162.291 371.122 160.109L371.612 160.203L371.844 160.243C371.821 161.07 371.687 162.815 372.044 163.444C372.396 162.882 372.482 161.343 372.566 160.591C373.073 160.081 372.876 160.122 373.436 160.084C373.687 161.039 371.811 165.773 371.858 167.375C371.895 168.615 372.521 173.968 373.077 174.725C373.838 174.468 372.109 168.838 372.415 167.555C372.902 165.528 372.953 163.035 374.107 161.176C374.584 160.988 374.611 161.094 375.112 161.3C377.518 162.29 376.499 160.389 377.18 159.412C378.572 159.58 379.838 161.123 381.211 160.908C381.604 160.498 381.633 160.425 381.892 159.945L381.963 159.812C382.783 159.361 382.917 159.725 383.749 159.684C385.168 159.614 384.542 158.403 385.423 157.407C386.383 157.288 386.259 157.659 387.378 157.861L387.535 157.52C387.168 156.989 385.246 156.272 384.516 156.622C384.719 159.705 383.822 159.229 381.775 158.997C381.386 158.953 381.659 159.873 380.817 160.336C379.335 160.091 377.475 158.343 376.737 158.262C376.566 159.389 376.692 160.696 375.534 160.988C373.426 160.141 374.57 158.559 373.995 157.531C373.453 157.856 373.881 158.372 373.285 159.328L372.337 159.301L371.987 159.681L371.632 159.628C371.104 158.995 371.191 158.278 370.816 157.346C370.72 157.725 370.616 158.102 370.504 158.477C370.235 159.36 370.093 159.56 369.306 159.981C367.736 159.99 368.429 158.274 367.462 157.593C367.154 157.99 367.499 158.194 367.395 159.053C366.496 159.612 365.583 159.934 364.91 158.969C364.804 157.979 365.34 157.189 365.067 156.626L364.555 156.544C363.982 156.806 363.568 157.694 362.903 158.325L362.483 158.271C361.637 157.408 361.647 156.239 360.832 155.018C360.338 155.152 360.19 155.158 359.692 155.208C358.328 154.687 358.118 153.835 357.368 152.478C359.076 150.816 358.661 150.858 356.87 149.406C355.504 148.297 355.182 145.196 356.823 144.271C358.245 143.47 360.194 144.905 361.419 143.346C361.179 141.529 358.328 141.888 361.368 138.388C362.541 139.189 365.739 141.365 367.042 141.405L367.224 141.097C366.898 140.333 364.936 139.836 363.986 139.481C359.123 137.666 358.063 129.171 363.393 127.556C363.784 127.699 364.074 127.794 364.473 127.908C364.689 126.697 362.781 125.642 363.955 123.902C366.125 122.662 366.227 123.753 367.546 124.924L367.664 124.664C367.291 124.03 367.197 123.928 367.038 123.226C367.583 121.924 368.531 121.715 369.783 121.753C369.487 121.245 369.487 121.207 369.324 120.67L369.518 120.342L369.98 120.318C370.476 120.763 370.329 120.546 370.38 121.41C371.791 120.733 370.19 119.946 373.797 118.968C374.431 119.3 375.465 119.837 375.948 120.346C376.366 120.786 376.588 121.602 377.082 121.948L377.736 121.348C378.536 121.068 379.4 121.501 380.124 121.846C380.256 122.609 379.777 123.209 379.341 123.899L381.019 122.667C381.433 123.406 382.034 124.315 382.071 125.121C381.624 125.404 381.18 125.692 380.74 125.983L380.733 126.262C382.087 126.951 382.466 125.664 383.914 125.61C384.463 126.107 384.291 125.955 384.497 126.815C384.11 127.58 383.07 127.917 382.222 128.726L382.246 129.017L382.728 129.019C383.441 128.447 383.621 128.329 384.452 127.937L384.65 127.845C384.848 128.542 385.315 129.997 385.207 130.68C385.16 130.978 384.456 131.266 384.098 131.469L384.094 131.752C384.85 132.02 385.054 131.381 386.24 131.534C387.223 132.469 386.112 133.708 386.526 134.625L386.824 134.534C387.244 133.723 387.325 132.285 387.048 131.425C386.738 130.466 386.202 131.465 385.739 129.982C385.219 128.314 385.235 126.278 384.497 124.756C383.881 124.643 383.612 125.003 382.946 125.429L382.744 125.294L382.966 124.71C382.13 123.867 382.097 122.921 381.143 121.875C379.973 120.593 378.234 121.193 377.398 120.68C376.625 120.206 375.167 119.149 374.276 118.578Z" fill="#68C4BA"/>
<path d="M352.109 175.879L350.984 181.913L350.703 182.194L349.86 181.633L350.703 174.757L349.157 168.161H348.455H346.487L345.644 166.056L341.709 167.74L340.725 166.617H338.617L337.633 164.372L335.666 164.793V162.688L333.136 159.882C332.808 159.695 332.152 159.292 332.152 159.18C332.152 159.068 331.965 158.759 331.871 158.619L333.136 156.093L333.558 152.865L334.401 149.357C335.057 148.515 336.087 146.55 334.963 145.428C333.839 144.305 335.244 141.966 336.087 140.937L335.666 139.815L336.087 138.692L337.212 138.411V137.148L337.914 134.342L338.617 132.518L340.444 132.939V132.097L341.006 130.693L342.13 129.15L343.114 128.448H345.784L348.455 126.062H349.72L351.687 127.325H352.811H353.655L354.076 128.448L356.746 130.272C359.895 130.16 359.838 132.003 359.417 132.939V134.342C365.263 136.924 363.445 142.808 361.806 145.428L362.79 146.831L363.352 148.515L361.806 149.918L362.087 150.62L363.633 151.041L366.584 151.322C368.608 154.577 366.49 156.888 365.179 157.636V158.619L365.6 159.18V160.583L364.757 161.566L362.509 162.688L361.525 164.092L360.26 166.056L359.417 165.495L358.292 164.372L358.011 166.477L357.168 166.898L355.06 166.617L354.076 167.6L352.109 169.143V175.879Z" fill="#FCFDFD"/>
<path d="M335.192 147.819L335.608 147.782C335.78 148.553 334.368 149.71 334.622 150.541C335.265 150.339 335.555 150.199 336.219 150.214L336.281 150.477C335.544 151.158 334.935 150.834 334.319 151.26C333.567 151.78 334.811 152.649 334.541 153.852C334.133 154.247 333.942 154.393 333.759 154.954C333.707 155.887 333.753 156.159 333.123 156.767L332.989 156.541C334.101 152.434 333.033 151.463 335.192 147.819Z" fill="#68C4BA"/>
<path d="M335.426 158.346C335.764 158.339 335.601 158.297 335.907 158.501C335.331 159.168 334.39 158.841 333.985 159.683C334.168 160.375 335.307 161.203 335.998 162.144L336.145 162.344C337.038 161.858 337.239 161.732 338.281 161.5L338.42 161.73L338.124 161.906L336.024 163.016C334.771 161.296 334.632 161.397 333.007 160.08C332.691 159.825 332.828 159.568 332.89 159.264C333.646 158.597 334.36 158.605 335.426 158.346Z" fill="#68C4BA"/>
<path d="M336.549 144.305C338.687 144.555 338.429 146.378 340.382 144.749L340.759 145.194C339.224 147.134 337.693 145.856 336.549 144.305Z" fill="#68C4BA"/>
<path d="M348.872 125.594C352.463 125.575 350.785 126.919 353.464 126.692C354.522 127.129 355.912 128.922 356.591 129.884C357.78 129.875 358.675 129.904 359.758 130.409C360.665 131.641 359.446 131.86 359.745 133.785C360.208 134.374 360.449 134.154 361.383 134.492C365.265 139.067 364.463 140.108 362.427 145.098C362.783 146.964 365.919 147.662 362.308 149.776L362.235 150.135C363.199 150.839 366.513 150.494 366.513 150.494L367.275 150.905C367.377 151.007 367.662 151.417 367.662 151.878L367.785 152.339C368.172 154.201 367.418 155.69 366.513 157.433C366.402 157.647 365.781 157.589 365.56 158.254C367.263 160.626 364.914 161.427 363.815 163.156C364.209 163.416 364.529 163.547 364.682 163.978L364.321 164.352L363.95 164.347C363.795 164.123 363.636 163.9 363.475 163.679C362.973 163.002 363.157 163.073 362.514 162.974C361.868 164.278 361.421 165.302 360.484 166.433L358.842 164.83C358.604 165.901 358.622 166.458 357.806 167.075C356.985 167.269 356.29 166.94 355.452 166.68C354.147 168.428 353.48 169.618 352.438 171.502C352.821 176.998 352.626 176.604 351.494 181.995L351.176 182.193L350.866 182.012C350.97 180.318 352.281 177.26 352.079 175.774C351.741 173.294 352.475 169.307 352.026 167.125L351.537 167.219L351.305 167.259C351.327 168.085 351.462 169.831 351.105 170.46C350.752 169.898 350.666 168.359 350.583 167.606C350.075 167.096 350.273 167.137 349.712 167.1C349.461 168.054 351.337 172.789 351.29 174.39C351.254 175.631 350.628 180.984 350.071 181.74C349.31 181.484 351.039 175.854 350.734 174.571C350.246 172.544 350.195 170.05 349.041 168.191C348.564 168.004 348.538 168.109 348.036 168.316C345.63 169.306 346.65 167.405 345.969 166.427C344.576 166.596 343.31 168.139 341.938 167.924C341.544 167.514 341.516 167.441 341.257 166.96L341.186 166.827C340.366 166.377 340.231 166.741 339.399 166.7C337.98 166.63 338.606 165.419 337.726 164.422C336.765 164.303 336.89 164.675 335.77 164.876L335.613 164.536C335.98 164.005 337.903 163.287 338.633 163.638C338.429 166.72 339.326 166.245 341.373 166.013C341.763 165.969 341.489 166.889 342.331 167.351C343.814 167.106 345.673 165.358 346.411 165.278C346.582 166.405 346.456 167.712 347.614 168.004C349.722 167.157 348.579 165.575 349.153 164.547C349.696 164.871 349.268 165.387 349.863 166.344L350.811 166.316L351.162 166.697L351.517 166.643C352.045 166.01 351.957 165.294 352.332 164.362C352.428 164.741 352.532 165.118 352.644 165.492C352.913 166.376 353.056 166.576 353.843 166.997C355.413 167.005 354.72 165.289 355.686 164.609C355.994 165.005 355.649 165.21 355.753 166.068C356.653 166.628 357.566 166.95 358.239 165.984C358.345 164.995 357.809 164.204 358.082 163.641L358.594 163.56C359.166 163.821 359.58 164.71 360.245 165.341L360.665 165.286C361.511 164.423 361.501 163.254 362.317 162.033C362.81 162.167 362.959 162.174 363.456 162.224C364.82 161.703 365.03 160.85 365.781 159.493C364.072 157.832 364.488 157.873 366.278 156.421C367.644 155.313 367.966 152.212 366.325 151.287C364.904 150.486 362.955 151.921 361.729 150.362C361.97 148.545 364.82 148.904 361.78 145.403C360.608 146.205 357.409 148.38 356.106 148.421L355.925 148.113C356.251 147.349 358.212 146.852 359.162 146.497C364.025 144.682 365.085 136.187 359.756 134.572C359.364 134.715 359.075 134.81 358.675 134.924C358.459 133.713 360.367 132.658 359.193 130.917C357.024 129.678 356.922 130.769 355.602 131.94L355.484 131.68C355.857 131.045 355.951 130.944 356.11 130.242C355.566 128.939 354.618 128.731 353.366 128.769C353.661 128.261 353.661 128.223 353.825 127.685L353.631 127.358L353.168 127.334C352.673 127.779 352.819 127.562 352.768 128.426C351.358 127.749 352.958 126.962 349.351 125.984C348.717 126.316 347.683 126.853 347.2 127.362C346.782 127.801 346.56 128.617 346.067 128.964L345.412 128.364C344.613 128.084 343.748 128.516 343.025 128.862C342.892 129.624 343.371 130.225 343.808 130.915L342.13 129.683C341.716 130.421 341.114 131.33 341.077 132.136C341.524 132.42 341.968 132.707 342.409 132.999L342.415 133.278C341.061 133.966 340.682 132.68 339.234 132.626C338.686 133.123 338.857 132.971 338.651 133.831C339.039 134.596 340.078 134.933 340.927 135.742L340.902 136.032L340.421 136.034C339.707 135.463 339.528 135.345 338.696 134.952L338.498 134.861C338.301 135.558 337.834 137.012 337.942 137.695C337.989 137.993 338.692 138.282 339.051 138.484L339.055 138.767C338.298 139.035 338.095 138.397 336.908 138.55C335.925 139.485 337.036 140.723 336.623 141.64L336.325 141.549C335.905 140.739 335.823 139.3 336.101 138.44C336.41 137.482 336.947 138.481 337.409 136.998C337.929 135.33 337.913 133.293 338.651 131.771C339.267 131.659 339.536 132.019 340.203 132.445L340.405 132.309L340.182 131.725C341.018 130.882 341.051 129.937 342.005 128.89C343.175 127.608 344.915 128.209 345.751 127.696C346.523 127.222 347.981 126.165 348.872 125.594Z" fill="#68C4BA"/>
<path d="M258.497 182.412L257.373 188.446L257.092 188.727L256.249 188.166L257.092 181.29L255.546 174.694H254.843H252.876L252.033 172.589L248.097 174.273L247.114 173.151H245.006L244.022 170.905L242.054 171.326V169.221L239.525 166.415C239.197 166.228 238.541 165.826 238.541 165.713C238.541 165.601 238.353 165.292 238.26 165.152L239.525 162.626L239.946 159.398L240.789 155.89C241.445 155.048 242.476 153.084 241.352 151.961C240.227 150.838 241.633 148.5 242.476 147.471L242.054 146.348L242.476 145.225L243.6 144.945V143.682L244.303 140.875L245.006 139.051L246.833 139.472V138.63L247.395 137.227L248.519 135.683L249.503 134.981H252.173L254.843 132.596H256.108L258.076 133.859H259.2H260.043L260.465 134.981L263.135 136.806C266.283 136.693 266.227 138.536 265.805 139.472V140.875C271.652 143.457 269.834 149.342 268.194 151.961L269.178 153.364L269.74 155.048L268.194 156.452L268.476 157.153L270.021 157.574L272.973 157.855C274.997 161.11 272.879 163.421 271.567 164.17V165.152L271.989 165.713V167.117L271.146 168.099L268.897 169.221L267.913 170.625L266.649 172.589L265.805 172.028L264.681 170.905L264.4 173.01L263.557 173.431L261.449 173.151L260.465 174.133L258.497 175.677V182.412Z" fill="#FCFDFD"/>
<path d="M241.581 154.353L241.997 154.316C242.169 155.086 240.757 156.243 241.011 157.075C241.654 156.873 241.944 156.733 242.607 156.748L242.67 157.01C241.933 157.691 241.324 157.368 240.708 157.793C239.956 158.314 241.2 159.183 240.929 160.385C240.522 160.78 240.331 160.926 240.148 161.487C240.096 162.42 240.142 162.692 239.512 163.3L239.378 163.074C240.49 158.967 239.422 157.996 241.581 154.353Z" fill="#68C4BA"/>
<path d="M241.815 164.879C242.153 164.872 241.99 164.831 242.295 165.034C241.72 165.701 240.779 165.374 240.374 166.216C240.557 166.908 241.696 167.736 242.387 168.677L242.534 168.877C243.427 168.392 243.627 168.265 244.669 168.033L244.808 168.263L244.513 168.439L242.413 169.549C241.16 167.83 241.021 167.93 239.395 166.613C239.08 166.358 239.217 166.101 239.278 165.798C240.035 165.13 240.749 165.138 241.815 164.879Z" fill="#68C4BA"/>
<path d="M242.938 150.838C245.076 151.088 244.817 152.911 246.77 151.282L247.147 151.728C245.612 153.667 244.081 152.39 242.938 150.838Z" fill="#68C4BA"/>
<path d="M255.261 132.127C258.851 132.108 257.173 133.453 259.852 133.226C260.911 133.662 262.301 135.455 262.98 136.418C264.169 136.408 265.064 136.437 266.146 136.943C267.054 138.174 265.834 138.393 266.134 140.319C266.597 140.907 266.838 140.687 267.771 141.026C271.653 145.6 270.852 146.641 268.815 151.631C269.172 153.498 272.308 154.196 268.697 156.309L268.624 156.668C269.588 157.372 272.901 157.028 272.901 157.028L273.664 157.438C273.766 157.54 274.051 157.95 274.051 158.412L274.174 158.872C274.561 160.734 273.806 162.223 272.901 163.966C272.791 164.18 272.169 164.122 271.949 164.787C273.652 167.159 271.303 167.96 270.204 169.689C270.597 169.949 270.917 170.08 271.07 170.511L270.709 170.885L270.338 170.88C270.183 170.656 270.024 170.433 269.863 170.212C269.362 169.536 269.545 169.606 268.903 169.507C268.257 170.811 267.81 171.835 266.872 172.966L265.231 171.363C264.992 172.434 265.011 172.991 264.195 173.609C263.373 173.802 262.678 173.473 261.84 173.214C260.535 174.961 259.869 176.151 258.827 178.035C259.21 183.532 259.014 183.137 257.883 188.528L257.565 188.726L257.255 188.545C257.359 186.851 258.67 183.793 258.468 182.307C258.13 179.827 258.864 175.84 258.415 173.658L257.926 173.752L257.693 173.792C257.716 174.619 257.85 176.364 257.493 176.993C257.141 176.431 257.055 174.892 256.971 174.14C256.464 173.629 256.662 173.671 256.101 173.633C255.85 174.588 257.726 179.322 257.679 180.924C257.642 182.164 257.016 187.517 256.46 188.274C255.699 188.017 257.428 182.387 257.122 181.104C256.635 179.077 256.584 176.584 255.43 174.725C254.953 174.537 254.926 174.642 254.425 174.849C252.019 175.839 253.038 173.938 252.357 172.961C250.965 173.129 249.699 174.672 248.327 174.457C247.933 174.047 247.905 173.974 247.646 173.494L247.574 173.361C246.755 172.91 246.62 173.274 245.788 173.233C244.369 173.163 244.995 171.952 244.114 170.956C243.154 170.836 243.278 171.208 242.159 171.409L242.002 171.069C242.369 170.538 244.292 169.821 245.022 170.171C244.818 173.253 245.715 172.778 247.762 172.546C248.151 172.502 247.878 173.422 248.72 173.885C250.202 173.639 252.062 171.891 252.8 171.811C252.971 172.938 252.845 174.245 254.003 174.537C256.111 173.69 254.967 172.108 255.542 171.08C256.085 171.404 255.656 171.92 256.252 172.877L257.2 172.849L257.55 173.23L257.905 173.177C258.433 172.543 258.346 171.827 258.721 170.895C258.817 171.274 258.921 171.651 259.033 172.025C259.302 172.909 259.445 173.109 260.232 173.53C261.802 173.539 261.108 171.823 262.075 171.142C262.383 171.539 262.038 171.743 262.142 172.602C263.041 173.161 263.955 173.483 264.627 172.517C264.733 171.528 264.197 170.737 264.47 170.174L264.982 170.093C265.555 170.355 265.969 171.243 266.634 171.874L267.054 171.82C267.9 170.957 267.89 169.788 268.705 168.566C269.199 168.701 269.347 168.707 269.845 168.757C271.209 168.236 271.419 167.384 272.169 166.026C270.461 164.365 270.877 164.406 272.667 162.954C274.033 161.846 274.355 158.745 272.714 157.82C271.293 157.019 269.343 158.454 268.118 156.895C268.359 155.078 271.209 155.437 268.169 151.937C266.997 152.738 263.798 154.913 262.495 154.954L262.313 154.646C262.64 153.882 264.601 153.385 265.551 153.03C270.414 151.215 271.474 142.72 266.144 141.105C265.753 141.248 265.463 141.343 265.064 141.457C264.848 140.246 266.756 139.191 265.582 137.451C263.412 136.211 263.31 137.302 261.991 138.473L261.873 138.213C262.246 137.579 262.34 137.477 262.499 136.775C261.954 135.473 261.006 135.264 259.754 135.302C260.05 134.794 260.05 134.756 260.213 134.218L260.02 133.891L259.557 133.867C259.061 134.312 259.208 134.095 259.157 134.959C257.746 134.282 259.347 133.495 255.74 132.517C255.106 132.849 254.072 133.386 253.589 133.895C253.171 134.334 252.949 135.15 252.455 135.497L251.801 134.897C251.002 134.617 250.137 135.05 249.413 135.395C249.281 136.157 249.76 136.758 250.196 137.448L248.518 136.216C248.104 136.954 247.503 137.863 247.466 138.669C247.913 138.953 248.357 139.241 248.798 139.532L248.804 139.811C247.45 140.499 247.071 139.213 245.623 139.159C245.075 139.656 245.246 139.504 245.04 140.364C245.427 141.129 246.467 141.466 247.315 142.275L247.291 142.566L246.81 142.567C246.096 141.996 245.917 141.878 245.085 141.486L244.887 141.394C244.689 142.091 244.222 143.546 244.33 144.229C244.377 144.527 245.081 144.815 245.439 145.018L245.444 145.3C244.687 145.569 244.483 144.93 243.297 145.083C242.314 146.018 243.425 147.257 243.011 148.173L242.714 148.083C242.294 147.272 242.212 145.834 242.489 144.974C242.799 144.015 243.335 145.014 243.798 143.531C244.318 141.863 244.302 139.827 245.04 138.305C245.656 138.192 245.925 138.552 246.591 138.978L246.793 138.843L246.571 138.258C247.407 137.415 247.44 136.47 248.394 135.423C249.564 134.141 251.303 134.742 252.139 134.229C252.912 133.755 254.37 132.698 255.261 132.127Z" fill="#68C4BA"/>
<path d="M142.109 150.864L140.984 156.898L140.703 157.178L139.86 156.617L140.703 149.741L139.157 143.145H138.455H136.487L135.644 141.041L131.709 142.724L130.725 141.602H128.617L127.633 139.357L125.666 139.778V137.673L123.136 134.866C122.808 134.679 122.152 134.277 122.152 134.164C122.152 134.052 121.965 133.743 121.871 133.603L123.136 131.077L123.558 127.85L124.401 124.341C125.057 123.499 126.087 121.535 124.963 120.412C123.839 119.29 125.244 116.951 126.087 115.922L125.666 114.799L126.087 113.676L127.212 113.396V112.133L127.914 109.326L128.617 107.502L130.444 107.923V107.081L131.006 105.678L132.13 104.134L133.114 103.432H135.784L138.455 101.047H139.72L141.687 102.31H142.811H143.655L144.076 103.432L146.746 105.257C149.895 105.144 149.838 106.987 149.417 107.923V109.326C155.263 111.908 153.445 117.793 151.806 120.412L152.79 121.815L153.352 123.499L151.806 124.903L152.087 125.604L153.633 126.025L156.584 126.306C158.608 129.562 156.49 131.872 155.179 132.621V133.603L155.6 134.164V135.568L154.757 136.55L152.509 137.673L151.525 139.076L150.26 141.041L149.417 140.479L148.292 139.357L148.011 141.461L147.168 141.882L145.06 141.602L144.076 142.584L142.109 144.128V150.864Z" fill="#FCFDFD"/>
<path d="M125.192 122.804L125.608 122.767C125.78 123.537 124.368 124.694 124.622 125.526C125.265 125.324 125.555 125.184 126.219 125.199L126.281 125.461C125.544 126.142 124.935 125.819 124.319 126.245C123.567 126.765 124.811 127.634 124.541 128.836C124.133 129.231 123.942 129.378 123.759 129.939C123.707 130.871 123.753 131.143 123.123 131.751L122.989 131.525C124.101 127.418 123.033 126.447 125.192 122.804Z" fill="#68C4BA"/>
<path d="M125.426 133.33C125.764 133.324 125.601 133.282 125.907 133.486C125.331 134.152 124.39 133.825 123.985 134.667C124.168 135.36 125.307 136.188 125.998 137.128L126.145 137.328C127.038 136.843 127.239 136.717 128.281 136.484L128.42 136.714L128.124 136.89L126.024 138C124.771 136.281 124.632 136.381 123.007 135.064C122.691 134.809 122.828 134.553 122.89 134.249C123.646 133.581 124.36 133.589 125.426 133.33Z" fill="#68C4BA"/>
<path d="M126.549 119.289C128.687 119.539 128.429 121.362 130.382 119.733L130.759 120.179C129.224 122.119 127.693 120.841 126.549 119.289Z" fill="#68C4BA"/>
<path d="M138.872 100.578C142.463 100.559 140.785 101.904 143.464 101.677C144.522 102.113 145.912 103.906 146.591 104.869C147.78 104.859 148.675 104.888 149.758 105.394C150.665 106.625 149.446 106.844 149.745 108.77C150.208 109.358 150.449 109.138 151.383 109.477C155.265 114.052 154.463 115.092 152.427 120.082C152.783 121.949 155.919 122.647 152.308 124.761L152.235 125.119C153.199 125.824 156.513 125.479 156.513 125.479L157.275 125.889C157.377 125.991 157.662 126.401 157.662 126.863L157.785 127.324C158.172 129.185 157.418 130.674 156.513 132.418C156.402 132.632 155.781 132.573 155.56 133.238C157.263 135.611 154.914 136.412 153.815 138.14C154.209 138.4 154.529 138.531 154.682 138.962L154.321 139.336L153.95 139.331C153.795 139.107 153.636 138.884 153.475 138.664C152.973 137.987 153.157 138.057 152.514 137.958C151.868 139.262 151.421 140.287 150.484 141.417L148.842 139.815C148.604 140.885 148.622 141.442 147.806 142.06C146.985 142.253 146.29 141.925 145.452 141.665C144.147 143.412 143.48 144.602 142.438 146.486C142.821 151.983 142.626 151.588 141.494 156.979L141.176 157.177L140.866 156.996C140.97 155.303 142.281 152.244 142.079 150.758C141.741 148.278 142.475 144.291 142.026 142.109L141.537 142.203L141.305 142.243C141.327 143.07 141.462 144.815 141.105 145.444C140.752 144.882 140.666 143.343 140.583 142.591C140.075 142.081 140.273 142.122 139.712 142.084C139.461 143.039 141.337 147.773 141.29 149.375C141.254 150.615 140.628 155.968 140.071 156.725C139.31 156.468 141.039 150.838 140.734 149.555C140.246 147.528 140.195 145.035 139.041 143.176C138.564 142.988 138.538 143.094 138.036 143.3C135.63 144.29 136.65 142.389 135.969 141.412C134.576 141.58 133.31 143.123 131.938 142.908C131.544 142.498 131.516 142.425 131.257 141.945L131.186 141.812C130.366 141.361 130.231 141.725 129.399 141.684C127.98 141.614 128.606 140.403 127.726 139.407C126.765 139.288 126.89 139.659 125.77 139.861L125.613 139.52C125.98 138.989 127.903 138.272 128.633 138.622C128.429 141.705 129.326 141.229 131.373 140.997C131.763 140.953 131.489 141.873 132.331 142.336C133.814 142.091 135.673 140.343 136.411 140.262C136.582 141.389 136.456 142.696 137.614 142.988C139.722 142.141 138.579 140.559 139.153 139.531C139.696 139.856 139.268 140.372 139.863 141.328L140.811 141.301L141.162 141.681L141.517 141.628C142.045 140.995 141.957 140.278 142.332 139.346C142.428 139.725 142.532 140.102 142.644 140.477C142.913 141.36 143.056 141.56 143.843 141.981C145.413 141.99 144.72 140.274 145.686 139.593C145.994 139.99 145.649 140.194 145.753 141.053C146.653 141.612 147.566 141.934 148.239 140.969C148.345 139.979 147.809 139.189 148.082 138.626L148.594 138.544C149.166 138.806 149.58 139.694 150.245 140.325L150.665 140.271C151.511 139.408 151.501 138.239 152.317 137.018C152.81 137.152 152.959 137.158 153.456 137.208C154.82 136.687 155.03 135.835 155.781 134.478C154.072 132.816 154.488 132.858 156.278 131.406C157.644 130.297 157.966 127.196 156.325 126.271C154.904 125.47 152.955 126.905 151.729 125.346C151.97 123.529 154.82 123.888 151.78 120.388C150.608 121.189 147.409 123.365 146.106 123.405L145.925 123.097C146.251 122.333 148.212 121.836 149.162 121.481C154.025 119.666 155.085 111.171 149.756 109.556C149.364 109.699 149.075 109.794 148.675 109.908C148.459 108.697 150.367 107.642 149.193 105.902C147.024 104.662 146.922 105.753 145.602 106.924L145.484 106.664C145.857 106.03 145.951 105.928 146.11 105.226C145.566 103.924 144.618 103.715 143.366 103.753C143.661 103.245 143.661 103.207 143.825 102.67L143.631 102.342L143.168 102.318C142.673 102.763 142.819 102.546 142.768 103.41C141.358 102.733 142.958 101.946 139.351 100.968C138.717 101.3 137.683 101.837 137.2 102.346C136.782 102.786 136.56 103.602 136.067 103.948L135.412 103.348C134.613 103.068 133.748 103.501 133.025 103.846C132.892 104.609 133.371 105.209 133.808 105.899L132.13 104.667C131.716 105.406 131.114 106.315 131.077 107.121C131.524 107.404 131.968 107.692 132.409 107.983L132.415 108.262C131.061 108.951 130.682 107.664 129.234 107.61C128.686 108.107 128.857 107.955 128.651 108.815C129.039 109.58 130.078 109.917 130.927 110.726L130.902 111.017L130.421 111.019C129.707 110.447 129.528 110.329 128.696 109.937L128.498 109.845C128.301 110.542 127.834 111.997 127.942 112.68C127.989 112.978 128.692 113.266 129.051 113.469L129.055 113.752C128.298 114.02 128.095 113.381 126.908 113.534C125.925 114.469 127.036 115.708 126.623 116.625L126.325 116.534C125.905 115.723 125.823 114.285 126.101 113.425C126.41 112.466 126.947 113.465 127.409 111.982C127.929 110.314 127.913 108.278 128.651 106.756C129.267 106.643 129.536 107.003 130.203 107.429L130.405 107.294L130.182 106.71C131.018 105.867 131.051 104.921 132.005 103.875C133.175 102.593 134.915 103.193 135.751 102.68C136.523 102.206 137.981 101.149 138.872 100.578Z" fill="#68C4BA"/>
<path d="M115.109 155.862L113.984 161.896L113.703 162.176L112.86 161.615L113.703 154.739L112.157 148.144H111.455H109.487L108.644 146.039L104.709 147.723L103.725 146.6H101.617L100.633 144.355L98.6657 144.776V142.671L96.1359 139.864C95.808 139.677 95.1522 139.275 95.1522 139.162C95.1522 139.05 94.9648 138.741 94.8711 138.601L96.1359 136.075L96.5576 132.848L97.4008 129.339C98.0567 128.497 99.0873 126.533 97.963 125.41C96.8387 124.288 98.2441 121.949 99.0873 120.92L98.6657 119.797L99.0873 118.674L100.212 118.394V117.131L100.914 114.324L101.617 112.5L103.444 112.921V112.079L104.006 110.676L105.13 109.132L106.114 108.431H108.784L111.455 106.045H112.72L114.687 107.308H115.811H116.655L117.076 108.431L119.746 110.255C122.895 110.142 122.838 111.985 122.417 112.921V114.324C128.263 116.906 126.445 122.791 124.806 125.41L125.79 126.814L126.352 128.497L124.806 129.901L125.087 130.602L126.633 131.023L129.584 131.304C131.608 134.56 129.49 136.87 128.179 137.619V138.601L128.6 139.162V140.566L127.757 141.548L125.509 142.671L124.525 144.074L123.26 146.039L122.417 145.477L121.292 144.355L121.011 146.46L120.168 146.881L118.06 146.6L117.076 147.582L115.109 149.126V155.862Z" fill="#FCFDFD"/>
<path d="M98.1921 127.802L98.6081 127.765C98.7803 128.536 97.3682 129.692 97.6219 130.524C98.2654 130.322 98.5549 130.182 99.2185 130.197L99.2808 130.459C98.5445 131.14 97.9351 130.817 97.3194 131.243C96.5673 131.763 97.811 132.632 97.5407 133.834C97.1329 134.229 96.9418 134.376 96.759 134.937C96.7068 135.869 96.7533 136.141 96.1229 136.749L95.9892 136.523C97.1012 132.417 96.0334 131.445 98.1921 127.802Z" fill="#68C4BA"/>
<path d="M98.4264 138.328C98.7639 138.322 98.6011 138.28 98.9068 138.484C98.3311 139.15 97.3903 138.823 96.9853 139.665C97.1679 140.358 98.3073 141.186 98.9981 142.126L99.145 142.326C100.038 141.841 100.239 141.715 101.281 141.482L101.42 141.712L101.124 141.888L99.0239 142.998C97.7714 141.279 97.6324 141.379 96.0067 140.062C95.6911 139.807 95.8281 139.551 95.8896 139.247C96.6459 138.579 97.3605 138.587 98.4264 138.328Z" fill="#68C4BA"/>
<path d="M99.5488 124.289C101.687 124.539 101.429 126.362 103.382 124.733L103.759 125.179C102.224 127.119 100.693 125.841 99.5488 124.289Z" fill="#68C4BA"/>
<path d="M111.872 105.578C115.463 105.559 113.785 106.904 116.464 106.677C117.522 107.113 118.912 108.906 119.591 109.869C120.78 109.859 121.675 109.888 122.758 110.394C123.665 111.625 122.446 111.844 122.745 113.77C123.208 114.358 123.449 114.138 124.383 114.477C128.265 119.052 127.463 120.092 125.427 125.082C125.783 126.949 128.919 127.647 125.308 129.761L125.235 130.119C126.199 130.824 129.513 130.479 129.513 130.479L130.275 130.889C130.377 130.991 130.662 131.401 130.662 131.863L130.785 132.324C131.172 134.185 130.418 135.674 129.513 137.418C129.402 137.632 128.781 137.573 128.56 138.238C130.263 140.611 127.914 141.412 126.815 143.14C127.209 143.4 127.529 143.531 127.682 143.962L127.321 144.336L126.95 144.331C126.795 144.107 126.636 143.884 126.475 143.664C125.973 142.987 126.157 143.057 125.514 142.958C124.868 144.262 124.421 145.287 123.484 146.417L121.842 144.815C121.604 145.885 121.622 146.442 120.806 147.06C119.985 147.253 119.29 146.925 118.452 146.665C117.147 148.412 116.48 149.602 115.438 151.486C115.821 156.983 115.626 156.588 114.494 161.979L114.176 162.177L113.866 161.996C113.97 160.303 115.281 157.244 115.079 155.758C114.741 153.278 115.475 149.291 115.026 147.109L114.537 147.203L114.305 147.243C114.327 148.07 114.462 149.815 114.105 150.444C113.752 149.882 113.666 148.343 113.583 147.591C113.075 147.081 113.273 147.122 112.712 147.084C112.461 148.039 114.337 152.773 114.29 154.375C114.254 155.615 113.628 160.968 113.071 161.725C112.31 161.468 114.039 155.838 113.734 154.555C113.246 152.528 113.195 150.035 112.041 148.176C111.564 147.988 111.538 148.094 111.036 148.3C108.63 149.29 109.65 147.389 108.969 146.412C107.576 146.58 106.31 148.123 104.938 147.908C104.544 147.498 104.516 147.425 104.257 146.945L104.186 146.812C103.366 146.361 103.231 146.725 102.399 146.684C100.98 146.614 101.606 145.403 100.726 144.407C99.7652 144.288 99.8896 144.659 98.7703 144.861L98.6133 144.52C98.9803 143.989 100.903 143.272 101.633 143.622C101.429 146.705 102.326 146.229 104.373 145.997C104.763 145.953 104.489 146.873 105.331 147.336C106.814 147.091 108.673 145.343 109.411 145.262C109.582 146.389 109.456 147.696 110.614 147.988C112.722 147.141 111.579 145.559 112.153 144.531C112.696 144.856 112.268 145.372 112.863 146.328L113.811 146.301L114.162 146.681L114.517 146.628C115.045 145.995 114.957 145.278 115.332 144.346C115.428 144.725 115.532 145.102 115.644 145.477C115.913 146.36 116.056 146.56 116.843 146.981C118.413 146.99 117.72 145.274 118.686 144.593C118.994 144.99 118.649 145.194 118.753 146.053C119.653 146.612 120.566 146.934 121.239 145.969C121.345 144.979 120.809 144.189 121.082 143.626L121.594 143.544C122.166 143.806 122.58 144.694 123.245 145.325L123.665 145.271C124.511 144.408 124.501 143.239 125.317 142.018C125.81 142.152 125.959 142.158 126.456 142.208C127.82 141.687 128.03 140.835 128.781 139.478C127.072 137.816 127.488 137.858 129.278 136.406C130.644 135.297 130.966 132.196 129.325 131.271C127.904 130.47 125.955 131.905 124.729 130.346C124.97 128.529 127.82 128.888 124.78 125.388C123.608 126.189 120.409 128.365 119.106 128.405L118.925 128.097C119.251 127.333 121.212 126.836 122.162 126.481C127.025 124.666 128.085 116.171 122.756 114.556C122.364 114.699 122.075 114.794 121.675 114.908C121.459 113.697 123.367 112.642 122.193 110.902C120.024 109.662 119.922 110.753 118.602 111.924L118.484 111.664C118.857 111.03 118.951 110.928 119.11 110.226C118.566 108.924 117.618 108.715 116.366 108.753C116.661 108.245 116.661 108.207 116.825 107.67L116.631 107.342L116.168 107.318C115.673 107.763 115.819 107.546 115.768 108.41C114.358 107.733 115.958 106.946 112.351 105.968C111.717 106.3 110.683 106.837 110.2 107.346C109.782 107.786 109.56 108.602 109.067 108.948L108.412 108.348C107.613 108.068 106.748 108.501 106.025 108.846C105.892 109.609 106.371 110.209 106.808 110.899L105.13 109.667C104.716 110.406 104.114 111.315 104.077 112.121C104.524 112.404 104.968 112.692 105.409 112.983L105.415 113.262C104.061 113.951 103.682 112.664 102.234 112.61C101.686 113.107 101.857 112.955 101.651 113.815C102.039 114.58 103.078 114.917 103.927 115.726L103.902 116.017L103.421 116.019C102.707 115.447 102.528 115.329 101.696 114.937L101.498 114.845C101.301 115.542 100.834 116.997 100.942 117.68C100.989 117.978 101.692 118.266 102.051 118.469L102.055 118.752C101.298 119.02 101.095 118.381 99.9079 118.534C98.9252 119.469 100.036 120.708 99.6225 121.625L99.3248 121.534C98.9048 120.723 98.8233 119.285 99.1006 118.425C99.4105 117.466 99.9467 118.465 100.409 116.982C100.929 115.314 100.913 113.278 101.651 111.756C102.267 111.643 102.536 112.003 103.203 112.429L103.405 112.294L103.182 111.71C104.018 110.867 104.051 109.921 105.005 108.875C106.175 107.593 107.915 108.193 108.751 107.68C109.523 107.206 110.981 106.149 111.872 105.578Z" fill="#68C4BA"/>
</svg>
