<svg width="627" height="362" viewBox="0 0 627 362" fill="none" xmlns="http://www.w3.org/2000/svg">
<path d="M625.815 188.736L326.898 361.316L1 173.158L299.917 0.578125L625.815 188.736ZM69.0049 169.441L99.9531 187.31L151.129 157.764L177.244 172.842L126.068 202.387L328.406 319.207L432.698 258.994L173.296 109.229L69.0049 169.441Z" fill="#FCFDFD"/>
<path d="M625.815 188.736L626.065 189.169L626.815 188.736L626.065 188.303L625.815 188.736ZM326.898 361.316L326.648 361.749L326.898 361.894L327.148 361.749L326.898 361.316ZM1 173.158L0.75 172.725L1.90735e-06 173.158L0.749999 173.591L1 173.158ZM299.917 0.578125L300.167 0.145113L299.917 0.000774384L299.667 0.145112L299.917 0.578125ZM69.0049 169.441L68.7549 169.008L68.0049 169.441L68.7549 169.874L69.0049 169.441ZM99.9531 187.31L99.7031 187.743L99.9531 187.887L100.203 187.743L99.9531 187.31ZM151.129 157.764L151.379 157.331L151.129 157.186L150.879 157.331L151.129 157.764ZM177.244 172.842L177.494 173.275L178.244 172.842L177.494 172.409L177.244 172.842ZM126.068 202.387L125.818 201.954L125.068 202.387L125.818 202.82L126.068 202.387ZM328.406 319.207L328.156 319.64L328.406 319.784L328.656 319.64L328.406 319.207ZM432.698 258.994L432.948 259.427L433.698 258.994L432.948 258.561L432.698 258.994ZM173.296 109.229L173.546 108.796L173.296 108.651L173.046 108.796L173.296 109.229ZM625.815 188.736L625.565 188.303L326.648 360.883L326.898 361.316L327.148 361.749L626.065 189.169L625.815 188.736ZM326.898 361.316L327.148 360.883L1.25 172.725L1 173.158L0.749999 173.591L326.648 361.749L326.898 361.316ZM1 173.158L1.25 173.591L300.167 1.01114L299.917 0.578125L299.667 0.145112L0.75 172.725L1 173.158ZM299.917 0.578125L299.667 1.01114L625.565 189.169L625.815 188.736L626.065 188.303L300.167 0.145113L299.917 0.578125ZM69.0049 169.441L68.7549 169.874L99.7031 187.743L99.9531 187.31L100.203 186.877L69.2549 169.008L69.0049 169.441ZM99.9531 187.31L100.203 187.743L151.379 158.197L151.129 157.764L150.879 157.331L99.7031 186.877L99.9531 187.31ZM151.129 157.764L150.879 158.197L176.994 173.275L177.244 172.842L177.494 172.409L151.379 157.331L151.129 157.764ZM177.244 172.842L176.994 172.409L125.818 201.954L126.068 202.387L126.318 202.82L177.494 173.275L177.244 172.842ZM126.068 202.387L125.818 202.82L328.156 319.64L328.406 319.207L328.656 318.774L126.318 201.954L126.068 202.387ZM328.406 319.207L328.656 319.64L432.948 259.427L432.698 258.994L432.448 258.561L328.156 318.774L328.406 319.207ZM432.698 258.994L432.948 258.561L173.546 108.796L173.296 109.229L173.046 109.662L432.448 259.427L432.698 258.994ZM173.296 109.229L173.046 108.796L68.7549 169.008L69.0049 169.441L69.2549 169.874L173.546 109.662L173.296 109.229Z" fill="#68C4BA"/>
<path d="M115.109 155.862L113.984 161.896L113.703 162.176L112.86 161.615L113.703 154.739L112.157 148.144H111.455H109.487L108.644 146.039L104.709 147.723L103.725 146.6H101.617L100.633 144.355L98.6657 144.776V142.671L96.1359 139.864C95.808 139.677 95.1522 139.275 95.1522 139.162C95.1522 139.05 94.9648 138.741 94.8711 138.601L96.1359 136.075L96.5576 132.848L97.4008 129.339C98.0567 128.497 99.0873 126.533 97.963 125.41C96.8387 124.288 98.2441 121.949 99.0873 120.92L98.6657 119.797L99.0873 118.674L100.212 118.394V117.131L100.914 114.324L101.617 112.5L103.444 112.921V112.079L104.006 110.676L105.13 109.132L106.114 108.431H108.784L111.455 106.045H112.72L114.687 107.308H115.811H116.655L117.076 108.431L119.746 110.255C122.895 110.142 122.838 111.985 122.417 112.921V114.324C128.263 116.906 126.445 122.791 124.806 125.41L125.79 126.814L126.352 128.497L124.806 129.901L125.087 130.602L126.633 131.023L129.584 131.304C131.608 134.56 129.49 136.87 128.179 137.619V138.601L128.6 139.162V140.566L127.757 141.548L125.509 142.671L124.525 144.074L123.26 146.039L122.417 145.477L121.292 144.355L121.011 146.46L120.168 146.881L118.06 146.6L117.076 147.582L115.109 149.126V155.862Z" fill="#FCFDFD"/>
<path d="M98.1921 127.802L98.6081 127.765C98.7803 128.536 97.3682 129.692 97.6219 130.524C98.2654 130.322 98.5549 130.182 99.2185 130.197L99.2808 130.459C98.5445 131.14 97.9351 130.817 97.3194 131.243C96.5673 131.763 97.811 132.632 97.5407 133.834C97.1329 134.229 96.9418 134.376 96.759 134.937C96.7068 135.869 96.7533 136.141 96.1229 136.749L95.9892 136.523C97.1012 132.417 96.0334 131.445 98.1921 127.802Z" fill="#68C4BA"/>
<path d="M98.4264 138.328C98.7639 138.322 98.6011 138.28 98.9068 138.484C98.3311 139.15 97.3903 138.823 96.9853 139.665C97.1679 140.358 98.3073 141.186 98.9981 142.126L99.145 142.326C100.038 141.841 100.239 141.715 101.281 141.482L101.42 141.712L101.124 141.888L99.0239 142.998C97.7714 141.279 97.6324 141.379 96.0067 140.062C95.6911 139.807 95.8281 139.551 95.8896 139.247C96.6459 138.579 97.3605 138.587 98.4264 138.328Z" fill="#68C4BA"/>
<path d="M99.5488 124.289C101.687 124.539 101.429 126.362 103.382 124.733L103.759 125.179C102.224 127.119 100.693 125.841 99.5488 124.289Z" fill="#68C4BA"/>
<path d="M111.872 105.578C115.463 105.559 113.785 106.904 116.464 106.677C117.522 107.113 118.912 108.906 119.591 109.869C120.78 109.859 121.675 109.888 122.758 110.394C123.665 111.625 122.446 111.844 122.745 113.77C123.208 114.358 123.449 114.138 124.383 114.477C128.265 119.052 127.463 120.092 125.427 125.082C125.783 126.949 128.919 127.647 125.308 129.761L125.235 130.119C126.199 130.824 129.513 130.479 129.513 130.479L130.275 130.889C130.377 130.991 130.662 131.401 130.662 131.863L130.785 132.324C131.172 134.185 130.418 135.674 129.513 137.418C129.402 137.632 128.781 137.573 128.56 138.238C130.263 140.611 127.914 141.412 126.815 143.14C127.209 143.4 127.529 143.531 127.682 143.962L127.321 144.336L126.95 144.331C126.795 144.107 126.636 143.884 126.475 143.664C125.973 142.987 126.157 143.057 125.514 142.958C124.868 144.262 124.421 145.287 123.484 146.417L121.842 144.815C121.604 145.885 121.622 146.442 120.806 147.06C119.985 147.253 119.29 146.925 118.452 146.665C117.147 148.412 116.48 149.602 115.438 151.486C115.821 156.983 115.626 156.588 114.494 161.979L114.176 162.177L113.866 161.996C113.97 160.303 115.281 157.244 115.079 155.758C114.741 153.278 115.475 149.291 115.026 147.109L114.537 147.203L114.305 147.243C114.327 148.07 114.462 149.815 114.105 150.444C113.752 149.882 113.666 148.343 113.583 147.591C113.075 147.081 113.273 147.122 112.712 147.084C112.461 148.039 114.337 152.773 114.29 154.375C114.254 155.615 113.628 160.968 113.071 161.725C112.31 161.468 114.039 155.838 113.734 154.555C113.246 152.528 113.195 150.035 112.041 148.176C111.564 147.988 111.538 148.094 111.036 148.3C108.63 149.29 109.65 147.389 108.969 146.412C107.576 146.58 106.31 148.123 104.938 147.908C104.544 147.498 104.516 147.425 104.257 146.945L104.186 146.812C103.366 146.361 103.231 146.725 102.399 146.684C100.98 146.614 101.606 145.403 100.726 144.407C99.7652 144.288 99.8896 144.659 98.7703 144.861L98.6133 144.52C98.9803 143.989 100.903 143.272 101.633 143.622C101.429 146.705 102.326 146.229 104.373 145.997C104.763 145.953 104.489 146.873 105.331 147.336C106.814 147.091 108.673 145.343 109.411 145.262C109.582 146.389 109.456 147.696 110.614 147.988C112.722 147.141 111.579 145.559 112.153 144.531C112.696 144.856 112.268 145.372 112.863 146.328L113.811 146.301L114.162 146.681L114.517 146.628C115.045 145.995 114.957 145.278 115.332 144.346C115.428 144.725 115.532 145.102 115.644 145.477C115.913 146.36 116.056 146.56 116.843 146.981C118.413 146.99 117.72 145.274 118.686 144.593C118.994 144.99 118.649 145.194 118.753 146.053C119.653 146.612 120.566 146.934 121.239 145.969C121.345 144.979 120.809 144.189 121.082 143.626L121.594 143.544C122.166 143.806 122.58 144.694 123.245 145.325L123.665 145.271C124.511 144.408 124.501 143.239 125.317 142.018C125.81 142.152 125.959 142.158 126.456 142.208C127.82 141.687 128.03 140.835 128.781 139.478C127.072 137.816 127.488 137.858 129.278 136.406C130.644 135.297 130.966 132.196 129.325 131.271C127.904 130.47 125.955 131.905 124.729 130.346C124.97 128.529 127.82 128.888 124.78 125.388C123.608 126.189 120.409 128.365 119.106 128.405L118.925 128.097C119.251 127.333 121.212 126.836 122.162 126.481C127.025 124.666 128.085 116.171 122.756 114.556C122.364 114.699 122.075 114.794 121.675 114.908C121.459 113.697 123.367 112.642 122.193 110.902C120.024 109.662 119.922 110.753 118.602 111.924L118.484 111.664C118.857 111.03 118.951 110.928 119.11 110.226C118.566 108.924 117.618 108.715 116.366 108.753C116.661 108.245 116.661 108.207 116.825 107.67L116.631 107.342L116.168 107.318C115.673 107.763 115.819 107.546 115.768 108.41C114.358 107.733 115.958 106.946 112.351 105.968C111.717 106.3 110.683 106.837 110.2 107.346C109.782 107.786 109.56 108.602 109.067 108.948L108.412 108.348C107.613 108.068 106.748 108.501 106.025 108.846C105.892 109.609 106.371 110.209 106.808 110.899L105.13 109.667C104.716 110.406 104.114 111.315 104.077 112.121C104.524 112.404 104.968 112.692 105.409 112.983L105.415 113.262C104.061 113.951 103.682 112.664 102.234 112.61C101.686 113.107 101.857 112.955 101.651 113.815C102.039 114.58 103.078 114.917 103.927 115.726L103.902 116.017L103.421 116.019C102.707 115.447 102.528 115.329 101.696 114.937L101.498 114.845C101.301 115.542 100.834 116.997 100.942 117.68C100.989 117.978 101.692 118.266 102.051 118.469L102.055 118.752C101.298 119.02 101.095 118.381 99.9079 118.534C98.9252 119.469 100.036 120.708 99.6225 121.625L99.3248 121.534C98.9048 120.723 98.8233 119.285 99.1006 118.425C99.4105 117.466 99.9467 118.465 100.409 116.982C100.929 115.314 100.913 113.278 101.651 111.756C102.267 111.643 102.536 112.003 103.203 112.429L103.405 112.294L103.182 111.71C104.018 110.867 104.051 109.921 105.005 108.875C106.175 107.593 107.915 108.193 108.751 107.68C109.523 107.206 110.981 106.149 111.872 105.578Z" fill="#68C4BA"/>
<rect width="178.997" height="84.6079" transform="matrix(0.866025 0.5 -0.866025 0.5 191.359 55.7949)" fill="#BEDCD9" stroke="#68C4BA"/>
<rect width="178.305" height="64.1282" transform="matrix(0.866025 0.5 0 1 118.5 98.3789)" fill="#EDF9F8" stroke="#68C4BA"/>
<rect width="45.0333" height="32.6025" transform="matrix(0.866025 0.5 0 1 222 175.068)" fill="#FCFDFD" stroke="#68C4BA"/>
<rect width="30.247" height="36.3681" transform="matrix(0.866025 0.5 0 1 130.717 133.191)" fill="#EDF9F8" stroke="#68C4BA"/>
<rect width="30.247" height="28.129" transform="matrix(0.866025 0.5 0 1 130.719 141.43)" fill="#EDF9F8" stroke="#68C4BA"/>
<rect width="30.247" height="12.0808" transform="matrix(0.866025 0.5 0 1 130.719 149.668)" fill="#EDF9F8" stroke="#68C4BA"/>
<rect width="84.3924" height="63.6103" transform="matrix(0.866025 -0.5 0 1 272.914 187.748)" fill="#EDF9F8" stroke="#68C4BA"/>
<path d="M471.78 180.864L472.904 186.898L473.185 187.178L474.029 186.617L473.185 179.741L474.731 173.145H475.434H477.402L478.245 171.041L482.18 172.724L483.164 171.602H485.272L486.256 169.357L488.223 169.778V167.673L490.753 164.866C491.081 164.679 491.737 164.277 491.737 164.164C491.737 164.052 491.924 163.743 492.018 163.603L490.753 161.077L490.331 157.85L489.488 154.341C488.832 153.499 487.801 151.535 488.926 150.412C490.05 149.29 488.645 146.951 487.801 145.922L488.223 144.799L487.801 143.676L486.677 143.396V142.133L485.974 139.326L485.272 137.502L483.445 137.923V137.081L482.882 135.678L481.758 134.134L480.774 133.432H478.104L475.434 131.047H474.169L472.202 132.31H471.077H470.234L469.812 133.432L467.142 135.257C463.994 135.144 464.05 136.987 464.472 137.923V139.326C458.626 141.908 460.443 147.793 462.083 150.412L461.099 151.815L460.537 153.499L462.083 154.903L461.802 155.604L460.256 156.025L457.305 156.306C455.281 159.562 457.398 161.872 458.71 162.621V163.603L458.288 164.164V165.568L459.132 166.55L461.38 167.673L462.364 169.076L463.629 171.041L464.472 170.479L465.596 169.357L465.877 171.461L466.721 171.882L468.829 171.602L469.812 172.584L471.78 174.128V180.864Z" fill="#FCFDFD"/>
<path d="M488.697 152.804L488.281 152.767C488.108 153.537 489.52 154.694 489.267 155.526C488.623 155.324 488.334 155.184 487.67 155.199L487.608 155.461C488.344 156.142 488.954 155.819 489.569 156.245C490.321 156.765 489.078 157.634 489.348 158.836C489.756 159.231 489.947 159.378 490.13 159.939C490.182 160.871 490.135 161.143 490.766 161.751L490.899 161.525C489.787 157.418 490.855 156.447 488.697 152.804Z" fill="#68C4BA"/>
<path d="M488.462 163.33C488.125 163.324 488.288 163.282 487.982 163.486C488.558 164.152 489.498 163.825 489.903 164.667C489.721 165.36 488.581 166.188 487.891 167.128L487.744 167.328C486.85 166.843 486.65 166.717 485.608 166.484L485.469 166.714L485.765 166.89L487.865 168C489.117 166.281 489.256 166.381 490.882 165.064C491.198 164.809 491.061 164.553 490.999 164.249C490.243 163.581 489.528 163.589 488.462 163.33Z" fill="#68C4BA"/>
<path d="M487.34 149.289C485.201 149.539 485.46 151.362 483.507 149.733L483.13 150.179C484.665 152.119 486.196 150.841 487.34 149.289Z" fill="#68C4BA"/>
<path d="M475.017 130.578C471.426 130.559 473.104 131.904 470.425 131.677C469.367 132.113 467.976 133.906 467.297 134.869C466.109 134.859 465.214 134.888 464.131 135.394C463.224 136.625 464.443 136.844 464.143 138.77C463.68 139.358 463.44 139.138 462.506 139.477C458.624 144.052 459.425 145.092 461.462 150.082C461.105 151.949 457.969 152.647 461.58 154.761L461.654 155.119C460.689 155.824 457.376 155.479 457.376 155.479L456.614 155.889C456.512 155.991 456.226 156.401 456.226 156.863L456.104 157.324C455.716 159.185 456.471 160.674 457.376 162.418C457.486 162.632 458.108 162.573 458.328 163.238C456.626 165.611 458.975 166.412 460.074 168.14C459.68 168.4 459.36 168.531 459.207 168.962L459.568 169.336L459.939 169.331C460.094 169.107 460.253 168.884 460.414 168.664C460.916 167.987 460.732 168.057 461.374 167.958C462.021 169.262 462.467 170.287 463.405 171.417L465.046 169.815C465.285 170.885 465.267 171.442 466.082 172.06C466.904 172.253 467.599 171.925 468.437 171.665C469.742 173.412 470.409 174.602 471.451 176.486C471.067 181.983 471.263 181.588 472.395 186.979L472.713 187.177L473.023 186.996C472.919 185.303 471.608 182.244 471.809 180.758C472.148 178.278 471.414 174.291 471.862 172.109L472.352 172.203L472.584 172.243C472.562 173.07 472.427 174.815 472.784 175.444C473.137 174.882 473.222 173.343 473.306 172.591C473.814 172.081 473.616 172.122 474.177 172.084C474.427 173.039 472.552 177.773 472.598 179.375C472.635 180.615 473.261 185.968 473.818 186.725C474.578 186.468 472.849 180.838 473.155 179.555C473.642 177.528 473.693 175.035 474.847 173.176C475.324 172.988 475.351 173.094 475.852 173.3C478.258 174.29 477.239 172.389 477.92 171.412C479.313 171.58 480.579 173.123 481.951 172.908C482.344 172.498 482.373 172.425 482.632 171.945L482.703 171.812C483.523 171.361 483.657 171.725 484.489 171.684C485.908 171.614 485.282 170.403 486.163 169.407C487.123 169.288 486.999 169.659 488.118 169.861L488.275 169.52C487.908 168.989 485.986 168.272 485.256 168.622C485.46 171.705 484.563 171.229 482.516 170.997C482.126 170.953 482.399 171.873 481.557 172.336C480.075 172.091 478.216 170.343 477.477 170.262C477.306 171.389 477.433 172.696 476.275 172.988C474.166 172.141 475.31 170.559 474.735 169.531C474.193 169.856 474.621 170.372 474.026 171.328L473.078 171.301L472.727 171.681L472.372 171.628C471.844 170.995 471.932 170.278 471.557 169.346C471.461 169.725 471.357 170.102 471.245 170.477C470.975 171.36 470.833 171.56 470.046 171.981C468.476 171.99 469.169 170.274 468.203 169.593C467.895 169.99 468.239 170.194 468.135 171.053C467.236 171.612 466.323 171.934 465.65 170.969C465.544 169.979 466.08 169.189 465.807 168.626L465.295 168.544C464.722 168.806 464.308 169.694 463.644 170.325L463.224 170.271C462.378 169.408 462.388 168.239 461.572 167.018C461.079 167.152 460.93 167.158 460.432 167.208C459.068 166.687 458.858 165.835 458.108 164.478C459.817 162.816 459.401 162.858 457.611 161.406C456.245 160.297 455.922 157.196 457.564 156.271C458.985 155.47 460.934 156.905 462.159 155.346C461.919 153.529 459.068 153.888 462.108 150.388C463.281 151.189 466.48 153.365 467.783 153.405L467.964 153.097C467.638 152.333 465.676 151.836 464.726 151.481C459.864 149.666 458.803 141.171 464.133 139.556C464.524 139.699 464.814 139.794 465.214 139.908C465.43 138.697 463.521 137.642 464.696 135.902C466.865 134.662 466.967 135.753 468.286 136.924L468.404 136.664C468.031 136.03 467.938 135.928 467.778 135.226C468.323 133.924 469.271 133.715 470.523 133.753C470.227 133.245 470.227 133.207 470.064 132.67L470.258 132.342L470.721 132.318C471.216 132.763 471.069 132.546 471.12 133.41C472.531 132.733 470.931 131.946 474.537 130.968C475.172 131.3 476.205 131.837 476.688 132.346C477.106 132.786 477.329 133.602 477.822 133.948L478.477 133.348C479.276 133.068 480.14 133.501 480.864 133.846C480.997 134.609 480.517 135.209 480.081 135.899L481.759 134.667C482.173 135.406 482.775 136.315 482.811 137.121C482.365 137.404 481.92 137.692 481.48 137.983L481.474 138.262C482.828 138.951 483.207 137.664 484.654 137.61C485.203 138.107 485.032 137.955 485.237 138.815C484.85 139.58 483.81 139.917 482.962 140.726L482.987 141.017L483.468 141.019C484.181 140.447 484.361 140.329 485.193 139.937L485.39 139.845C485.588 140.542 486.055 141.997 485.947 142.68C485.9 142.978 485.197 143.266 484.838 143.469L484.834 143.752C485.59 144.02 485.794 143.381 486.981 143.534C487.963 144.469 486.852 145.708 487.266 146.625L487.564 146.534C487.984 145.723 488.065 144.285 487.788 143.425C487.478 142.466 486.942 143.465 486.479 141.982C485.959 140.314 485.976 138.278 485.237 136.756C484.622 136.643 484.353 137.003 483.686 137.429L483.484 137.294L483.706 136.71C482.87 135.867 482.838 134.921 481.884 133.875C480.713 132.593 478.974 133.193 478.138 132.68C477.365 132.206 475.908 131.149 475.017 130.578Z" fill="#68C4BA"/>
<path d="M308.12 260.108L306.996 266.142L306.715 266.422L305.872 265.861L306.715 258.985L305.169 252.39H304.466H302.499L301.656 250.285L297.72 251.969L296.737 250.846H294.629L293.645 248.601L291.677 249.022V246.917L289.148 244.11C288.82 243.923 288.164 243.521 288.164 243.409C288.164 243.296 287.977 242.988 287.883 242.847L289.148 240.321L289.569 237.094L290.412 233.586C291.068 232.744 292.099 230.779 290.975 229.656C289.85 228.534 291.256 226.195 292.099 225.166L291.677 224.043L292.099 222.921L293.223 222.64V221.377L293.926 218.57L294.629 216.746L296.456 217.167V216.325L297.018 214.922L298.142 213.378L299.126 212.677H301.796L304.466 210.291H305.731L307.699 211.554H308.823H309.666L310.088 212.677L312.758 214.501C315.906 214.389 315.85 216.232 315.428 217.167V218.57C321.275 221.152 319.457 227.037 317.818 229.656L318.801 231.06L319.363 232.744L317.818 234.147L318.099 234.848L319.645 235.269L322.596 235.55C324.62 238.806 322.502 241.117 321.19 241.865V242.847L321.612 243.409V244.812L320.769 245.794L318.52 246.917L317.536 248.32L316.272 250.285L315.428 249.723L314.304 248.601L314.023 250.706L313.18 251.127L311.072 250.846L310.088 251.828L308.12 253.372V260.108Z" fill="#FCFDFD"/>
<path d="M291.204 232.048L291.62 232.011C291.792 232.782 290.38 233.938 290.634 234.77C291.277 234.568 291.567 234.428 292.23 234.443L292.293 234.705C291.556 235.386 290.947 235.063 290.331 235.489C289.579 236.009 290.823 236.878 290.552 238.08C290.145 238.475 289.954 238.622 289.771 239.183C289.719 240.115 289.765 240.387 289.135 240.996L289.001 240.769C290.113 236.663 289.045 235.691 291.204 232.048Z" fill="#68C4BA"/>
<path d="M291.438 242.574C291.776 242.568 291.613 242.526 291.918 242.73C291.343 243.396 290.402 243.069 289.997 243.912C290.18 244.604 291.319 245.432 292.01 246.372L292.157 246.572C293.05 246.087 293.25 245.961 294.293 245.728L294.432 245.958L294.136 246.134L292.036 247.244C290.783 245.525 290.644 245.625 289.018 244.308C288.703 244.053 288.84 243.797 288.901 243.493C289.658 242.825 290.372 242.833 291.438 242.574Z" fill="#68C4BA"/>
<path d="M292.561 228.535C294.699 228.785 294.44 230.608 296.393 228.979L296.77 229.425C295.235 231.365 293.704 230.087 292.561 228.535Z" fill="#68C4BA"/>
<path d="M304.884 209.824C308.474 209.805 306.796 211.15 309.475 210.923C310.534 211.359 311.924 213.152 312.603 214.115C313.792 214.105 314.687 214.134 315.769 214.64C316.677 215.871 315.457 216.09 315.757 218.016C316.22 218.604 316.461 218.385 317.394 218.723C321.276 223.298 320.475 224.338 318.438 229.328C318.795 231.195 321.931 231.893 318.32 234.007L318.247 234.365C319.211 235.07 322.524 234.725 322.524 234.725L323.287 235.135C323.389 235.237 323.674 235.647 323.674 236.109L323.797 236.57C324.184 238.432 323.43 239.92 322.524 241.664C322.414 241.878 321.792 241.819 321.572 242.484C323.275 244.857 320.926 245.658 319.827 247.386C320.22 247.646 320.54 247.777 320.693 248.208L320.332 248.582L319.961 248.577C319.806 248.353 319.647 248.131 319.486 247.91C318.985 247.233 319.168 247.303 318.526 247.204C317.88 248.508 317.433 249.533 316.495 250.663L314.854 249.061C314.615 250.131 314.634 250.688 313.818 251.306C312.997 251.499 312.301 251.171 311.463 250.911C310.158 252.658 309.492 253.848 308.45 255.733C308.833 261.229 308.637 260.834 307.506 266.225L307.188 266.423L306.878 266.242C306.982 264.549 308.293 261.49 308.091 260.004C307.753 257.524 308.487 253.538 308.038 251.355L307.549 251.449L307.316 251.489C307.339 252.316 307.473 254.061 307.116 254.69C306.764 254.128 306.678 252.589 306.594 251.837C306.087 251.327 306.285 251.368 305.724 251.331C305.473 252.285 307.349 257.019 307.302 258.621C307.265 259.861 306.639 265.214 306.083 265.971C305.322 265.715 307.051 260.084 306.745 258.801C306.258 256.774 306.207 254.281 305.053 252.422C304.576 252.234 304.549 252.34 304.048 252.546C301.642 253.536 302.661 251.635 301.98 250.658C300.588 250.827 299.322 252.37 297.95 252.154C297.556 251.744 297.528 251.671 297.269 251.191L297.197 251.058C296.378 250.607 296.243 250.971 295.411 250.93C293.992 250.86 294.618 249.649 293.737 248.653C292.777 248.534 292.901 248.905 291.782 249.107L291.625 248.766C291.992 248.235 293.915 247.518 294.645 247.868C294.441 250.951 295.338 250.475 297.385 250.244C297.774 250.199 297.501 251.119 298.343 251.582C299.825 251.337 301.685 249.589 302.423 249.509C302.594 250.635 302.468 251.942 303.626 252.234C305.734 251.387 304.59 249.805 305.165 248.778C305.708 249.102 305.279 249.618 305.875 250.574L306.823 250.547L307.174 250.927L307.528 250.874C308.056 250.241 307.969 249.525 308.344 248.592C308.44 248.971 308.544 249.348 308.656 249.723C308.925 250.606 309.068 250.806 309.855 251.227C311.425 251.236 310.731 249.52 311.698 248.839C312.006 249.236 311.661 249.44 311.765 250.299C312.664 250.859 313.578 251.18 314.25 250.215C314.357 249.225 313.82 248.435 314.093 247.872L314.605 247.79C315.178 248.052 315.592 248.94 316.257 249.571L316.677 249.517C317.523 248.654 317.513 247.485 318.328 246.264C318.822 246.398 318.97 246.404 319.468 246.454C320.832 245.934 321.042 245.081 321.792 243.724C320.084 242.062 320.5 242.104 322.29 240.652C323.656 239.544 323.978 236.443 322.337 235.517C320.916 234.716 318.966 236.151 317.741 234.592C317.982 232.775 320.832 233.134 317.792 229.634C316.62 230.435 313.421 232.611 312.118 232.652L311.936 232.343C312.263 231.579 314.224 231.082 315.174 230.727C320.037 228.912 321.097 220.417 315.767 218.802C315.376 218.945 315.086 219.041 314.687 219.155C314.471 217.943 316.379 216.888 315.205 215.148C313.035 213.909 312.933 214.999 311.614 216.171L311.496 215.91C311.869 215.276 311.963 215.174 312.122 214.472C311.578 213.17 310.629 212.961 309.378 212.999C309.673 212.491 309.673 212.453 309.836 211.916L309.643 211.588L309.18 211.564C308.684 212.009 308.831 211.792 308.78 212.656C307.369 211.979 308.97 211.192 305.363 210.214C304.729 210.546 303.695 211.083 303.212 211.592C302.794 212.032 302.572 212.848 302.078 213.195L301.424 212.594C300.625 212.314 299.76 212.747 299.036 213.092C298.904 213.855 299.383 214.456 299.819 215.146L298.141 213.913C297.727 214.652 297.126 215.561 297.089 216.367C297.536 216.65 297.98 216.938 298.421 217.229L298.427 217.508C297.073 218.197 296.694 216.911 295.246 216.856C294.698 217.353 294.869 217.201 294.663 218.061C295.05 218.826 296.09 219.164 296.938 219.972L296.914 220.263L296.433 220.265C295.719 219.693 295.54 219.575 294.708 219.183L294.51 219.091C294.312 219.788 293.845 221.243 293.953 221.926C294 222.224 294.704 222.513 295.063 222.715L295.067 222.998C294.31 223.266 294.106 222.627 292.92 222.78C291.937 223.715 293.048 224.954 292.634 225.871L292.337 225.78C291.917 224.969 291.835 223.531 292.112 222.671C292.422 221.712 292.958 222.711 293.421 221.228C293.941 219.56 293.925 217.524 294.663 216.002C295.279 215.89 295.548 216.249 296.215 216.675L296.416 216.54L296.194 215.956C297.03 215.113 297.063 214.167 298.017 213.121C299.187 211.839 300.926 212.439 301.762 211.926C302.535 211.452 303.993 210.395 304.884 209.824Z" fill="#68C4BA"/>
<path d="M327.051 267.125L328.176 273.159L328.457 273.44L329.3 272.879L328.457 266.003L330.003 259.407H330.706H332.673L333.516 257.302L337.451 258.986L338.435 257.864H340.543L341.527 255.618L343.494 256.039V253.934L346.024 251.128C346.352 250.941 347.008 250.538 347.008 250.426C347.008 250.314 347.195 250.005 347.289 249.865L346.024 247.339L345.603 244.111L344.759 240.603C344.103 239.761 343.073 237.797 344.197 236.674C345.321 235.551 343.916 233.212 343.073 232.183L343.494 231.061L343.073 229.938L341.949 229.658V228.395L341.246 225.588L340.543 223.764L338.716 224.185V223.343L338.154 221.939L337.03 220.396L336.046 219.694H333.376L330.705 217.309H329.441L327.473 218.572H326.349H325.506L325.084 219.694L322.414 221.518C319.266 221.406 319.322 223.249 319.743 224.185V225.588C313.897 228.17 315.715 234.054 317.354 236.674L316.371 238.077L315.808 239.761L317.354 241.164L317.073 241.866L315.527 242.287L312.576 242.568C310.552 245.823 312.67 248.134 313.981 248.883V249.865L313.56 250.426V251.829L314.403 252.812L316.652 253.934L317.635 255.338L318.9 257.302L319.743 256.741L320.868 255.618L321.149 257.723L321.992 258.144L324.1 257.864L325.084 258.846L327.051 260.389V267.125Z" fill="#FCFDFD"/>
<path d="M343.968 239.065L343.552 239.028C343.38 239.799 344.792 240.956 344.538 241.787C343.895 241.585 343.605 241.445 342.942 241.46L342.879 241.723C343.616 242.404 344.225 242.081 344.841 242.506C345.593 243.026 344.349 243.895 344.619 245.098C345.027 245.493 345.218 245.639 345.401 246.2C345.453 247.133 345.407 247.405 346.037 248.013L346.171 247.787C345.059 243.68 346.127 242.709 343.968 239.065Z" fill="#68C4BA"/>
<path d="M343.734 249.592C343.396 249.585 343.559 249.544 343.253 249.747C343.829 250.414 344.77 250.087 345.175 250.929C344.992 251.621 343.853 252.449 343.162 253.39L343.015 253.59C342.122 253.104 341.921 252.978 340.879 252.746L340.74 252.976L341.036 253.152L343.136 254.262C344.389 252.542 344.528 252.643 346.153 251.326C346.469 251.071 346.332 250.814 346.271 250.511C345.514 249.843 344.8 249.851 343.734 249.592Z" fill="#68C4BA"/>
<path d="M342.611 235.551C340.473 235.801 340.732 237.624 338.779 235.995L338.401 236.441C339.937 238.38 341.468 237.103 342.611 235.551Z" fill="#68C4BA"/>
<path d="M330.288 216.84C326.698 216.821 328.376 218.165 325.696 217.939C324.638 218.375 323.248 220.168 322.569 221.131C321.38 221.121 320.485 221.15 319.402 221.655C318.495 222.887 319.714 223.106 319.415 225.031C318.952 225.62 318.711 225.4 317.777 225.739C313.895 230.313 314.697 231.354 316.734 236.344C316.377 238.211 313.241 238.908 316.852 241.022L316.925 241.381C315.961 242.085 312.648 241.741 312.648 241.741L311.885 242.151C311.783 242.253 311.498 242.663 311.498 243.125L311.375 243.585C310.988 245.447 311.742 246.936 312.648 248.679C312.758 248.893 313.38 248.835 313.6 249.5C311.897 251.872 314.246 252.673 315.345 254.402C314.952 254.662 314.631 254.793 314.479 255.224L314.839 255.598L315.21 255.593C315.365 255.369 315.524 255.146 315.686 254.925C316.187 254.248 316.004 254.319 316.646 254.22C317.292 255.524 317.739 256.548 318.677 257.679L320.318 256.076C320.556 257.147 320.538 257.704 321.354 258.322C322.175 258.515 322.871 258.186 323.709 257.926C325.013 259.674 325.68 260.864 326.722 262.748C326.339 268.245 326.534 267.85 327.666 273.241L327.984 273.439L328.294 273.258C328.19 271.564 326.879 268.506 327.081 267.02C327.419 264.54 326.685 260.553 327.134 258.371L327.623 258.465L327.856 258.505C327.833 259.332 327.699 261.077 328.055 261.706C328.408 261.144 328.494 259.605 328.577 258.853C329.085 258.342 328.887 258.383 329.448 258.346C329.699 259.301 327.823 264.035 327.87 265.636C327.907 266.877 328.533 272.23 329.089 272.987C329.85 272.73 328.121 267.1 328.427 265.817C328.914 263.79 328.965 261.297 330.119 259.437C330.596 259.25 330.622 259.355 331.124 259.562C333.53 260.552 332.51 258.651 333.191 257.674C334.584 257.842 335.85 259.385 337.222 259.17C337.616 258.76 337.644 258.687 337.903 258.207L337.975 258.074C338.794 257.623 338.929 257.987 339.761 257.946C341.18 257.876 340.554 256.665 341.435 255.669C342.395 255.549 342.271 255.921 343.39 256.122L343.547 255.782C343.18 255.251 341.257 254.534 340.527 254.884C340.731 257.966 339.834 257.491 337.787 257.259C337.398 257.215 337.671 258.135 336.829 258.597C335.346 258.352 333.487 256.604 332.749 256.524C332.578 257.651 332.704 258.958 331.546 259.25C329.438 258.403 330.582 256.821 330.007 255.793C329.464 256.117 329.892 256.633 329.297 257.59L328.349 257.562L327.998 257.943L327.644 257.89C327.116 257.256 327.203 256.54 326.828 255.608C326.732 255.987 326.628 256.364 326.516 256.738C326.247 257.622 326.104 257.822 325.317 258.243C323.747 258.251 324.441 256.535 323.474 255.855C323.166 256.251 323.511 256.456 323.407 257.314C322.508 257.874 321.594 258.196 320.921 257.23C320.815 256.241 321.352 255.45 321.078 254.887L320.567 254.806C319.994 255.067 319.58 255.956 318.915 256.587L318.495 256.533C317.649 255.67 317.659 254.501 316.844 253.279C316.35 253.414 316.201 253.42 315.704 253.47C314.34 252.949 314.13 252.097 313.38 250.739C315.088 249.078 314.672 249.119 312.882 247.667C311.516 246.559 311.194 243.458 312.835 242.533C314.256 241.732 316.205 243.167 317.431 241.608C317.19 239.791 314.34 240.15 317.38 236.65C318.552 237.451 321.751 239.626 323.054 239.667L323.236 239.359C322.909 238.595 320.948 238.098 319.998 237.743C315.135 235.928 314.075 227.433 319.404 225.818C319.796 225.961 320.085 226.056 320.485 226.17C320.701 224.959 318.793 223.904 319.967 222.163C322.137 220.924 322.239 222.015 323.558 223.186L323.676 222.926C323.303 222.292 323.209 222.19 323.05 221.488C323.594 220.186 324.542 219.977 325.794 220.015C325.499 219.507 325.499 219.469 325.336 218.931L325.529 218.604L325.992 218.58C326.488 219.025 326.341 218.808 326.392 219.672C327.803 218.995 326.202 218.208 329.809 217.23C330.443 217.562 331.477 218.099 331.96 218.608C332.378 219.047 332.6 219.863 333.094 220.21L333.748 219.61C334.547 219.33 335.412 219.763 336.136 220.108C336.268 220.87 335.789 221.471 335.353 222.161L337.031 220.929C337.445 221.667 338.046 222.576 338.083 223.382C337.636 223.666 337.192 223.953 336.751 224.245L336.745 224.524C338.099 225.212 338.478 223.926 339.926 223.872C340.474 224.369 340.303 224.217 340.509 225.077C340.122 225.842 339.082 226.179 338.234 226.988L338.258 227.278L338.739 227.28C339.453 226.709 339.632 226.591 340.464 226.198L340.662 226.107C340.86 226.804 341.327 228.259 341.218 228.942C341.172 229.24 340.468 229.528 340.109 229.73L340.105 230.013C340.862 230.282 341.066 229.643 342.252 229.796C343.235 230.731 342.124 231.969 342.538 232.886L342.835 232.796C343.255 231.985 343.337 230.547 343.06 229.687C342.75 228.728 342.213 229.727 341.751 228.244C341.231 226.576 341.247 224.539 340.509 223.017C339.893 222.905 339.624 223.265 338.957 223.691L338.755 223.555L338.978 222.971C338.142 222.128 338.109 221.183 337.155 220.136C335.985 218.854 334.245 219.455 333.41 218.942C332.637 218.468 331.179 217.411 330.288 216.84Z" fill="#68C4BA"/>
</svg>
